<ttFont>
    <TTGlyph name=".notdef" xMin="100" yMin="0" xMax="658" yMax="531">
      <contour>
        <pt x="644" y="506" on="1"/>
        <pt x="392" y="266" on="1"/>
        <pt x="644" y="25" on="1"/>
      </contour>
      <contour>
        <pt x="127" y="13" on="1"/>
        <pt x="634" y="13" on="1"/>
        <pt x="381" y="256" on="1"/>
      </contour>
      <contour>
        <pt x="114" y="22" on="1"/>
        <pt x="370" y="266" on="1"/>
        <pt x="114" y="507" on="1"/>
      </contour>
      <contour>
        <pt x="635" y="518" on="1"/>
        <pt x="124" y="518" on="1"/>
        <pt x="381" y="276" on="1"/>
      </contour>
      <contour>
        <pt x="100" y="0" on="1"/>
        <pt x="100" y="531" on="1"/>
        <pt x="658" y="531" on="1"/>
        <pt x="658" y="0" on="1"/>
      </contour>
    </TTGlyph>
    <TTGlyph name="A" xMin="45" yMin="0" xMax="645" yMax="732">
      <contour>
        <pt x="45" y="0" on="1"/>
        <pt x="314" y="732" on="1"/>
        <pt x="388" y="732" on="1"/>
        <pt x="645" y="0" on="1"/>
        <pt x="557" y="0" on="1"/>
        <pt x="494" y="204" on="1"/>
        <pt x="202" y="204" on="1"/>
        <pt x="136" y="0" on="1"/>
      </contour>
      <contour>
        <pt x="229" y="278" on="1"/>
        <pt x="468" y="278" on="1"/>
        <pt x="350" y="619" on="1"/>
      </contour>
    </TTGlyph>
    <TTGlyph name="AE" xMin="30" yMin="-6" xMax="876" yMax="733">
      <contour>
        <pt x="512" y="733" on="1"/>
        <pt x="556" y="732" on="1"/>
        <pt x="876" y="716" on="1"/>
        <pt x="876" y="657" on="1"/>
        <pt x="556" y="657" on="1"/>
        <pt x="521" y="657" on="0"/>
        <pt x="514" y="640" on="1"/>
        <pt x="508" y="627" on="0"/>
        <pt x="506" y="604" on="1"/>
        <pt x="506" y="397" on="1"/>
        <pt x="836" y="387" on="1"/>
        <pt x="836" y="328" on="1"/>
        <pt x="506" y="318" on="1"/>
        <pt x="506" y="121" on="1"/>
        <pt x="506" y="91" on="0"/>
        <pt x="530" y="74" on="0"/>
        <pt x="539" y="74" on="1"/>
        <pt x="557" y="74" on="1"/>
        <pt x="568" y="74" on="1"/>
        <pt x="875" y="73" on="1"/>
        <pt x="875" y="12" on="1"/>
        <pt x="568" y="-5" on="1"/>
        <pt x="560" y="-5" on="0"/>
        <pt x="553" y="-5" on="1"/>
        <pt x="432" y="-5" on="0"/>
        <pt x="432" y="121" on="1"/>
        <pt x="432" y="227" on="1"/>
        <pt x="222" y="227" on="1"/>
        <pt x="111" y="0" on="1"/>
        <pt x="30" y="0" on="1"/>
        <pt x="328" y="604" on="1"/>
        <pt x="354" y="657" on="0"/>
        <pt x="390" y="691" on="0"/>
        <pt x="410" y="711" on="0"/>
        <pt x="441" y="722" on="0"/>
        <pt x="459" y="730" on="0"/>
        <pt x="494" y="732" on="0"/>
        <pt x="505" y="733" on="0"/>
      </contour>
      <contour>
        <pt x="432" y="301" on="1"/>
        <pt x="432" y="652" on="1"/>
        <pt x="259" y="301" on="1"/>
      </contour>
    </TTGlyph>
    <TTGlyph name="Aacute" xMin="45" yMin="0" xMax="645" yMax="930">
      <contour>
        <pt x="316" y="797" on="1"/>
        <pt x="424" y="930" on="1"/>
        <pt x="518" y="930" on="1"/>
        <pt x="386" y="797" on="1"/>
      </contour>
      <contour>
        <pt x="45" y="0" on="1"/>
        <pt x="314" y="732" on="1"/>
        <pt x="388" y="732" on="1"/>
        <pt x="645" y="0" on="1"/>
        <pt x="557" y="0" on="1"/>
        <pt x="494" y="204" on="1"/>
        <pt x="202" y="204" on="1"/>
        <pt x="136" y="0" on="1"/>
      </contour>
      <contour>
        <pt x="229" y="278" on="1"/>
        <pt x="468" y="278" on="1"/>
        <pt x="350" y="619" on="1"/>
      </contour>
    </TTGlyph>
    <TTGlyph name="Abreve" xMin="45" yMin="0" xMax="645" yMax="911">
      <contour>
        <pt x="236" y="911" on="1"/>
        <pt x="283" y="911" on="1"/>
        <pt x="283" y="883" on="0"/>
        <pt x="324" y="844" on="0"/>
        <pt x="379" y="844" on="0"/>
        <pt x="419" y="880" on="0"/>
        <pt x="419" y="911" on="1"/>
        <pt x="466" y="911" on="1"/>
        <pt x="466" y="858" on="0"/>
        <pt x="395" y="797" on="0"/>
        <pt x="306" y="797" on="0"/>
        <pt x="236" y="860" on="0"/>
      </contour>
      <contour>
        <pt x="45" y="0" on="1"/>
        <pt x="314" y="732" on="1"/>
        <pt x="388" y="732" on="1"/>
        <pt x="645" y="0" on="1"/>
        <pt x="557" y="0" on="1"/>
        <pt x="494" y="204" on="1"/>
        <pt x="202" y="204" on="1"/>
        <pt x="136" y="0" on="1"/>
      </contour>
      <contour>
        <pt x="229" y="278" on="1"/>
        <pt x="468" y="278" on="1"/>
        <pt x="350" y="619" on="1"/>
      </contour>
    </TTGlyph>
    <TTGlyph name="Acircumflex" xMin="45" yMin="0" xMax="645" yMax="927">
      <contour>
        <pt x="205" y="797" on="1"/>
        <pt x="322" y="927" on="1"/>
        <pt x="393" y="927" on="1"/>
        <pt x="497" y="797" on="1"/>
        <pt x="426" y="797" on="1"/>
        <pt x="355" y="868" on="1"/>
        <pt x="277" y="797" on="1"/>
      </contour>
      <contour>
        <pt x="45" y="0" on="1"/>
        <pt x="314" y="732" on="1"/>
        <pt x="388" y="732" on="1"/>
        <pt x="645" y="0" on="1"/>
        <pt x="557" y="0" on="1"/>
        <pt x="494" y="204" on="1"/>
        <pt x="202" y="204" on="1"/>
        <pt x="136" y="0" on="1"/>
      </contour>
      <contour>
        <pt x="229" y="278" on="1"/>
        <pt x="468" y="278" on="1"/>
        <pt x="350" y="619" on="1"/>
      </contour>
    </TTGlyph>
    <TTGlyph name="Adieresis" xMin="45" yMin="0" xMax="645" yMax="898">
      <contour>
        <pt x="173" y="827" on="0"/>
        <pt x="173" y="869" on="0"/>
        <pt x="203" y="898" on="0"/>
        <pt x="245" y="898" on="0"/>
        <pt x="274" y="869" on="0"/>
        <pt x="274" y="827" on="0"/>
        <pt x="245" y="797" on="0"/>
        <pt x="203" y="797" on="0"/>
      </contour>
      <contour>
        <pt x="428" y="827" on="0"/>
        <pt x="428" y="869" on="0"/>
        <pt x="458" y="898" on="0"/>
        <pt x="500" y="898" on="0"/>
        <pt x="529" y="869" on="0"/>
        <pt x="529" y="827" on="0"/>
        <pt x="500" y="797" on="0"/>
        <pt x="458" y="797" on="0"/>
      </contour>
      <contour>
        <pt x="45" y="0" on="1"/>
        <pt x="314" y="732" on="1"/>
        <pt x="388" y="732" on="1"/>
        <pt x="645" y="0" on="1"/>
        <pt x="557" y="0" on="1"/>
        <pt x="494" y="204" on="1"/>
        <pt x="202" y="204" on="1"/>
        <pt x="136" y="0" on="1"/>
      </contour>
      <contour>
        <pt x="229" y="278" on="1"/>
        <pt x="468" y="278" on="1"/>
        <pt x="350" y="619" on="1"/>
      </contour>
    </TTGlyph>
    <TTGlyph name="Agrave" xMin="45" yMin="0" xMax="645" yMax="930">
      <contour>
        <pt x="184" y="930" on="1"/>
        <pt x="278" y="930" on="1"/>
        <pt x="386" y="797" on="1"/>
        <pt x="316" y="797" on="1"/>
      </contour>
      <contour>
        <pt x="45" y="0" on="1"/>
        <pt x="314" y="732" on="1"/>
        <pt x="388" y="732" on="1"/>
        <pt x="645" y="0" on="1"/>
        <pt x="557" y="0" on="1"/>
        <pt x="494" y="204" on="1"/>
        <pt x="202" y="204" on="1"/>
        <pt x="136" y="0" on="1"/>
      </contour>
      <contour>
        <pt x="229" y="278" on="1"/>
        <pt x="468" y="278" on="1"/>
        <pt x="350" y="619" on="1"/>
      </contour>
    </TTGlyph>
    <TTGlyph name="Amacron" xMin="45" yMin="0" xMax="645" yMax="860">
      <contour>
        <pt x="205" y="797" on="1"/>
        <pt x="205" y="860" on="1"/>
        <pt x="497" y="860" on="1"/>
        <pt x="497" y="797" on="1"/>
      </contour>
      <contour>
        <pt x="45" y="0" on="1"/>
        <pt x="314" y="732" on="1"/>
        <pt x="388" y="732" on="1"/>
        <pt x="645" y="0" on="1"/>
        <pt x="557" y="0" on="1"/>
        <pt x="494" y="204" on="1"/>
        <pt x="202" y="204" on="1"/>
        <pt x="136" y="0" on="1"/>
      </contour>
      <contour>
        <pt x="229" y="278" on="1"/>
        <pt x="468" y="278" on="1"/>
        <pt x="350" y="619" on="1"/>
      </contour>
    </TTGlyph>
    <TTGlyph name="Aogonek" xMin="45" yMin="-183" xMax="645" yMax="732">
      <contour>
        <pt x="564" y="-83" on="1"/>
        <pt x="564" y="-119" on="0"/>
        <pt x="626" y="-121" on="1"/>
        <pt x="626" y="-181" on="1"/>
        <pt x="616" y="-182" on="0"/>
        <pt x="584" y="-182" on="0"/>
        <pt x="534" y="-164" on="0"/>
        <pt x="519" y="-142" on="1"/>
        <pt x="501" y="-117" on="0"/>
        <pt x="501" y="-68" on="0"/>
        <pt x="542" y="-18" on="0"/>
        <pt x="584" y="0" on="1"/>
        <pt x="623" y="0" on="1"/>
        <pt x="564" y="-49" on="0"/>
      </contour>
      <contour>
        <pt x="45" y="0" on="1"/>
        <pt x="314" y="732" on="1"/>
        <pt x="388" y="732" on="1"/>
        <pt x="645" y="0" on="1"/>
        <pt x="557" y="0" on="1"/>
        <pt x="494" y="204" on="1"/>
        <pt x="202" y="204" on="1"/>
        <pt x="136" y="0" on="1"/>
      </contour>
      <contour>
        <pt x="229" y="278" on="1"/>
        <pt x="468" y="278" on="1"/>
        <pt x="350" y="619" on="1"/>
      </contour>
    </TTGlyph>
    <TTGlyph name="Aring" xMin="45" yMin="0" xMax="645" yMax="936">
      <contour>
        <pt x="250" y="804" on="0"/>
        <pt x="277" y="757" on="0"/>
        <pt x="324" y="730" on="0"/>
        <pt x="379" y="730" on="0"/>
        <pt x="426" y="757" on="0"/>
        <pt x="452" y="804" on="0"/>
        <pt x="452" y="875" on="0"/>
        <pt x="393" y="935" on="0"/>
        <pt x="309" y="935" on="0"/>
        <pt x="250" y="875" on="0"/>
      </contour>
      <contour>
        <pt x="296" y="810" on="0"/>
        <pt x="296" y="855" on="0"/>
        <pt x="329" y="887" on="0"/>
        <pt x="374" y="887" on="0"/>
        <pt x="406" y="855" on="0"/>
        <pt x="406" y="810" on="0"/>
        <pt x="374" y="778" on="0"/>
        <pt x="329" y="778" on="0"/>
      </contour>
      <contour>
        <pt x="45" y="0" on="1"/>
        <pt x="314" y="732" on="1"/>
        <pt x="388" y="732" on="1"/>
        <pt x="645" y="0" on="1"/>
        <pt x="557" y="0" on="1"/>
        <pt x="494" y="204" on="1"/>
        <pt x="202" y="204" on="1"/>
        <pt x="136" y="0" on="1"/>
      </contour>
      <contour>
        <pt x="229" y="278" on="1"/>
        <pt x="468" y="278" on="1"/>
        <pt x="350" y="619" on="1"/>
      </contour>
    </TTGlyph>
    <TTGlyph name="Atilde" xMin="45" yMin="0" xMax="645" yMax="903">
      <contour>
        <pt x="408" y="867" on="1"/>
        <pt x="431" y="867" on="0"/>
        <pt x="498" y="903" on="1"/>
        <pt x="520" y="861" on="1"/>
        <pt x="517" y="859" on="0"/>
        <pt x="496" y="842" on="1"/>
        <pt x="442" y="798" on="0"/>
        <pt x="409" y="798" on="1"/>
        <pt x="379" y="798" on="0"/>
        <pt x="315" y="832" on="0"/>
        <pt x="278" y="832" on="0"/>
        <pt x="249" y="821" on="0"/>
        <pt x="216" y="802" on="0"/>
        <pt x="203" y="797" on="1"/>
        <pt x="182" y="838" on="1"/>
        <pt x="209" y="860" on="0"/>
        <pt x="236" y="881" on="0"/>
        <pt x="281" y="902" on="0"/>
        <pt x="328" y="900" on="0"/>
        <pt x="395" y="867" on="0"/>
        <pt x="408" y="867" on="0"/>
      </contour>
      <contour>
        <pt x="45" y="0" on="1"/>
        <pt x="314" y="732" on="1"/>
        <pt x="388" y="732" on="1"/>
        <pt x="645" y="0" on="1"/>
        <pt x="557" y="0" on="1"/>
        <pt x="494" y="204" on="1"/>
        <pt x="202" y="204" on="1"/>
        <pt x="136" y="0" on="1"/>
      </contour>
      <contour>
        <pt x="229" y="278" on="1"/>
        <pt x="468" y="278" on="1"/>
        <pt x="350" y="619" on="1"/>
      </contour>
    </TTGlyph>
    <TTGlyph name="B" xMin="80" yMin="0" xMax="556" yMax="732">
      <contour>
        <pt x="80" y="0" on="1"/>
        <pt x="80" y="732" on="1"/>
        <pt x="362" y="732" on="1"/>
        <pt x="461" y="732" on="0"/>
        <pt x="552" y="616" on="0"/>
        <pt x="552" y="542" on="1"/>
        <pt x="552" y="409" on="0"/>
        <pt x="460" y="380" on="1"/>
        <pt x="498" y="371" on="0"/>
        <pt x="556" y="282" on="0"/>
        <pt x="556" y="204" on="1"/>
        <pt x="556" y="120" on="0"/>
        <pt x="517" y="64" on="1"/>
        <pt x="472" y="0" on="0"/>
        <pt x="362" y="0" on="1"/>
      </contour>
      <contour>
        <pt x="155" y="74" on="1"/>
        <pt x="362" y="74" on="1"/>
        <pt x="482" y="74" on="0"/>
        <pt x="482" y="206" on="1"/>
        <pt x="482" y="266" on="0"/>
        <pt x="422" y="346" on="0"/>
        <pt x="362" y="346" on="1"/>
        <pt x="155" y="346" on="1"/>
      </contour>
      <contour>
        <pt x="155" y="420" on="1"/>
        <pt x="362" y="420" on="1"/>
        <pt x="478" y="420" on="0"/>
        <pt x="478" y="658" on="0"/>
        <pt x="362" y="658" on="1"/>
        <pt x="155" y="658" on="1"/>
      </contour>
    </TTGlyph>
    <TTGlyph name="C" xMin="55" yMin="-6" xMax="543" yMax="740">
      <contour>
        <pt x="543" y="656" on="1"/>
        <pt x="363" y="666" on="0"/>
        <pt x="234" y="666" on="0"/>
        <pt x="163" y="617" on="0"/>
        <pt x="129" y="488" on="0"/>
        <pt x="129" y="366" on="1"/>
        <pt x="129" y="68" on="0"/>
        <pt x="299" y="68" on="1"/>
        <pt x="543" y="75" on="1"/>
        <pt x="543" y="16" on="1"/>
        <pt x="425" y="-6" on="0"/>
        <pt x="299" y="-6" on="1"/>
        <pt x="55" y="-6" on="0"/>
        <pt x="55" y="368" on="1"/>
        <pt x="55" y="558" on="0"/>
        <pt x="158" y="740" on="0"/>
        <pt x="299" y="740" on="1"/>
        <pt x="408" y="740" on="0"/>
        <pt x="543" y="715" on="1"/>
      </contour>
    </TTGlyph>
    <TTGlyph name="Cacute" xMin="55" yMin="-6" xMax="543" yMax="933">
      <contour>
        <pt x="294" y="800" on="1"/>
        <pt x="402" y="933" on="1"/>
        <pt x="496" y="933" on="1"/>
        <pt x="364" y="800" on="1"/>
      </contour>
      <contour>
        <pt x="543" y="656" on="1"/>
        <pt x="363" y="666" on="0"/>
        <pt x="234" y="666" on="0"/>
        <pt x="163" y="617" on="0"/>
        <pt x="129" y="488" on="0"/>
        <pt x="129" y="366" on="1"/>
        <pt x="129" y="68" on="0"/>
        <pt x="299" y="68" on="1"/>
        <pt x="543" y="75" on="1"/>
        <pt x="543" y="16" on="1"/>
        <pt x="425" y="-6" on="0"/>
        <pt x="299" y="-6" on="1"/>
        <pt x="55" y="-6" on="0"/>
        <pt x="55" y="368" on="1"/>
        <pt x="55" y="558" on="0"/>
        <pt x="158" y="740" on="0"/>
        <pt x="299" y="740" on="1"/>
        <pt x="408" y="740" on="0"/>
        <pt x="543" y="715" on="1"/>
      </contour>
    </TTGlyph>
    <TTGlyph name="Ccaron" xMin="55" yMin="-6" xMax="543" yMax="930">
      <contour>
        <pt x="188" y="930" on="1"/>
        <pt x="260" y="930" on="1"/>
        <pt x="340" y="859" on="1"/>
        <pt x="409" y="930" on="1"/>
        <pt x="480" y="930" on="1"/>
        <pt x="376" y="800" on="1"/>
        <pt x="305" y="800" on="1"/>
      </contour>
      <contour>
        <pt x="543" y="656" on="1"/>
        <pt x="363" y="666" on="0"/>
        <pt x="234" y="666" on="0"/>
        <pt x="163" y="617" on="0"/>
        <pt x="129" y="488" on="0"/>
        <pt x="129" y="366" on="1"/>
        <pt x="129" y="68" on="0"/>
        <pt x="299" y="68" on="1"/>
        <pt x="543" y="75" on="1"/>
        <pt x="543" y="16" on="1"/>
        <pt x="425" y="-6" on="0"/>
        <pt x="299" y="-6" on="1"/>
        <pt x="55" y="-6" on="0"/>
        <pt x="55" y="368" on="1"/>
        <pt x="55" y="558" on="0"/>
        <pt x="158" y="740" on="0"/>
        <pt x="299" y="740" on="1"/>
        <pt x="408" y="740" on="0"/>
        <pt x="543" y="715" on="1"/>
      </contour>
    </TTGlyph>
    <TTGlyph name="Ccedilla" xMin="55" yMin="-172" xMax="543" yMax="740">
      <contour>
        <pt x="303" y="-36" on="1"/>
        <pt x="370" y="-36" on="1"/>
        <pt x="370" y="-114" on="0"/>
        <pt x="328" y="-172" on="0"/>
        <pt x="269" y="-172" on="1"/>
        <pt x="218" y="-172" on="1"/>
        <pt x="218" y="-135" on="1"/>
        <pt x="271" y="-120" on="1"/>
        <pt x="303" y="-106" on="0"/>
      </contour>
      <contour>
        <pt x="543" y="656" on="1"/>
        <pt x="363" y="666" on="0"/>
        <pt x="234" y="666" on="0"/>
        <pt x="163" y="617" on="0"/>
        <pt x="129" y="488" on="0"/>
        <pt x="129" y="366" on="1"/>
        <pt x="129" y="68" on="0"/>
        <pt x="299" y="68" on="1"/>
        <pt x="543" y="75" on="1"/>
        <pt x="543" y="16" on="1"/>
        <pt x="425" y="-6" on="0"/>
        <pt x="299" y="-6" on="1"/>
        <pt x="55" y="-6" on="0"/>
        <pt x="55" y="368" on="1"/>
        <pt x="55" y="558" on="0"/>
        <pt x="158" y="740" on="0"/>
        <pt x="299" y="740" on="1"/>
        <pt x="408" y="740" on="0"/>
        <pt x="543" y="715" on="1"/>
      </contour>
    </TTGlyph>
    <TTGlyph name="Ccircumflex" xMin="55" yMin="-6" xMax="543" yMax="930">
      <contour>
        <pt x="183" y="800" on="1"/>
        <pt x="300" y="930" on="1"/>
        <pt x="371" y="930" on="1"/>
        <pt x="475" y="800" on="1"/>
        <pt x="404" y="800" on="1"/>
        <pt x="333" y="871" on="1"/>
        <pt x="255" y="800" on="1"/>
      </contour>
      <contour>
        <pt x="543" y="656" on="1"/>
        <pt x="363" y="666" on="0"/>
        <pt x="234" y="666" on="0"/>
        <pt x="163" y="617" on="0"/>
        <pt x="129" y="488" on="0"/>
        <pt x="129" y="366" on="1"/>
        <pt x="129" y="68" on="0"/>
        <pt x="299" y="68" on="1"/>
        <pt x="543" y="75" on="1"/>
        <pt x="543" y="16" on="1"/>
        <pt x="425" y="-6" on="0"/>
        <pt x="299" y="-6" on="1"/>
        <pt x="55" y="-6" on="0"/>
        <pt x="55" y="368" on="1"/>
        <pt x="55" y="558" on="0"/>
        <pt x="158" y="740" on="0"/>
        <pt x="299" y="740" on="1"/>
        <pt x="408" y="740" on="0"/>
        <pt x="543" y="715" on="1"/>
      </contour>
    </TTGlyph>
    <TTGlyph name="Cdotaccent" xMin="55" yMin="-6" xMax="543" yMax="904">
      <contour>
        <pt x="290" y="825" on="1"/>
        <pt x="290" y="879" on="1"/>
        <pt x="290" y="904" on="0"/>
        <pt x="314" y="904" on="1"/>
        <pt x="364" y="904" on="1"/>
        <pt x="387" y="904" on="0"/>
        <pt x="387" y="879" on="1"/>
        <pt x="387" y="825" on="1"/>
        <pt x="387" y="802" on="0"/>
        <pt x="364" y="802" on="1"/>
        <pt x="314" y="802" on="1"/>
        <pt x="290" y="802" on="0"/>
      </contour>
      <contour>
        <pt x="543" y="656" on="1"/>
        <pt x="363" y="666" on="0"/>
        <pt x="234" y="666" on="0"/>
        <pt x="163" y="617" on="0"/>
        <pt x="129" y="488" on="0"/>
        <pt x="129" y="366" on="1"/>
        <pt x="129" y="68" on="0"/>
        <pt x="299" y="68" on="1"/>
        <pt x="543" y="75" on="1"/>
        <pt x="543" y="16" on="1"/>
        <pt x="425" y="-6" on="0"/>
        <pt x="299" y="-6" on="1"/>
        <pt x="55" y="-6" on="0"/>
        <pt x="55" y="368" on="1"/>
        <pt x="55" y="558" on="0"/>
        <pt x="158" y="740" on="0"/>
        <pt x="299" y="740" on="1"/>
        <pt x="408" y="740" on="0"/>
        <pt x="543" y="715" on="1"/>
      </contour>
    </TTGlyph>
    <TTGlyph name="D" xMin="80" yMin="0" xMax="612" yMax="732">
      <contour>
        <pt x="80" y="0" on="1"/>
        <pt x="80" y="732" on="1"/>
        <pt x="352" y="732" on="1"/>
        <pt x="417" y="732" on="0"/>
        <pt x="514" y="683" on="0"/>
        <pt x="568" y="609" on="0"/>
        <pt x="585" y="557" on="1"/>
        <pt x="612" y="474" on="0"/>
        <pt x="612" y="363" on="1"/>
        <pt x="612" y="254" on="0"/>
        <pt x="576" y="164" on="1"/>
        <pt x="534" y="62" on="0"/>
        <pt x="453" y="22" on="1"/>
        <pt x="408" y="0" on="0"/>
        <pt x="352" y="0" on="1"/>
      </contour>
      <contour>
        <pt x="154" y="77" on="1"/>
        <pt x="352" y="77" on="1"/>
        <pt x="415" y="77" on="0"/>
        <pt x="458" y="118" on="1"/>
        <pt x="538" y="193" on="0"/>
        <pt x="538" y="519" on="0"/>
        <pt x="443" y="658" on="0"/>
        <pt x="352" y="658" on="1"/>
        <pt x="154" y="658" on="1"/>
      </contour>
    </TTGlyph>
    <TTGlyph name="Dcaron" xMin="80" yMin="0" xMax="612" yMax="922">
      <contour>
        <pt x="172" y="922" on="1"/>
        <pt x="244" y="922" on="1"/>
        <pt x="324" y="851" on="1"/>
        <pt x="393" y="922" on="1"/>
        <pt x="464" y="922" on="1"/>
        <pt x="360" y="792" on="1"/>
        <pt x="289" y="792" on="1"/>
      </contour>
      <contour>
        <pt x="80" y="0" on="1"/>
        <pt x="80" y="732" on="1"/>
        <pt x="352" y="732" on="1"/>
        <pt x="417" y="732" on="0"/>
        <pt x="514" y="683" on="0"/>
        <pt x="568" y="609" on="0"/>
        <pt x="585" y="557" on="1"/>
        <pt x="612" y="474" on="0"/>
        <pt x="612" y="363" on="1"/>
        <pt x="612" y="254" on="0"/>
        <pt x="576" y="164" on="1"/>
        <pt x="534" y="62" on="0"/>
        <pt x="453" y="22" on="1"/>
        <pt x="408" y="0" on="0"/>
        <pt x="352" y="0" on="1"/>
      </contour>
      <contour>
        <pt x="154" y="77" on="1"/>
        <pt x="352" y="77" on="1"/>
        <pt x="415" y="77" on="0"/>
        <pt x="458" y="118" on="1"/>
        <pt x="538" y="193" on="0"/>
        <pt x="538" y="519" on="0"/>
        <pt x="443" y="658" on="0"/>
        <pt x="352" y="658" on="1"/>
        <pt x="154" y="658" on="1"/>
      </contour>
    </TTGlyph>
    <TTGlyph name="Dcroat" xMin="15" yMin="0" xMax="612" yMax="732">
      <contour>
        <pt x="15" y="346" on="1"/>
        <pt x="15" y="400" on="1"/>
        <pt x="80" y="400" on="1"/>
        <pt x="80" y="731" on="1"/>
        <pt x="80" y="732" on="0"/>
        <pt x="353" y="732" on="1"/>
        <pt x="463" y="732" on="0"/>
        <pt x="520" y="669" on="1"/>
        <pt x="578" y="606" on="0"/>
        <pt x="595" y="525" on="1"/>
        <pt x="612" y="442" on="0"/>
        <pt x="612" y="311" on="0"/>
        <pt x="596" y="212" on="0"/>
        <pt x="557" y="116" on="0"/>
        <pt x="499" y="44" on="0"/>
        <pt x="409" y="0" on="0"/>
        <pt x="353" y="0" on="1"/>
        <pt x="80" y="0" on="1"/>
        <pt x="80" y="346" on="1"/>
      </contour>
      <contour>
        <pt x="154" y="77" on="1"/>
        <pt x="353" y="77" on="1"/>
        <pt x="446" y="77" on="0"/>
        <pt x="535" y="238" on="0"/>
        <pt x="535" y="364" on="1"/>
        <pt x="535" y="653" on="0"/>
        <pt x="353" y="653" on="1"/>
        <pt x="154" y="652" on="1"/>
        <pt x="154" y="400" on="1"/>
        <pt x="293" y="400" on="1"/>
        <pt x="293" y="346" on="1"/>
        <pt x="154" y="346" on="1"/>
      </contour>
    </TTGlyph>
    <TTGlyph name="E" xMin="80" yMin="-4" xMax="522" yMax="733">
      <contour>
        <pt x="80" y="602" on="1"/>
        <pt x="80" y="671" on="0"/>
        <pt x="149" y="732" on="0"/>
        <pt x="200" y="732" on="1"/>
        <pt x="203" y="732" on="0"/>
        <pt x="206" y="732" on="1"/>
        <pt x="522" y="716" on="1"/>
        <pt x="522" y="658" on="1"/>
        <pt x="206" y="658" on="1"/>
        <pt x="182" y="658" on="0"/>
        <pt x="157" y="639" on="0"/>
        <pt x="154" y="620" on="0"/>
        <pt x="154" y="602" on="1"/>
        <pt x="154" y="402" on="1"/>
        <pt x="482" y="392" on="1"/>
        <pt x="482" y="333" on="1"/>
        <pt x="154" y="323" on="1"/>
        <pt x="154" y="123" on="1"/>
        <pt x="154" y="98" on="0"/>
        <pt x="176" y="74" on="0"/>
        <pt x="196" y="71" on="0"/>
        <pt x="216" y="71" on="1"/>
        <pt x="522" y="71" on="1"/>
        <pt x="522" y="14" on="1"/>
        <pt x="216" y="-3" on="1"/>
        <pt x="208" y="-3" on="0"/>
        <pt x="201" y="-3" on="1"/>
        <pt x="80" y="-3" on="0"/>
        <pt x="80" y="123" on="1"/>
      </contour>
    </TTGlyph>
    <TTGlyph name="Eacute" xMin="80" yMin="-4" xMax="522" yMax="925">
      <contour>
        <pt x="287" y="792" on="1"/>
        <pt x="394" y="925" on="1"/>
        <pt x="489" y="925" on="1"/>
        <pt x="356" y="792" on="1"/>
      </contour>
      <contour>
        <pt x="80" y="602" on="1"/>
        <pt x="80" y="671" on="0"/>
        <pt x="149" y="732" on="0"/>
        <pt x="200" y="732" on="1"/>
        <pt x="203" y="732" on="0"/>
        <pt x="206" y="732" on="1"/>
        <pt x="522" y="716" on="1"/>
        <pt x="522" y="658" on="1"/>
        <pt x="206" y="658" on="1"/>
        <pt x="182" y="658" on="0"/>
        <pt x="157" y="639" on="0"/>
        <pt x="154" y="620" on="0"/>
        <pt x="154" y="602" on="1"/>
        <pt x="154" y="402" on="1"/>
        <pt x="482" y="392" on="1"/>
        <pt x="482" y="333" on="1"/>
        <pt x="154" y="323" on="1"/>
        <pt x="154" y="123" on="1"/>
        <pt x="154" y="98" on="0"/>
        <pt x="176" y="74" on="0"/>
        <pt x="196" y="71" on="0"/>
        <pt x="216" y="71" on="1"/>
        <pt x="522" y="71" on="1"/>
        <pt x="522" y="14" on="1"/>
        <pt x="216" y="-3" on="1"/>
        <pt x="208" y="-3" on="0"/>
        <pt x="201" y="-3" on="1"/>
        <pt x="80" y="-3" on="0"/>
        <pt x="80" y="123" on="1"/>
      </contour>
    </TTGlyph>
    <TTGlyph name="Ecaron" xMin="80" yMin="-4" xMax="522" yMax="922">
      <contour>
        <pt x="169" y="922" on="1"/>
        <pt x="241" y="922" on="1"/>
        <pt x="321" y="851" on="1"/>
        <pt x="390" y="922" on="1"/>
        <pt x="461" y="922" on="1"/>
        <pt x="357" y="792" on="1"/>
        <pt x="286" y="792" on="1"/>
      </contour>
      <contour>
        <pt x="80" y="602" on="1"/>
        <pt x="80" y="671" on="0"/>
        <pt x="149" y="732" on="0"/>
        <pt x="200" y="732" on="1"/>
        <pt x="203" y="732" on="0"/>
        <pt x="206" y="732" on="1"/>
        <pt x="522" y="716" on="1"/>
        <pt x="522" y="658" on="1"/>
        <pt x="206" y="658" on="1"/>
        <pt x="182" y="658" on="0"/>
        <pt x="157" y="639" on="0"/>
        <pt x="154" y="620" on="0"/>
        <pt x="154" y="602" on="1"/>
        <pt x="154" y="402" on="1"/>
        <pt x="482" y="392" on="1"/>
        <pt x="482" y="333" on="1"/>
        <pt x="154" y="323" on="1"/>
        <pt x="154" y="123" on="1"/>
        <pt x="154" y="98" on="0"/>
        <pt x="176" y="74" on="0"/>
        <pt x="196" y="71" on="0"/>
        <pt x="216" y="71" on="1"/>
        <pt x="522" y="71" on="1"/>
        <pt x="522" y="14" on="1"/>
        <pt x="216" y="-3" on="1"/>
        <pt x="208" y="-3" on="0"/>
        <pt x="201" y="-3" on="1"/>
        <pt x="80" y="-3" on="0"/>
        <pt x="80" y="123" on="1"/>
      </contour>
    </TTGlyph>
    <TTGlyph name="Ecircumflex" xMin="80" yMin="-4" xMax="522" yMax="927">
      <contour>
        <pt x="170" y="797" on="1"/>
        <pt x="287" y="927" on="1"/>
        <pt x="358" y="927" on="1"/>
        <pt x="462" y="797" on="1"/>
        <pt x="391" y="797" on="1"/>
        <pt x="320" y="868" on="1"/>
        <pt x="242" y="797" on="1"/>
      </contour>
      <contour>
        <pt x="80" y="602" on="1"/>
        <pt x="80" y="671" on="0"/>
        <pt x="149" y="732" on="0"/>
        <pt x="200" y="732" on="1"/>
        <pt x="203" y="732" on="0"/>
        <pt x="206" y="732" on="1"/>
        <pt x="522" y="716" on="1"/>
        <pt x="522" y="658" on="1"/>
        <pt x="206" y="658" on="1"/>
        <pt x="182" y="658" on="0"/>
        <pt x="157" y="639" on="0"/>
        <pt x="154" y="620" on="0"/>
        <pt x="154" y="602" on="1"/>
        <pt x="154" y="402" on="1"/>
        <pt x="482" y="392" on="1"/>
        <pt x="482" y="333" on="1"/>
        <pt x="154" y="323" on="1"/>
        <pt x="154" y="123" on="1"/>
        <pt x="154" y="98" on="0"/>
        <pt x="176" y="74" on="0"/>
        <pt x="196" y="71" on="0"/>
        <pt x="216" y="71" on="1"/>
        <pt x="522" y="71" on="1"/>
        <pt x="522" y="14" on="1"/>
        <pt x="216" y="-3" on="1"/>
        <pt x="208" y="-3" on="0"/>
        <pt x="201" y="-3" on="1"/>
        <pt x="80" y="-3" on="0"/>
        <pt x="80" y="123" on="1"/>
      </contour>
    </TTGlyph>
    <TTGlyph name="Edieresis" xMin="80" yMin="-4" xMax="522" yMax="893">
      <contour>
        <pt x="139" y="822" on="0"/>
        <pt x="139" y="864" on="0"/>
        <pt x="169" y="893" on="0"/>
        <pt x="211" y="893" on="0"/>
        <pt x="240" y="864" on="0"/>
        <pt x="240" y="822" on="0"/>
        <pt x="211" y="792" on="0"/>
        <pt x="169" y="792" on="0"/>
      </contour>
      <contour>
        <pt x="394" y="822" on="0"/>
        <pt x="394" y="864" on="0"/>
        <pt x="424" y="893" on="0"/>
        <pt x="466" y="893" on="0"/>
        <pt x="495" y="864" on="0"/>
        <pt x="495" y="822" on="0"/>
        <pt x="466" y="792" on="0"/>
        <pt x="424" y="792" on="0"/>
      </contour>
      <contour>
        <pt x="80" y="602" on="1"/>
        <pt x="80" y="671" on="0"/>
        <pt x="149" y="732" on="0"/>
        <pt x="200" y="732" on="1"/>
        <pt x="203" y="732" on="0"/>
        <pt x="206" y="732" on="1"/>
        <pt x="522" y="716" on="1"/>
        <pt x="522" y="658" on="1"/>
        <pt x="206" y="658" on="1"/>
        <pt x="182" y="658" on="0"/>
        <pt x="157" y="639" on="0"/>
        <pt x="154" y="620" on="0"/>
        <pt x="154" y="602" on="1"/>
        <pt x="154" y="402" on="1"/>
        <pt x="482" y="392" on="1"/>
        <pt x="482" y="333" on="1"/>
        <pt x="154" y="323" on="1"/>
        <pt x="154" y="123" on="1"/>
        <pt x="154" y="98" on="0"/>
        <pt x="176" y="74" on="0"/>
        <pt x="196" y="71" on="0"/>
        <pt x="216" y="71" on="1"/>
        <pt x="522" y="71" on="1"/>
        <pt x="522" y="14" on="1"/>
        <pt x="216" y="-3" on="1"/>
        <pt x="208" y="-3" on="0"/>
        <pt x="201" y="-3" on="1"/>
        <pt x="80" y="-3" on="0"/>
        <pt x="80" y="123" on="1"/>
      </contour>
    </TTGlyph>
    <TTGlyph name="Edotaccent" xMin="80" yMin="-4" xMax="522" yMax="896">
      <contour>
        <pt x="272" y="817" on="1"/>
        <pt x="272" y="871" on="1"/>
        <pt x="272" y="896" on="0"/>
        <pt x="296" y="896" on="1"/>
        <pt x="346" y="896" on="1"/>
        <pt x="369" y="896" on="0"/>
        <pt x="369" y="871" on="1"/>
        <pt x="369" y="817" on="1"/>
        <pt x="369" y="794" on="0"/>
        <pt x="346" y="794" on="1"/>
        <pt x="296" y="794" on="1"/>
        <pt x="272" y="794" on="0"/>
      </contour>
      <contour>
        <pt x="80" y="602" on="1"/>
        <pt x="80" y="671" on="0"/>
        <pt x="149" y="732" on="0"/>
        <pt x="200" y="732" on="1"/>
        <pt x="203" y="732" on="0"/>
        <pt x="206" y="732" on="1"/>
        <pt x="522" y="716" on="1"/>
        <pt x="522" y="658" on="1"/>
        <pt x="206" y="658" on="1"/>
        <pt x="182" y="658" on="0"/>
        <pt x="157" y="639" on="0"/>
        <pt x="154" y="620" on="0"/>
        <pt x="154" y="602" on="1"/>
        <pt x="154" y="402" on="1"/>
        <pt x="482" y="392" on="1"/>
        <pt x="482" y="333" on="1"/>
        <pt x="154" y="323" on="1"/>
        <pt x="154" y="123" on="1"/>
        <pt x="154" y="98" on="0"/>
        <pt x="176" y="74" on="0"/>
        <pt x="196" y="71" on="0"/>
        <pt x="216" y="71" on="1"/>
        <pt x="522" y="71" on="1"/>
        <pt x="522" y="14" on="1"/>
        <pt x="216" y="-3" on="1"/>
        <pt x="208" y="-3" on="0"/>
        <pt x="201" y="-3" on="1"/>
        <pt x="80" y="-3" on="0"/>
        <pt x="80" y="123" on="1"/>
      </contour>
    </TTGlyph>
    <TTGlyph name="Egrave" xMin="80" yMin="-4" xMax="522" yMax="925">
      <contour>
        <pt x="176" y="925" on="1"/>
        <pt x="271" y="925" on="1"/>
        <pt x="378" y="792" on="1"/>
        <pt x="309" y="792" on="1"/>
      </contour>
      <contour>
        <pt x="80" y="602" on="1"/>
        <pt x="80" y="671" on="0"/>
        <pt x="149" y="732" on="0"/>
        <pt x="200" y="732" on="1"/>
        <pt x="203" y="732" on="0"/>
        <pt x="206" y="732" on="1"/>
        <pt x="522" y="716" on="1"/>
        <pt x="522" y="658" on="1"/>
        <pt x="206" y="658" on="1"/>
        <pt x="182" y="658" on="0"/>
        <pt x="157" y="639" on="0"/>
        <pt x="154" y="620" on="0"/>
        <pt x="154" y="602" on="1"/>
        <pt x="154" y="402" on="1"/>
        <pt x="482" y="392" on="1"/>
        <pt x="482" y="333" on="1"/>
        <pt x="154" y="323" on="1"/>
        <pt x="154" y="123" on="1"/>
        <pt x="154" y="98" on="0"/>
        <pt x="176" y="74" on="0"/>
        <pt x="196" y="71" on="0"/>
        <pt x="216" y="71" on="1"/>
        <pt x="522" y="71" on="1"/>
        <pt x="522" y="14" on="1"/>
        <pt x="216" y="-3" on="1"/>
        <pt x="208" y="-3" on="0"/>
        <pt x="201" y="-3" on="1"/>
        <pt x="80" y="-3" on="0"/>
        <pt x="80" y="123" on="1"/>
      </contour>
    </TTGlyph>
    <TTGlyph name="Emacron" xMin="80" yMin="-4" xMax="522" yMax="858">
      <contour>
        <pt x="173" y="795" on="1"/>
        <pt x="173" y="858" on="1"/>
        <pt x="465" y="858" on="1"/>
        <pt x="465" y="795" on="1"/>
      </contour>
      <contour>
        <pt x="80" y="602" on="1"/>
        <pt x="80" y="671" on="0"/>
        <pt x="149" y="732" on="0"/>
        <pt x="200" y="732" on="1"/>
        <pt x="203" y="732" on="0"/>
        <pt x="206" y="732" on="1"/>
        <pt x="522" y="716" on="1"/>
        <pt x="522" y="658" on="1"/>
        <pt x="206" y="658" on="1"/>
        <pt x="182" y="658" on="0"/>
        <pt x="157" y="639" on="0"/>
        <pt x="154" y="620" on="0"/>
        <pt x="154" y="602" on="1"/>
        <pt x="154" y="402" on="1"/>
        <pt x="482" y="392" on="1"/>
        <pt x="482" y="333" on="1"/>
        <pt x="154" y="323" on="1"/>
        <pt x="154" y="123" on="1"/>
        <pt x="154" y="98" on="0"/>
        <pt x="176" y="74" on="0"/>
        <pt x="196" y="71" on="0"/>
        <pt x="216" y="71" on="1"/>
        <pt x="522" y="71" on="1"/>
        <pt x="522" y="14" on="1"/>
        <pt x="216" y="-3" on="1"/>
        <pt x="208" y="-3" on="0"/>
        <pt x="201" y="-3" on="1"/>
        <pt x="80" y="-3" on="0"/>
        <pt x="80" y="123" on="1"/>
      </contour>
    </TTGlyph>
    <TTGlyph name="Eng" xMin="80" yMin="-257" xMax="618" yMax="732">
      <contour>
        <pt x="80" y="0" on="1"/>
        <pt x="80" y="732" on="1"/>
        <pt x="156" y="732" on="1"/>
        <pt x="544" y="148" on="1"/>
        <pt x="544" y="732" on="1"/>
        <pt x="618" y="732" on="1"/>
        <pt x="618" y="-84" on="1"/>
        <pt x="618" y="-194" on="0"/>
        <pt x="554" y="-228" on="1"/>
        <pt x="522" y="-245" on="0"/>
        <pt x="454" y="-257" on="0"/>
        <pt x="404" y="-257" on="1"/>
        <pt x="404" y="-200" on="1"/>
        <pt x="413" y="-197" on="0"/>
        <pt x="455" y="-189" on="0"/>
        <pt x="478" y="-183" on="0"/>
        <pt x="512" y="-165" on="0"/>
        <pt x="521" y="-154" on="1"/>
        <pt x="544" y="-124" on="0"/>
        <pt x="544" y="-70" on="1"/>
        <pt x="544" y="0" on="1"/>
        <pt x="156" y="594" on="1"/>
        <pt x="154" y="0" on="1"/>
      </contour>
    </TTGlyph>
    <TTGlyph name="Eogonek" xMin="80" yMin="-169" xMax="525" yMax="733">
      <contour>
        <pt x="463" y="-69" on="1"/>
        <pt x="463" y="-106" on="0"/>
        <pt x="525" y="-107" on="1"/>
        <pt x="525" y="-167" on="1"/>
        <pt x="515" y="-169" on="0"/>
        <pt x="483" y="-169" on="0"/>
        <pt x="432" y="-150" on="0"/>
        <pt x="417" y="-129" on="1"/>
        <pt x="399" y="-103" on="0"/>
        <pt x="399" y="-55" on="0"/>
        <pt x="440" y="-5" on="0"/>
        <pt x="483" y="14" on="1"/>
        <pt x="522" y="14" on="1"/>
        <pt x="463" y="-36" on="0"/>
      </contour>
      <contour>
        <pt x="80" y="602" on="1"/>
        <pt x="80" y="671" on="0"/>
        <pt x="149" y="732" on="0"/>
        <pt x="200" y="732" on="1"/>
        <pt x="203" y="732" on="0"/>
        <pt x="206" y="732" on="1"/>
        <pt x="522" y="716" on="1"/>
        <pt x="522" y="658" on="1"/>
        <pt x="206" y="658" on="1"/>
        <pt x="182" y="658" on="0"/>
        <pt x="157" y="639" on="0"/>
        <pt x="154" y="620" on="0"/>
        <pt x="154" y="602" on="1"/>
        <pt x="154" y="402" on="1"/>
        <pt x="482" y="392" on="1"/>
        <pt x="482" y="333" on="1"/>
        <pt x="154" y="323" on="1"/>
        <pt x="154" y="123" on="1"/>
        <pt x="154" y="98" on="0"/>
        <pt x="176" y="74" on="0"/>
        <pt x="196" y="71" on="0"/>
        <pt x="216" y="71" on="1"/>
        <pt x="522" y="71" on="1"/>
        <pt x="522" y="14" on="1"/>
        <pt x="216" y="-3" on="1"/>
        <pt x="208" y="-3" on="0"/>
        <pt x="201" y="-3" on="1"/>
        <pt x="80" y="-3" on="0"/>
        <pt x="80" y="123" on="1"/>
      </contour>
    </TTGlyph>
    <TTGlyph name="Eth" xMin="15" yMin="0" xMax="612" yMax="732">
      <contour>
        <pt x="15" y="346" on="1"/>
        <pt x="15" y="400" on="1"/>
        <pt x="80" y="400" on="1"/>
        <pt x="80" y="731" on="1"/>
        <pt x="80" y="732" on="0"/>
        <pt x="353" y="732" on="1"/>
        <pt x="463" y="732" on="0"/>
        <pt x="520" y="669" on="1"/>
        <pt x="578" y="606" on="0"/>
        <pt x="595" y="525" on="1"/>
        <pt x="612" y="442" on="0"/>
        <pt x="612" y="311" on="0"/>
        <pt x="596" y="212" on="0"/>
        <pt x="557" y="116" on="0"/>
        <pt x="499" y="44" on="0"/>
        <pt x="409" y="0" on="0"/>
        <pt x="353" y="0" on="1"/>
        <pt x="80" y="0" on="1"/>
        <pt x="80" y="346" on="1"/>
      </contour>
      <contour>
        <pt x="154" y="77" on="1"/>
        <pt x="353" y="77" on="1"/>
        <pt x="446" y="77" on="0"/>
        <pt x="535" y="238" on="0"/>
        <pt x="535" y="364" on="1"/>
        <pt x="535" y="653" on="0"/>
        <pt x="353" y="653" on="1"/>
        <pt x="154" y="652" on="1"/>
        <pt x="154" y="400" on="1"/>
        <pt x="293" y="400" on="1"/>
        <pt x="293" y="346" on="1"/>
        <pt x="154" y="346" on="1"/>
      </contour>
    </TTGlyph>
    <TTGlyph name="Euro" xMin="20" yMin="-6" xMax="591" yMax="740">
      <contour>
        <pt x="217" y="718" on="0"/>
        <pt x="293" y="740" on="0"/>
        <pt x="425" y="740" on="0"/>
        <pt x="587" y="710" on="1"/>
        <pt x="587" y="651" on="1"/>
        <pt x="424" y="666" on="0"/>
        <pt x="288" y="666" on="0"/>
        <pt x="221" y="640" on="0"/>
        <pt x="191" y="581" on="0"/>
        <pt x="182" y="521" on="0"/>
        <pt x="182" y="470" on="1"/>
        <pt x="416" y="463" on="1"/>
        <pt x="416" y="417" on="1"/>
        <pt x="182" y="410" on="1"/>
        <pt x="182" y="309" on="1"/>
        <pt x="416" y="302" on="1"/>
        <pt x="416" y="255" on="1"/>
        <pt x="385" y="255" on="0"/>
        <pt x="181" y="249" on="0"/>
        <pt x="182" y="248" on="1"/>
        <pt x="182" y="68" on="0"/>
        <pt x="342" y="68" on="1"/>
        <pt x="438" y="68" on="0"/>
        <pt x="550" y="80" on="1"/>
        <pt x="591" y="85" on="1"/>
        <pt x="591" y="29" on="1"/>
        <pt x="468" y="-6" on="0"/>
        <pt x="342" y="-6" on="1"/>
        <pt x="280" y="-6" on="0"/>
        <pt x="193" y="35" on="0"/>
        <pt x="143" y="87" on="0"/>
        <pt x="108" y="184" on="0"/>
        <pt x="108" y="248" on="1"/>
        <pt x="20" y="255" on="1"/>
        <pt x="20" y="302" on="1"/>
        <pt x="108" y="309" on="1"/>
        <pt x="108" y="410" on="1"/>
        <pt x="20" y="418" on="1"/>
        <pt x="20" y="461" on="1"/>
        <pt x="108" y="470" on="1"/>
        <pt x="108" y="473" on="0"/>
        <pt x="108" y="503" on="0"/>
        <pt x="109" y="533" on="0"/>
        <pt x="118" y="594" on="0"/>
        <pt x="134" y="635" on="0"/>
        <pt x="168" y="687" on="0"/>
      </contour>
    </TTGlyph>
    <TTGlyph name="Euro.smcp" xMin="16" yMin="-5" xMax="481" yMax="577">
      <contour>
        <pt x="277" y="577" on="1"/>
        <pt x="352" y="577" on="0"/>
        <pt x="478" y="554" on="1"/>
        <pt x="478" y="492" on="1"/>
        <pt x="341" y="503" on="0"/>
        <pt x="244" y="503" on="0"/>
        <pt x="197" y="485" on="0"/>
        <pt x="173" y="462" on="0"/>
        <pt x="167" y="440" on="1"/>
        <pt x="159" y="412" on="0"/>
        <pt x="159" y="367" on="1"/>
        <pt x="344" y="361" on="1"/>
        <pt x="344" y="315" on="1"/>
        <pt x="159" y="310" on="1"/>
        <pt x="159" y="251" on="1"/>
        <pt x="344" y="246" on="1"/>
        <pt x="344" y="199" on="1"/>
        <pt x="332" y="199" on="0"/>
        <pt x="294" y="198" on="0"/>
        <pt x="253" y="197" on="1"/>
        <pt x="157" y="195" on="0"/>
        <pt x="159" y="193" on="1"/>
        <pt x="159" y="72" on="0"/>
        <pt x="277" y="72" on="1"/>
        <pt x="358" y="72" on="0"/>
        <pt x="448" y="82" on="1"/>
        <pt x="481" y="85" on="1"/>
        <pt x="481" y="23" on="1"/>
        <pt x="383" y="-5" on="0"/>
        <pt x="277" y="-5" on="1"/>
        <pt x="233" y="-5" on="0"/>
        <pt x="159" y="27" on="0"/>
        <pt x="115" y="67" on="0"/>
        <pt x="84" y="143" on="0"/>
        <pt x="84" y="193" on="1"/>
        <pt x="16" y="199" on="1"/>
        <pt x="16" y="246" on="1"/>
        <pt x="84" y="251" on="1"/>
        <pt x="84" y="310" on="1"/>
        <pt x="16" y="316" on="1"/>
        <pt x="16" y="360" on="1"/>
        <pt x="84" y="367" on="1"/>
        <pt x="84" y="577" on="0"/>
      </contour>
    </TTGlyph>
    <TTGlyph name="F" xMin="80" yMin="0" xMax="522" yMax="733">
      <contour>
        <pt x="80" y="0" on="1"/>
        <pt x="80" y="602" on="1"/>
        <pt x="80" y="671" on="0"/>
        <pt x="149" y="732" on="0"/>
        <pt x="200" y="732" on="1"/>
        <pt x="203" y="732" on="0"/>
        <pt x="206" y="732" on="1"/>
        <pt x="522" y="716" on="1"/>
        <pt x="522" y="658" on="1"/>
        <pt x="206" y="658" on="1"/>
        <pt x="182" y="658" on="0"/>
        <pt x="157" y="639" on="0"/>
        <pt x="154" y="620" on="0"/>
        <pt x="154" y="602" on="1"/>
        <pt x="154" y="402" on="1"/>
        <pt x="482" y="392" on="1"/>
        <pt x="482" y="333" on="1"/>
        <pt x="154" y="323" on="1"/>
        <pt x="154" y="0" on="1"/>
      </contour>
    </TTGlyph>
    <TTGlyph name="G" xMin="55" yMin="-6" xMax="559" yMax="740">
      <contour>
        <pt x="64" y="197" on="0"/>
        <pt x="55" y="300" on="0"/>
        <pt x="55" y="453" on="0"/>
        <pt x="73" y="574" on="0"/>
        <pt x="97" y="628" on="1"/>
        <pt x="146" y="740" on="0"/>
        <pt x="289" y="740" on="1"/>
        <pt x="328" y="740" on="0"/>
        <pt x="491" y="723" on="0"/>
        <pt x="543" y="713" on="1"/>
        <pt x="543" y="654" on="1"/>
        <pt x="534" y="654" on="0"/>
        <pt x="452" y="660" on="0"/>
        <pt x="420" y="662" on="1"/>
        <pt x="356" y="666" on="0"/>
        <pt x="289" y="666" on="1"/>
        <pt x="194" y="666" on="0"/>
        <pt x="129" y="529" on="0"/>
        <pt x="129" y="201" on="0"/>
        <pt x="201" y="69" on="0"/>
        <pt x="293" y="68" on="1"/>
        <pt x="327" y="68" on="0"/>
        <pt x="423" y="91" on="0"/>
        <pt x="454" y="102" on="1"/>
        <pt x="485" y="114" on="1"/>
        <pt x="485" y="314" on="1"/>
        <pt x="317" y="314" on="1"/>
        <pt x="317" y="364" on="1"/>
        <pt x="408" y="389" on="0"/>
        <pt x="491" y="389" on="1"/>
        <pt x="523" y="389" on="0"/>
        <pt x="559" y="386" on="1"/>
        <pt x="559" y="0" on="1"/>
        <pt x="503" y="0" on="1"/>
        <pt x="487" y="49" on="1"/>
        <pt x="389" y="-5" on="0"/>
        <pt x="293" y="-5" on="1"/>
        <pt x="290" y="-5" on="0"/>
        <pt x="287" y="-5" on="1"/>
        <pt x="231" y="-5" on="0"/>
        <pt x="145" y="33" on="0"/>
        <pt x="94" y="96" on="0"/>
      </contour>
    </TTGlyph>
    <TTGlyph name="Gbreve" xMin="55" yMin="-6" xMax="559" yMax="914">
      <contour>
        <pt x="221" y="914" on="1"/>
        <pt x="268" y="914" on="1"/>
        <pt x="268" y="886" on="0"/>
        <pt x="309" y="847" on="0"/>
        <pt x="364" y="847" on="0"/>
        <pt x="404" y="883" on="0"/>
        <pt x="404" y="914" on="1"/>
        <pt x="451" y="914" on="1"/>
        <pt x="451" y="861" on="0"/>
        <pt x="380" y="800" on="0"/>
        <pt x="291" y="800" on="0"/>
        <pt x="221" y="863" on="0"/>
      </contour>
      <contour>
        <pt x="64" y="197" on="0"/>
        <pt x="55" y="300" on="0"/>
        <pt x="55" y="453" on="0"/>
        <pt x="73" y="574" on="0"/>
        <pt x="97" y="628" on="1"/>
        <pt x="146" y="740" on="0"/>
        <pt x="289" y="740" on="1"/>
        <pt x="328" y="740" on="0"/>
        <pt x="491" y="723" on="0"/>
        <pt x="543" y="713" on="1"/>
        <pt x="543" y="654" on="1"/>
        <pt x="534" y="654" on="0"/>
        <pt x="452" y="660" on="0"/>
        <pt x="420" y="662" on="1"/>
        <pt x="356" y="666" on="0"/>
        <pt x="289" y="666" on="1"/>
        <pt x="194" y="666" on="0"/>
        <pt x="129" y="529" on="0"/>
        <pt x="129" y="201" on="0"/>
        <pt x="201" y="69" on="0"/>
        <pt x="293" y="68" on="1"/>
        <pt x="327" y="68" on="0"/>
        <pt x="423" y="91" on="0"/>
        <pt x="454" y="102" on="1"/>
        <pt x="485" y="114" on="1"/>
        <pt x="485" y="314" on="1"/>
        <pt x="317" y="314" on="1"/>
        <pt x="317" y="364" on="1"/>
        <pt x="408" y="389" on="0"/>
        <pt x="491" y="389" on="1"/>
        <pt x="523" y="389" on="0"/>
        <pt x="559" y="386" on="1"/>
        <pt x="559" y="0" on="1"/>
        <pt x="503" y="0" on="1"/>
        <pt x="487" y="49" on="1"/>
        <pt x="389" y="-5" on="0"/>
        <pt x="293" y="-5" on="1"/>
        <pt x="290" y="-5" on="0"/>
        <pt x="287" y="-5" on="1"/>
        <pt x="231" y="-5" on="0"/>
        <pt x="145" y="33" on="0"/>
        <pt x="94" y="96" on="0"/>
      </contour>
    </TTGlyph>
    <TTGlyph name="Gcircumflex" xMin="55" yMin="-6" xMax="559" yMax="930">
      <contour>
        <pt x="190" y="800" on="1"/>
        <pt x="307" y="930" on="1"/>
        <pt x="378" y="930" on="1"/>
        <pt x="482" y="800" on="1"/>
        <pt x="411" y="800" on="1"/>
        <pt x="340" y="871" on="1"/>
        <pt x="262" y="800" on="1"/>
      </contour>
      <contour>
        <pt x="64" y="197" on="0"/>
        <pt x="55" y="300" on="0"/>
        <pt x="55" y="453" on="0"/>
        <pt x="73" y="574" on="0"/>
        <pt x="97" y="628" on="1"/>
        <pt x="146" y="740" on="0"/>
        <pt x="289" y="740" on="1"/>
        <pt x="328" y="740" on="0"/>
        <pt x="491" y="723" on="0"/>
        <pt x="543" y="713" on="1"/>
        <pt x="543" y="654" on="1"/>
        <pt x="534" y="654" on="0"/>
        <pt x="452" y="660" on="0"/>
        <pt x="420" y="662" on="1"/>
        <pt x="356" y="666" on="0"/>
        <pt x="289" y="666" on="1"/>
        <pt x="194" y="666" on="0"/>
        <pt x="129" y="529" on="0"/>
        <pt x="129" y="201" on="0"/>
        <pt x="201" y="69" on="0"/>
        <pt x="293" y="68" on="1"/>
        <pt x="327" y="68" on="0"/>
        <pt x="423" y="91" on="0"/>
        <pt x="454" y="102" on="1"/>
        <pt x="485" y="114" on="1"/>
        <pt x="485" y="314" on="1"/>
        <pt x="317" y="314" on="1"/>
        <pt x="317" y="364" on="1"/>
        <pt x="408" y="389" on="0"/>
        <pt x="491" y="389" on="1"/>
        <pt x="523" y="389" on="0"/>
        <pt x="559" y="386" on="1"/>
        <pt x="559" y="0" on="1"/>
        <pt x="503" y="0" on="1"/>
        <pt x="487" y="49" on="1"/>
        <pt x="389" y="-5" on="0"/>
        <pt x="293" y="-5" on="1"/>
        <pt x="290" y="-5" on="0"/>
        <pt x="287" y="-5" on="1"/>
        <pt x="231" y="-5" on="0"/>
        <pt x="145" y="33" on="0"/>
        <pt x="94" y="96" on="0"/>
      </contour>
    </TTGlyph>
    <TTGlyph name="Gcommaaccent" xMin="55" yMin="-251" xMax="559" yMax="740">
      <contour>
        <pt x="349" y="-236" on="0"/>
        <pt x="324" y="-247" on="0"/>
        <pt x="303" y="-251" on="0"/>
        <pt x="293" y="-251" on="0"/>
        <pt x="281" y="-249" on="1"/>
        <pt x="281" y="-220" on="1"/>
        <pt x="282" y="-220" on="0"/>
        <pt x="283" y="-220" on="1"/>
        <pt x="309" y="-220" on="0"/>
        <pt x="309" y="-192" on="1"/>
        <pt x="309" y="-170" on="1"/>
        <pt x="299" y="-170" on="1"/>
        <pt x="276" y="-170" on="0"/>
        <pt x="276" y="-148" on="1"/>
        <pt x="276" y="-99" on="1"/>
        <pt x="276" y="-75" on="0"/>
        <pt x="299" y="-75" on="1"/>
        <pt x="345" y="-75" on="1"/>
        <pt x="366" y="-75" on="0"/>
        <pt x="366" y="-99" on="1"/>
        <pt x="366" y="-180" on="1"/>
        <pt x="366" y="-204" on="0"/>
      </contour>
      <contour>
        <pt x="64" y="197" on="0"/>
        <pt x="55" y="300" on="0"/>
        <pt x="55" y="453" on="0"/>
        <pt x="73" y="574" on="0"/>
        <pt x="97" y="628" on="1"/>
        <pt x="146" y="740" on="0"/>
        <pt x="289" y="740" on="1"/>
        <pt x="328" y="740" on="0"/>
        <pt x="491" y="723" on="0"/>
        <pt x="543" y="713" on="1"/>
        <pt x="543" y="654" on="1"/>
        <pt x="534" y="654" on="0"/>
        <pt x="452" y="660" on="0"/>
        <pt x="420" y="662" on="1"/>
        <pt x="356" y="666" on="0"/>
        <pt x="289" y="666" on="1"/>
        <pt x="194" y="666" on="0"/>
        <pt x="129" y="529" on="0"/>
        <pt x="129" y="201" on="0"/>
        <pt x="201" y="69" on="0"/>
        <pt x="293" y="68" on="1"/>
        <pt x="327" y="68" on="0"/>
        <pt x="423" y="91" on="0"/>
        <pt x="454" y="102" on="1"/>
        <pt x="485" y="114" on="1"/>
        <pt x="485" y="314" on="1"/>
        <pt x="317" y="314" on="1"/>
        <pt x="317" y="364" on="1"/>
        <pt x="408" y="389" on="0"/>
        <pt x="491" y="389" on="1"/>
        <pt x="523" y="389" on="0"/>
        <pt x="559" y="386" on="1"/>
        <pt x="559" y="0" on="1"/>
        <pt x="503" y="0" on="1"/>
        <pt x="487" y="49" on="1"/>
        <pt x="389" y="-5" on="0"/>
        <pt x="293" y="-5" on="1"/>
        <pt x="290" y="-5" on="0"/>
        <pt x="287" y="-5" on="1"/>
        <pt x="231" y="-5" on="0"/>
        <pt x="145" y="33" on="0"/>
        <pt x="94" y="96" on="0"/>
      </contour>
    </TTGlyph>
    <TTGlyph name="Gdotaccent" xMin="55" yMin="-6" xMax="559" yMax="902">
      <contour>
        <pt x="279" y="823" on="1"/>
        <pt x="279" y="877" on="1"/>
        <pt x="279" y="902" on="0"/>
        <pt x="303" y="902" on="1"/>
        <pt x="353" y="902" on="1"/>
        <pt x="376" y="902" on="0"/>
        <pt x="376" y="877" on="1"/>
        <pt x="376" y="823" on="1"/>
        <pt x="376" y="800" on="0"/>
        <pt x="353" y="800" on="1"/>
        <pt x="303" y="800" on="1"/>
        <pt x="279" y="800" on="0"/>
      </contour>
      <contour>
        <pt x="64" y="197" on="0"/>
        <pt x="55" y="300" on="0"/>
        <pt x="55" y="453" on="0"/>
        <pt x="73" y="574" on="0"/>
        <pt x="97" y="628" on="1"/>
        <pt x="146" y="740" on="0"/>
        <pt x="289" y="740" on="1"/>
        <pt x="328" y="740" on="0"/>
        <pt x="491" y="723" on="0"/>
        <pt x="543" y="713" on="1"/>
        <pt x="543" y="654" on="1"/>
        <pt x="534" y="654" on="0"/>
        <pt x="452" y="660" on="0"/>
        <pt x="420" y="662" on="1"/>
        <pt x="356" y="666" on="0"/>
        <pt x="289" y="666" on="1"/>
        <pt x="194" y="666" on="0"/>
        <pt x="129" y="529" on="0"/>
        <pt x="129" y="201" on="0"/>
        <pt x="201" y="69" on="0"/>
        <pt x="293" y="68" on="1"/>
        <pt x="327" y="68" on="0"/>
        <pt x="423" y="91" on="0"/>
        <pt x="454" y="102" on="1"/>
        <pt x="485" y="114" on="1"/>
        <pt x="485" y="314" on="1"/>
        <pt x="317" y="314" on="1"/>
        <pt x="317" y="364" on="1"/>
        <pt x="408" y="389" on="0"/>
        <pt x="491" y="389" on="1"/>
        <pt x="523" y="389" on="0"/>
        <pt x="559" y="386" on="1"/>
        <pt x="559" y="0" on="1"/>
        <pt x="503" y="0" on="1"/>
        <pt x="487" y="49" on="1"/>
        <pt x="389" y="-5" on="0"/>
        <pt x="293" y="-5" on="1"/>
        <pt x="290" y="-5" on="0"/>
        <pt x="287" y="-5" on="1"/>
        <pt x="231" y="-5" on="0"/>
        <pt x="145" y="33" on="0"/>
        <pt x="94" y="96" on="0"/>
      </contour>
    </TTGlyph>
    <TTGlyph name="H" xMin="80" yMin="0" xMax="578" yMax="732">
      <contour>
        <pt x="80" y="0" on="1"/>
        <pt x="80" y="732" on="1"/>
        <pt x="154" y="732" on="1"/>
        <pt x="154" y="391" on="1"/>
        <pt x="504" y="391" on="1"/>
        <pt x="504" y="732" on="1"/>
        <pt x="578" y="732" on="1"/>
        <pt x="578" y="0" on="1"/>
        <pt x="504" y="0" on="1"/>
        <pt x="504" y="317" on="1"/>
        <pt x="154" y="317" on="1"/>
        <pt x="154" y="0" on="1"/>
      </contour>
    </TTGlyph>
    <TTGlyph name="Hbar" xMin="19" yMin="0" xMax="637" yMax="732">
      <contour>
        <pt x="19" y="516" on="1"/>
        <pt x="19" y="570" on="1"/>
        <pt x="80" y="570" on="1"/>
        <pt x="80" y="732" on="1"/>
        <pt x="154" y="732" on="1"/>
        <pt x="154" y="570" on="1"/>
        <pt x="504" y="570" on="1"/>
        <pt x="504" y="732" on="1"/>
        <pt x="578" y="732" on="1"/>
        <pt x="578" y="570" on="1"/>
        <pt x="637" y="570" on="1"/>
        <pt x="637" y="516" on="1"/>
        <pt x="578" y="516" on="1"/>
        <pt x="578" y="0" on="1"/>
        <pt x="504" y="0" on="1"/>
        <pt x="504" y="317" on="1"/>
        <pt x="154" y="317" on="1"/>
        <pt x="154" y="0" on="1"/>
        <pt x="80" y="0" on="1"/>
        <pt x="80" y="516" on="1"/>
      </contour>
      <contour>
        <pt x="154" y="391" on="1"/>
        <pt x="504" y="391" on="1"/>
        <pt x="504" y="516" on="1"/>
        <pt x="154" y="516" on="1"/>
      </contour>
    </TTGlyph>
    <TTGlyph name="Hcircumflex" xMin="80" yMin="0" xMax="578" yMax="927">
      <contour>
        <pt x="183" y="797" on="1"/>
        <pt x="300" y="927" on="1"/>
        <pt x="371" y="927" on="1"/>
        <pt x="475" y="797" on="1"/>
        <pt x="404" y="797" on="1"/>
        <pt x="333" y="868" on="1"/>
        <pt x="255" y="797" on="1"/>
      </contour>
      <contour>
        <pt x="80" y="0" on="1"/>
        <pt x="80" y="732" on="1"/>
        <pt x="154" y="732" on="1"/>
        <pt x="154" y="391" on="1"/>
        <pt x="504" y="391" on="1"/>
        <pt x="504" y="732" on="1"/>
        <pt x="578" y="732" on="1"/>
        <pt x="578" y="0" on="1"/>
        <pt x="504" y="0" on="1"/>
        <pt x="504" y="317" on="1"/>
        <pt x="154" y="317" on="1"/>
        <pt x="154" y="0" on="1"/>
      </contour>
    </TTGlyph>
    <TTGlyph name="I" xMin="80" yMin="0" xMax="154" yMax="732">
      <contour>
        <pt x="80" y="0" on="1"/>
        <pt x="80" y="732" on="1"/>
        <pt x="154" y="732" on="1"/>
        <pt x="154" y="0" on="1"/>
      </contour>
    </TTGlyph>
    <TTGlyph name="Iacute" xMin="80" yMin="0" xMax="285" yMax="930">
      <contour>
        <pt x="82" y="797" on="1"/>
        <pt x="190" y="930" on="1"/>
        <pt x="284" y="930" on="1"/>
        <pt x="152" y="797" on="1"/>
      </contour>
      <contour>
        <pt x="80" y="0" on="1"/>
        <pt x="80" y="732" on="1"/>
        <pt x="154" y="732" on="1"/>
        <pt x="154" y="0" on="1"/>
      </contour>
    </TTGlyph>
    <TTGlyph name="Icircumflex" xMin="-29" yMin="0" xMax="263" yMax="927">
      <contour>
        <pt x="-29" y="797" on="1"/>
        <pt x="88" y="927" on="1"/>
        <pt x="159" y="927" on="1"/>
        <pt x="263" y="797" on="1"/>
        <pt x="192" y="797" on="1"/>
        <pt x="121" y="868" on="1"/>
        <pt x="43" y="797" on="1"/>
      </contour>
      <contour>
        <pt x="80" y="0" on="1"/>
        <pt x="80" y="732" on="1"/>
        <pt x="154" y="732" on="1"/>
        <pt x="154" y="0" on="1"/>
      </contour>
    </TTGlyph>
    <TTGlyph name="Idieresis" xMin="-61" yMin="0" xMax="295" yMax="898">
      <contour>
        <pt x="-61" y="827" on="0"/>
        <pt x="-61" y="869" on="0"/>
        <pt x="-31" y="898" on="0"/>
        <pt x="11" y="898" on="0"/>
        <pt x="40" y="869" on="0"/>
        <pt x="40" y="827" on="0"/>
        <pt x="11" y="797" on="0"/>
        <pt x="-31" y="797" on="0"/>
      </contour>
      <contour>
        <pt x="194" y="827" on="0"/>
        <pt x="194" y="869" on="0"/>
        <pt x="224" y="898" on="0"/>
        <pt x="266" y="898" on="0"/>
        <pt x="295" y="869" on="0"/>
        <pt x="295" y="827" on="0"/>
        <pt x="266" y="797" on="0"/>
        <pt x="224" y="797" on="0"/>
      </contour>
      <contour>
        <pt x="80" y="0" on="1"/>
        <pt x="80" y="732" on="1"/>
        <pt x="154" y="732" on="1"/>
        <pt x="154" y="0" on="1"/>
      </contour>
    </TTGlyph>
    <TTGlyph name="Idotaccent" xMin="68" yMin="0" xMax="166" yMax="899">
      <contour>
        <pt x="68" y="820" on="1"/>
        <pt x="68" y="874" on="1"/>
        <pt x="68" y="899" on="0"/>
        <pt x="92" y="899" on="1"/>
        <pt x="142" y="899" on="1"/>
        <pt x="153" y="899" on="0"/>
        <pt x="166" y="885" on="0"/>
        <pt x="166" y="874" on="1"/>
        <pt x="166" y="820" on="1"/>
        <pt x="166" y="797" on="0"/>
        <pt x="142" y="797" on="1"/>
        <pt x="92" y="797" on="1"/>
        <pt x="82" y="797" on="0"/>
        <pt x="68" y="810" on="0"/>
      </contour>
      <contour>
        <pt x="80" y="0" on="1"/>
        <pt x="80" y="732" on="1"/>
        <pt x="154" y="732" on="1"/>
        <pt x="154" y="0" on="1"/>
      </contour>
    </TTGlyph>
    <TTGlyph name="Idotaccent.smcp" xMin="51" yMin="0" xMax="148" yMax="741">
      <contour>
        <pt x="60" y="0" on="1"/>
        <pt x="60" y="570" on="1"/>
        <pt x="134" y="570" on="1"/>
        <pt x="134" y="0" on="1"/>
      </contour>
      <contour>
        <pt x="51" y="662" on="1"/>
        <pt x="51" y="716" on="1"/>
        <pt x="51" y="741" on="0"/>
        <pt x="75" y="741" on="1"/>
        <pt x="125" y="741" on="1"/>
        <pt x="148" y="741" on="0"/>
        <pt x="148" y="716" on="1"/>
        <pt x="148" y="662" on="1"/>
        <pt x="148" y="639" on="0"/>
        <pt x="125" y="639" on="1"/>
        <pt x="75" y="639" on="1"/>
        <pt x="51" y="639" on="0"/>
      </contour>
    </TTGlyph>
    <TTGlyph name="Igrave" xMin="-51" yMin="0" xMax="154" yMax="930">
      <contour>
        <pt x="-50" y="930" on="1"/>
        <pt x="44" y="930" on="1"/>
        <pt x="152" y="797" on="1"/>
        <pt x="82" y="797" on="1"/>
      </contour>
      <contour>
        <pt x="80" y="0" on="1"/>
        <pt x="80" y="732" on="1"/>
        <pt x="154" y="732" on="1"/>
        <pt x="154" y="0" on="1"/>
      </contour>
    </TTGlyph>
    <TTGlyph name="Imacron" xMin="-29" yMin="0" xMax="263" yMax="860">
      <contour>
        <pt x="-29" y="797" on="1"/>
        <pt x="-29" y="860" on="1"/>
        <pt x="263" y="860" on="1"/>
        <pt x="263" y="797" on="1"/>
      </contour>
      <contour>
        <pt x="80" y="0" on="1"/>
        <pt x="80" y="732" on="1"/>
        <pt x="154" y="732" on="1"/>
        <pt x="154" y="0" on="1"/>
      </contour>
    </TTGlyph>
    <TTGlyph name="Iogonek" xMin="16" yMin="-183" xMax="154" yMax="732">
      <contour>
        <pt x="139" y="0" on="1"/>
        <pt x="79" y="-48" on="0"/>
        <pt x="79" y="-83" on="1"/>
        <pt x="79" y="-95" on="0"/>
        <pt x="103" y="-120" on="0"/>
        <pt x="142" y="-121" on="1"/>
        <pt x="142" y="-181" on="1"/>
        <pt x="132" y="-183" on="0"/>
        <pt x="100" y="-183" on="0"/>
        <pt x="49" y="-164" on="0"/>
        <pt x="34" y="-142" on="1"/>
        <pt x="16" y="-117" on="0"/>
        <pt x="16" y="-68" on="0"/>
        <pt x="57" y="-18" on="0"/>
        <pt x="100" y="0" on="1"/>
      </contour>
      <contour>
        <pt x="80" y="0" on="1"/>
        <pt x="80" y="732" on="1"/>
        <pt x="154" y="732" on="1"/>
        <pt x="154" y="0" on="1"/>
      </contour>
    </TTGlyph>
    <TTGlyph name="Itilde" xMin="-52" yMin="0" xMax="286" yMax="903">
      <contour>
        <pt x="174" y="867" on="1"/>
        <pt x="197" y="867" on="0"/>
        <pt x="264" y="903" on="1"/>
        <pt x="286" y="861" on="1"/>
        <pt x="283" y="859" on="0"/>
        <pt x="262" y="842" on="1"/>
        <pt x="208" y="798" on="0"/>
        <pt x="175" y="798" on="1"/>
        <pt x="145" y="798" on="0"/>
        <pt x="81" y="832" on="0"/>
        <pt x="44" y="832" on="0"/>
        <pt x="15" y="821" on="0"/>
        <pt x="-18" y="802" on="0"/>
        <pt x="-31" y="797" on="1"/>
        <pt x="-52" y="838" on="1"/>
        <pt x="-25" y="860" on="0"/>
        <pt x="2" y="881" on="0"/>
        <pt x="47" y="902" on="0"/>
        <pt x="94" y="900" on="0"/>
        <pt x="161" y="867" on="0"/>
        <pt x="174" y="867" on="0"/>
      </contour>
      <contour>
        <pt x="80" y="0" on="1"/>
        <pt x="80" y="732" on="1"/>
        <pt x="154" y="732" on="1"/>
        <pt x="154" y="0" on="1"/>
      </contour>
    </TTGlyph>
    <TTGlyph name="J" xMin="35" yMin="-7" xMax="299" yMax="732">
      <contour>
        <pt x="247" y="18" on="1"/>
        <pt x="209" y="-6" on="0"/>
        <pt x="76" y="-6" on="0"/>
        <pt x="35" y="21" on="1"/>
        <pt x="39" y="75" on="1"/>
        <pt x="103" y="59" on="0"/>
        <pt x="139" y="59" on="1"/>
        <pt x="224" y="59" on="0"/>
        <pt x="225" y="165" on="1"/>
        <pt x="225" y="732" on="1"/>
        <pt x="299" y="732" on="1"/>
        <pt x="299" y="165" on="1"/>
        <pt x="299" y="51" on="0"/>
      </contour>
    </TTGlyph>
    <TTGlyph name="Jcircumflex" xMin="35" yMin="-7" xMax="408" yMax="927">
      <contour>
        <pt x="116" y="797" on="1"/>
        <pt x="233" y="927" on="1"/>
        <pt x="304" y="927" on="1"/>
        <pt x="408" y="797" on="1"/>
        <pt x="337" y="797" on="1"/>
        <pt x="266" y="868" on="1"/>
        <pt x="188" y="797" on="1"/>
      </contour>
      <contour>
        <pt x="247" y="18" on="1"/>
        <pt x="209" y="-6" on="0"/>
        <pt x="76" y="-6" on="0"/>
        <pt x="35" y="21" on="1"/>
        <pt x="39" y="75" on="1"/>
        <pt x="103" y="59" on="0"/>
        <pt x="139" y="59" on="1"/>
        <pt x="224" y="59" on="0"/>
        <pt x="225" y="165" on="1"/>
        <pt x="225" y="732" on="1"/>
        <pt x="299" y="732" on="1"/>
        <pt x="299" y="165" on="1"/>
        <pt x="299" y="51" on="0"/>
      </contour>
    </TTGlyph>
    <TTGlyph name="K" xMin="80" yMin="0" xMax="556" yMax="732">
      <contour>
        <pt x="80" y="0" on="1"/>
        <pt x="80" y="732" on="1"/>
        <pt x="154" y="732" on="1"/>
        <pt x="154" y="404" on="1"/>
        <pt x="236" y="404" on="1"/>
        <pt x="466" y="732" on="1"/>
        <pt x="556" y="732" on="1"/>
        <pt x="304" y="367" on="1"/>
        <pt x="556" y="0" on="1"/>
        <pt x="466" y="0" on="1"/>
        <pt x="236" y="330" on="1"/>
        <pt x="155" y="330" on="1"/>
        <pt x="155" y="0" on="1"/>
      </contour>
    </TTGlyph>
    <TTGlyph name="Kcommaaccent" xMin="80" yMin="-246" xMax="556" yMax="732">
      <contour>
        <pt x="334" y="-231" on="0"/>
        <pt x="309" y="-242" on="0"/>
        <pt x="288" y="-246" on="0"/>
        <pt x="278" y="-246" on="0"/>
        <pt x="266" y="-244" on="1"/>
        <pt x="266" y="-215" on="1"/>
        <pt x="267" y="-215" on="0"/>
        <pt x="268" y="-215" on="1"/>
        <pt x="294" y="-215" on="0"/>
        <pt x="294" y="-188" on="1"/>
        <pt x="294" y="-165" on="1"/>
        <pt x="284" y="-165" on="1"/>
        <pt x="262" y="-165" on="0"/>
        <pt x="262" y="-142" on="1"/>
        <pt x="262" y="-94" on="1"/>
        <pt x="262" y="-70" on="0"/>
        <pt x="284" y="-70" on="1"/>
        <pt x="330" y="-70" on="1"/>
        <pt x="352" y="-70" on="0"/>
        <pt x="352" y="-94" on="1"/>
        <pt x="352" y="-175" on="1"/>
        <pt x="352" y="-199" on="0"/>
      </contour>
      <contour>
        <pt x="80" y="0" on="1"/>
        <pt x="80" y="732" on="1"/>
        <pt x="154" y="732" on="1"/>
        <pt x="154" y="404" on="1"/>
        <pt x="236" y="404" on="1"/>
        <pt x="466" y="732" on="1"/>
        <pt x="556" y="732" on="1"/>
        <pt x="304" y="367" on="1"/>
        <pt x="556" y="0" on="1"/>
        <pt x="466" y="0" on="1"/>
        <pt x="236" y="330" on="1"/>
        <pt x="155" y="330" on="1"/>
        <pt x="155" y="0" on="1"/>
      </contour>
    </TTGlyph>
    <TTGlyph name="L" xMin="80" yMin="0" xMax="522" yMax="732">
      <contour>
        <pt x="80" y="126" on="1"/>
        <pt x="80" y="732" on="1"/>
        <pt x="154" y="732" on="1"/>
        <pt x="154" y="126" on="1"/>
        <pt x="154" y="88" on="0"/>
        <pt x="175" y="80" on="1"/>
        <pt x="191" y="74" on="0"/>
        <pt x="216" y="74" on="1"/>
        <pt x="522" y="74" on="1"/>
        <pt x="522" y="0" on="1"/>
        <pt x="216" y="0" on="1"/>
        <pt x="159" y="0" on="0"/>
        <pt x="124" y="20" on="1"/>
        <pt x="80" y="45" on="0"/>
      </contour>
    </TTGlyph>
    <TTGlyph name="Lacute" xMin="80" yMin="0" xMax="522" yMax="930">
      <contour>
        <pt x="82" y="797" on="1"/>
        <pt x="190" y="930" on="1"/>
        <pt x="284" y="930" on="1"/>
        <pt x="152" y="797" on="1"/>
      </contour>
      <contour>
        <pt x="80" y="126" on="1"/>
        <pt x="80" y="732" on="1"/>
        <pt x="154" y="732" on="1"/>
        <pt x="154" y="126" on="1"/>
        <pt x="154" y="88" on="0"/>
        <pt x="175" y="80" on="1"/>
        <pt x="191" y="74" on="0"/>
        <pt x="216" y="74" on="1"/>
        <pt x="522" y="74" on="1"/>
        <pt x="522" y="0" on="1"/>
        <pt x="216" y="0" on="1"/>
        <pt x="159" y="0" on="0"/>
        <pt x="124" y="20" on="1"/>
        <pt x="80" y="45" on="0"/>
      </contour>
    </TTGlyph>
    <TTGlyph name="Lcaron" xMin="80" yMin="0" xMax="522" yMax="772">
      <contour>
        <pt x="80" y="126" on="1"/>
        <pt x="80" y="732" on="1"/>
        <pt x="154" y="732" on="1"/>
        <pt x="154" y="126" on="1"/>
        <pt x="154" y="88" on="0"/>
        <pt x="175" y="80" on="1"/>
        <pt x="191" y="74" on="0"/>
        <pt x="216" y="74" on="1"/>
        <pt x="522" y="74" on="1"/>
        <pt x="522" y="0" on="1"/>
        <pt x="216" y="0" on="1"/>
        <pt x="159" y="0" on="0"/>
        <pt x="124" y="20" on="1"/>
        <pt x="80" y="45" on="0"/>
      </contour>
      <contour>
        <pt x="231" y="772" on="1"/>
        <pt x="305" y="772" on="1"/>
        <pt x="305" y="705" on="1"/>
        <pt x="295" y="571" on="1"/>
        <pt x="242" y="571" on="1"/>
        <pt x="231" y="705" on="1"/>
      </contour>
    </TTGlyph>
    <TTGlyph name="Lcommaaccent" xMin="80" yMin="-246" xMax="522" yMax="732">
      <contour>
        <pt x="337" y="-231" on="0"/>
        <pt x="312" y="-242" on="0"/>
        <pt x="291" y="-246" on="0"/>
        <pt x="281" y="-246" on="0"/>
        <pt x="269" y="-244" on="1"/>
        <pt x="269" y="-215" on="1"/>
        <pt x="270" y="-215" on="0"/>
        <pt x="271" y="-215" on="1"/>
        <pt x="297" y="-215" on="0"/>
        <pt x="297" y="-188" on="1"/>
        <pt x="297" y="-165" on="1"/>
        <pt x="287" y="-165" on="1"/>
        <pt x="264" y="-165" on="0"/>
        <pt x="264" y="-142" on="1"/>
        <pt x="264" y="-94" on="1"/>
        <pt x="264" y="-70" on="0"/>
        <pt x="287" y="-70" on="1"/>
        <pt x="333" y="-70" on="1"/>
        <pt x="354" y="-70" on="0"/>
        <pt x="354" y="-94" on="1"/>
        <pt x="354" y="-175" on="1"/>
        <pt x="354" y="-199" on="0"/>
      </contour>
      <contour>
        <pt x="80" y="126" on="1"/>
        <pt x="80" y="732" on="1"/>
        <pt x="154" y="732" on="1"/>
        <pt x="154" y="126" on="1"/>
        <pt x="154" y="88" on="0"/>
        <pt x="175" y="80" on="1"/>
        <pt x="191" y="74" on="0"/>
        <pt x="216" y="74" on="1"/>
        <pt x="522" y="74" on="1"/>
        <pt x="522" y="0" on="1"/>
        <pt x="216" y="0" on="1"/>
        <pt x="159" y="0" on="0"/>
        <pt x="124" y="20" on="1"/>
        <pt x="80" y="45" on="0"/>
      </contour>
    </TTGlyph>
    <TTGlyph name="Lslash" xMin="-3" yMin="0" xMax="522" yMax="732">
      <contour>
        <pt x="80" y="732" on="1"/>
        <pt x="154" y="732" on="1"/>
        <pt x="154" y="449" on="1"/>
        <pt x="294" y="509" on="1"/>
        <pt x="293" y="449" on="1"/>
        <pt x="154" y="388" on="1"/>
        <pt x="154" y="126" on="1"/>
        <pt x="154" y="88" on="0"/>
        <pt x="175" y="80" on="1"/>
        <pt x="191" y="74" on="0"/>
        <pt x="216" y="74" on="1"/>
        <pt x="522" y="74" on="1"/>
        <pt x="522" y="0" on="1"/>
        <pt x="216" y="0" on="1"/>
        <pt x="159" y="0" on="0"/>
        <pt x="124" y="20" on="1"/>
        <pt x="80" y="45" on="0"/>
        <pt x="80" y="126" on="1"/>
        <pt x="80" y="356" on="1"/>
        <pt x="-3" y="320" on="1"/>
        <pt x="-3" y="381" on="1"/>
        <pt x="80" y="417" on="1"/>
      </contour>
    </TTGlyph>
    <TTGlyph name="M" xMin="55" yMin="0" xMax="746" yMax="732">
      <contour>
        <pt x="55" y="0" on="1"/>
        <pt x="103" y="732" on="1"/>
        <pt x="205" y="732" on="1"/>
        <pt x="400" y="123" on="1"/>
        <pt x="589" y="732" on="1"/>
        <pt x="690" y="732" on="1"/>
        <pt x="746" y="0" on="1"/>
        <pt x="672" y="0" on="1"/>
        <pt x="627" y="598" on="1"/>
        <pt x="439" y="0" on="1"/>
        <pt x="363" y="0" on="1"/>
        <pt x="169" y="598" on="1"/>
        <pt x="129" y="0" on="1"/>
      </contour>
    </TTGlyph>
    <TTGlyph name="M.salt" xMin="55" yMin="0" xMax="746" yMax="741">
      <contour>
        <pt x="132" y="724" on="1"/>
        <pt x="156" y="740" on="0"/>
        <pt x="176" y="740" on="1"/>
        <pt x="247" y="740" on="0"/>
        <pt x="265" y="680" on="1"/>
        <pt x="389" y="270" on="1"/>
        <pt x="395" y="251" on="0"/>
        <pt x="406" y="260" on="1"/>
        <pt x="411" y="263" on="0"/>
        <pt x="413" y="270" on="1"/>
        <pt x="525" y="681" on="1"/>
        <pt x="538" y="724" on="0"/>
        <pt x="580" y="736" on="1"/>
        <pt x="595" y="741" on="0"/>
        <pt x="636" y="741" on="0"/>
        <pt x="660" y="724" on="1"/>
        <pt x="697" y="700" on="0"/>
        <pt x="697" y="652" on="1"/>
        <pt x="746" y="0" on="1"/>
        <pt x="672" y="0" on="1"/>
        <pt x="621" y="646" on="1"/>
        <pt x="621" y="660" on="0"/>
        <pt x="605" y="662" on="1"/>
        <pt x="596" y="664" on="0"/>
        <pt x="594" y="653" on="1"/>
        <pt x="483" y="243" on="1"/>
        <pt x="473" y="206" on="0"/>
        <pt x="438" y="192" on="1"/>
        <pt x="420" y="184" on="0"/>
        <pt x="385" y="184" on="0"/>
        <pt x="368" y="192" on="1"/>
        <pt x="332" y="206" on="0"/>
        <pt x="321" y="243" on="1"/>
        <pt x="196" y="652" on="1"/>
        <pt x="192" y="664" on="0"/>
        <pt x="171" y="658" on="0"/>
        <pt x="170" y="645" on="1"/>
        <pt x="128" y="0" on="1"/>
        <pt x="55" y="0" on="1"/>
        <pt x="95" y="652" on="1"/>
        <pt x="95" y="700" on="0"/>
      </contour>
    </TTGlyph>
    <TTGlyph name="N" xMin="80" yMin="0" xMax="620" yMax="732">
      <contour>
        <pt x="80" y="0" on="1"/>
        <pt x="80" y="732" on="1"/>
        <pt x="156" y="732" on="1"/>
        <pt x="546" y="138" on="1"/>
        <pt x="546" y="732" on="1"/>
        <pt x="620" y="732" on="1"/>
        <pt x="620" y="0" on="1"/>
        <pt x="546" y="0" on="1"/>
        <pt x="155" y="594" on="1"/>
        <pt x="155" y="0" on="1"/>
      </contour>
    </TTGlyph>
    <TTGlyph name="N.salt" xMin="80" yMin="-8" xMax="620" yMax="738">
      <contour>
        <pt x="80" y="0" on="1"/>
        <pt x="80" y="652" on="1"/>
        <pt x="80" y="700" on="0"/>
        <pt x="114" y="723" on="1"/>
        <pt x="136" y="738" on="0"/>
        <pt x="155" y="738" on="1"/>
        <pt x="222" y="738" on="0"/>
        <pt x="249" y="680" on="1"/>
        <pt x="522" y="83" on="1"/>
        <pt x="528" y="70" on="0"/>
        <pt x="546" y="74" on="0"/>
        <pt x="546" y="86" on="1"/>
        <pt x="546" y="732" on="1"/>
        <pt x="620" y="732" on="1"/>
        <pt x="620" y="79" on="1"/>
        <pt x="620" y="36" on="0"/>
        <pt x="564" y="-7" on="0"/>
        <pt x="536" y="-7" on="1"/>
        <pt x="480" y="-7" on="0"/>
        <pt x="456" y="49" on="1"/>
        <pt x="180" y="652" on="1"/>
        <pt x="175" y="663" on="0"/>
        <pt x="155" y="658" on="0"/>
        <pt x="155" y="645" on="1"/>
        <pt x="155" y="0" on="1"/>
      </contour>
    </TTGlyph>
    <TTGlyph name="Nacute" xMin="80" yMin="0" xMax="620" yMax="930">
      <contour>
        <pt x="326" y="797" on="1"/>
        <pt x="432" y="930" on="1"/>
        <pt x="528" y="930" on="1"/>
        <pt x="394" y="797" on="1"/>
      </contour>
      <contour>
        <pt x="80" y="0" on="1"/>
        <pt x="80" y="732" on="1"/>
        <pt x="156" y="732" on="1"/>
        <pt x="546" y="138" on="1"/>
        <pt x="546" y="732" on="1"/>
        <pt x="620" y="732" on="1"/>
        <pt x="620" y="0" on="1"/>
        <pt x="546" y="0" on="1"/>
        <pt x="155" y="594" on="1"/>
        <pt x="155" y="0" on="1"/>
      </contour>
    </TTGlyph>
    <TTGlyph name="Nacute.salt" xMin="80" yMin="-8" xMax="620" yMax="930">
      <contour>
        <pt x="338" y="797" on="1"/>
        <pt x="445" y="930" on="1"/>
        <pt x="540" y="930" on="1"/>
        <pt x="407" y="797" on="1"/>
      </contour>
      <contour>
        <pt x="80" y="0" on="1"/>
        <pt x="80" y="652" on="1"/>
        <pt x="80" y="700" on="0"/>
        <pt x="114" y="723" on="1"/>
        <pt x="136" y="738" on="0"/>
        <pt x="155" y="738" on="1"/>
        <pt x="222" y="738" on="0"/>
        <pt x="249" y="680" on="1"/>
        <pt x="522" y="83" on="1"/>
        <pt x="528" y="70" on="0"/>
        <pt x="546" y="74" on="0"/>
        <pt x="546" y="86" on="1"/>
        <pt x="546" y="732" on="1"/>
        <pt x="620" y="732" on="1"/>
        <pt x="620" y="79" on="1"/>
        <pt x="620" y="36" on="0"/>
        <pt x="564" y="-7" on="0"/>
        <pt x="536" y="-7" on="1"/>
        <pt x="480" y="-7" on="0"/>
        <pt x="456" y="49" on="1"/>
        <pt x="180" y="652" on="1"/>
        <pt x="175" y="663" on="0"/>
        <pt x="155" y="658" on="0"/>
        <pt x="155" y="645" on="1"/>
        <pt x="155" y="0" on="1"/>
      </contour>
    </TTGlyph>
    <TTGlyph name="Ncaron" xMin="80" yMin="0" xMax="620" yMax="927">
      <contour>
        <pt x="214" y="927" on="1"/>
        <pt x="286" y="927" on="1"/>
        <pt x="366" y="856" on="1"/>
        <pt x="435" y="927" on="1"/>
        <pt x="506" y="927" on="1"/>
        <pt x="402" y="797" on="1"/>
        <pt x="331" y="797" on="1"/>
      </contour>
      <contour>
        <pt x="80" y="0" on="1"/>
        <pt x="80" y="732" on="1"/>
        <pt x="156" y="732" on="1"/>
        <pt x="546" y="138" on="1"/>
        <pt x="546" y="732" on="1"/>
        <pt x="620" y="732" on="1"/>
        <pt x="620" y="0" on="1"/>
        <pt x="546" y="0" on="1"/>
        <pt x="155" y="594" on="1"/>
        <pt x="155" y="0" on="1"/>
      </contour>
    </TTGlyph>
    <TTGlyph name="Ncaron.salt" xMin="80" yMin="-8" xMax="620" yMax="927">
      <contour>
        <pt x="215" y="927" on="1"/>
        <pt x="287" y="927" on="1"/>
        <pt x="367" y="856" on="1"/>
        <pt x="436" y="927" on="1"/>
        <pt x="507" y="927" on="1"/>
        <pt x="403" y="797" on="1"/>
        <pt x="332" y="797" on="1"/>
      </contour>
      <contour>
        <pt x="80" y="0" on="1"/>
        <pt x="80" y="652" on="1"/>
        <pt x="80" y="700" on="0"/>
        <pt x="114" y="723" on="1"/>
        <pt x="136" y="738" on="0"/>
        <pt x="155" y="738" on="1"/>
        <pt x="222" y="738" on="0"/>
        <pt x="249" y="680" on="1"/>
        <pt x="522" y="83" on="1"/>
        <pt x="528" y="70" on="0"/>
        <pt x="546" y="74" on="0"/>
        <pt x="546" y="86" on="1"/>
        <pt x="546" y="732" on="1"/>
        <pt x="620" y="732" on="1"/>
        <pt x="620" y="79" on="1"/>
        <pt x="620" y="36" on="0"/>
        <pt x="564" y="-7" on="0"/>
        <pt x="536" y="-7" on="1"/>
        <pt x="480" y="-7" on="0"/>
        <pt x="456" y="49" on="1"/>
        <pt x="180" y="652" on="1"/>
        <pt x="175" y="663" on="0"/>
        <pt x="155" y="658" on="0"/>
        <pt x="155" y="645" on="1"/>
        <pt x="155" y="0" on="1"/>
      </contour>
    </TTGlyph>
    <TTGlyph name="Ncommaaccent" xMin="80" yMin="-246" xMax="620" yMax="732">
      <contour>
        <pt x="377" y="-231" on="0"/>
        <pt x="352" y="-242" on="0"/>
        <pt x="331" y="-246" on="0"/>
        <pt x="321" y="-246" on="0"/>
        <pt x="309" y="-244" on="1"/>
        <pt x="309" y="-215" on="1"/>
        <pt x="310" y="-215" on="0"/>
        <pt x="311" y="-215" on="1"/>
        <pt x="337" y="-215" on="0"/>
        <pt x="337" y="-188" on="1"/>
        <pt x="337" y="-165" on="1"/>
        <pt x="327" y="-165" on="1"/>
        <pt x="304" y="-165" on="0"/>
        <pt x="304" y="-142" on="1"/>
        <pt x="304" y="-94" on="1"/>
        <pt x="304" y="-70" on="0"/>
        <pt x="327" y="-70" on="1"/>
        <pt x="373" y="-70" on="1"/>
        <pt x="394" y="-70" on="0"/>
        <pt x="394" y="-94" on="1"/>
        <pt x="394" y="-175" on="1"/>
        <pt x="394" y="-199" on="0"/>
      </contour>
      <contour>
        <pt x="80" y="0" on="1"/>
        <pt x="80" y="732" on="1"/>
        <pt x="156" y="732" on="1"/>
        <pt x="546" y="138" on="1"/>
        <pt x="546" y="732" on="1"/>
        <pt x="620" y="732" on="1"/>
        <pt x="620" y="0" on="1"/>
        <pt x="546" y="0" on="1"/>
        <pt x="155" y="594" on="1"/>
        <pt x="155" y="0" on="1"/>
      </contour>
    </TTGlyph>
    <TTGlyph name="Ncommaaccent.salt" xMin="80" yMin="-253" xMax="620" yMax="738">
      <contour>
        <pt x="363" y="-238" on="0"/>
        <pt x="338" y="-249" on="0"/>
        <pt x="317" y="-253" on="0"/>
        <pt x="307" y="-253" on="0"/>
        <pt x="295" y="-251" on="1"/>
        <pt x="295" y="-222" on="1"/>
        <pt x="296" y="-222" on="0"/>
        <pt x="297" y="-222" on="1"/>
        <pt x="323" y="-222" on="0"/>
        <pt x="323" y="-194" on="1"/>
        <pt x="323" y="-172" on="1"/>
        <pt x="313" y="-172" on="1"/>
        <pt x="290" y="-172" on="0"/>
        <pt x="290" y="-150" on="1"/>
        <pt x="290" y="-101" on="1"/>
        <pt x="290" y="-77" on="0"/>
        <pt x="313" y="-77" on="1"/>
        <pt x="359" y="-77" on="1"/>
        <pt x="380" y="-77" on="0"/>
        <pt x="380" y="-101" on="1"/>
        <pt x="380" y="-182" on="1"/>
        <pt x="380" y="-206" on="0"/>
      </contour>
      <contour>
        <pt x="80" y="0" on="1"/>
        <pt x="80" y="652" on="1"/>
        <pt x="80" y="700" on="0"/>
        <pt x="114" y="723" on="1"/>
        <pt x="136" y="738" on="0"/>
        <pt x="155" y="738" on="1"/>
        <pt x="222" y="738" on="0"/>
        <pt x="249" y="680" on="1"/>
        <pt x="522" y="83" on="1"/>
        <pt x="528" y="70" on="0"/>
        <pt x="546" y="74" on="0"/>
        <pt x="546" y="86" on="1"/>
        <pt x="546" y="732" on="1"/>
        <pt x="620" y="732" on="1"/>
        <pt x="620" y="79" on="1"/>
        <pt x="620" y="36" on="0"/>
        <pt x="564" y="-7" on="0"/>
        <pt x="536" y="-7" on="1"/>
        <pt x="480" y="-7" on="0"/>
        <pt x="456" y="49" on="1"/>
        <pt x="180" y="652" on="1"/>
        <pt x="175" y="663" on="0"/>
        <pt x="155" y="658" on="0"/>
        <pt x="155" y="645" on="1"/>
        <pt x="155" y="0" on="1"/>
      </contour>
    </TTGlyph>
    <TTGlyph name="Ntilde" xMin="80" yMin="0" xMax="620" yMax="903">
      <contour>
        <pt x="407" y="867" on="1"/>
        <pt x="430" y="867" on="0"/>
        <pt x="497" y="903" on="1"/>
        <pt x="519" y="861" on="1"/>
        <pt x="516" y="859" on="0"/>
        <pt x="494" y="842" on="1"/>
        <pt x="441" y="798" on="0"/>
        <pt x="408" y="798" on="1"/>
        <pt x="378" y="798" on="0"/>
        <pt x="314" y="832" on="0"/>
        <pt x="277" y="832" on="0"/>
        <pt x="248" y="821" on="0"/>
        <pt x="215" y="802" on="0"/>
        <pt x="202" y="797" on="1"/>
        <pt x="181" y="838" on="1"/>
        <pt x="208" y="860" on="0"/>
        <pt x="235" y="881" on="0"/>
        <pt x="280" y="902" on="0"/>
        <pt x="327" y="900" on="0"/>
        <pt x="394" y="867" on="0"/>
        <pt x="407" y="867" on="0"/>
      </contour>
      <contour>
        <pt x="80" y="0" on="1"/>
        <pt x="80" y="732" on="1"/>
        <pt x="156" y="732" on="1"/>
        <pt x="546" y="138" on="1"/>
        <pt x="546" y="732" on="1"/>
        <pt x="620" y="732" on="1"/>
        <pt x="620" y="0" on="1"/>
        <pt x="546" y="0" on="1"/>
        <pt x="155" y="594" on="1"/>
        <pt x="155" y="0" on="1"/>
      </contour>
    </TTGlyph>
    <TTGlyph name="Ntilde.salt" xMin="80" yMin="-8" xMax="620" yMax="903">
      <contour>
        <pt x="418" y="867" on="1"/>
        <pt x="441" y="867" on="0"/>
        <pt x="508" y="903" on="1"/>
        <pt x="530" y="861" on="1"/>
        <pt x="527" y="859" on="0"/>
        <pt x="506" y="842" on="1"/>
        <pt x="452" y="798" on="0"/>
        <pt x="419" y="798" on="1"/>
        <pt x="389" y="798" on="0"/>
        <pt x="325" y="832" on="0"/>
        <pt x="288" y="832" on="0"/>
        <pt x="259" y="821" on="0"/>
        <pt x="226" y="802" on="0"/>
        <pt x="213" y="797" on="1"/>
        <pt x="192" y="838" on="1"/>
        <pt x="219" y="860" on="0"/>
        <pt x="246" y="881" on="0"/>
        <pt x="291" y="902" on="0"/>
        <pt x="338" y="900" on="0"/>
        <pt x="405" y="867" on="0"/>
        <pt x="418" y="867" on="0"/>
      </contour>
      <contour>
        <pt x="80" y="0" on="1"/>
        <pt x="80" y="652" on="1"/>
        <pt x="80" y="700" on="0"/>
        <pt x="114" y="723" on="1"/>
        <pt x="136" y="738" on="0"/>
        <pt x="155" y="738" on="1"/>
        <pt x="222" y="738" on="0"/>
        <pt x="249" y="680" on="1"/>
        <pt x="522" y="83" on="1"/>
        <pt x="528" y="70" on="0"/>
        <pt x="546" y="74" on="0"/>
        <pt x="546" y="86" on="1"/>
        <pt x="546" y="732" on="1"/>
        <pt x="620" y="732" on="1"/>
        <pt x="620" y="79" on="1"/>
        <pt x="620" y="36" on="0"/>
        <pt x="564" y="-7" on="0"/>
        <pt x="536" y="-7" on="1"/>
        <pt x="480" y="-7" on="0"/>
        <pt x="456" y="49" on="1"/>
        <pt x="180" y="652" on="1"/>
        <pt x="175" y="663" on="0"/>
        <pt x="155" y="658" on="0"/>
        <pt x="155" y="645" on="1"/>
        <pt x="155" y="0" on="1"/>
      </contour>
    </TTGlyph>
    <TTGlyph name="O" xMin="65" yMin="-4" xMax="631" yMax="737">
      <contour>
        <pt x="81" y="158" on="0"/>
        <pt x="65" y="279" on="0"/>
        <pt x="65" y="445" on="0"/>
        <pt x="83" y="570" on="0"/>
        <pt x="121" y="652" on="0"/>
        <pt x="166" y="703" on="0"/>
        <pt x="201" y="716" on="1"/>
        <pt x="258" y="737" on="0"/>
        <pt x="349" y="737" on="1"/>
        <pt x="480" y="737" on="0"/>
        <pt x="533" y="697" on="1"/>
        <pt x="584" y="658" on="0"/>
        <pt x="606" y="586" on="1"/>
        <pt x="631" y="498" on="0"/>
        <pt x="631" y="266" on="0"/>
        <pt x="606" y="133" on="0"/>
        <pt x="563" y="53" on="0"/>
        <pt x="488" y="10" on="0"/>
        <pt x="408" y="-4" on="0"/>
        <pt x="299" y="-4" on="0"/>
        <pt x="231" y="4" on="0"/>
        <pt x="161" y="29" on="0"/>
        <pt x="117" y="78" on="0"/>
      </contour>
      <contour>
        <pt x="145" y="490" on="0"/>
        <pt x="139" y="410" on="0"/>
        <pt x="139" y="264" on="0"/>
        <pt x="158" y="150" on="0"/>
        <pt x="213" y="88" on="0"/>
        <pt x="285" y="70" on="0"/>
        <pt x="399" y="70" on="0"/>
        <pt x="463" y="83" on="0"/>
        <pt x="515" y="118" on="0"/>
        <pt x="529" y="151" on="1"/>
        <pt x="557" y="217" on="0"/>
        <pt x="557" y="361" on="1"/>
        <pt x="557" y="518" on="0"/>
        <pt x="533" y="572" on="1"/>
        <pt x="523" y="595" on="0"/>
        <pt x="507" y="625" on="0"/>
        <pt x="475" y="646" on="0"/>
        <pt x="452" y="657" on="0"/>
        <pt x="407" y="662" on="0"/>
        <pt x="377" y="663" on="0"/>
        <pt x="321" y="663" on="0"/>
        <pt x="292" y="662" on="0"/>
        <pt x="247" y="657" on="0"/>
        <pt x="223" y="646" on="0"/>
        <pt x="191" y="625" on="0"/>
        <pt x="174" y="595" on="0"/>
        <pt x="154" y="550" on="0"/>
      </contour>
    </TTGlyph>
    <TTGlyph name="OE" xMin="65" yMin="-4" xMax="1000" yMax="737">
      <contour>
        <pt x="149" y="519" on="0"/>
        <pt x="139" y="424" on="0"/>
        <pt x="139" y="264" on="0"/>
        <pt x="158" y="150" on="0"/>
        <pt x="212" y="88" on="0"/>
        <pt x="284" y="70" on="0"/>
        <pt x="411" y="70" on="0"/>
        <pt x="484" y="91" on="0"/>
        <pt x="537" y="154" on="0"/>
        <pt x="557" y="267" on="0"/>
        <pt x="557" y="411" on="0"/>
        <pt x="551" y="490" on="0"/>
        <pt x="542" y="550" on="0"/>
        <pt x="523" y="595" on="0"/>
        <pt x="507" y="625" on="0"/>
        <pt x="475" y="646" on="0"/>
        <pt x="451" y="657" on="0"/>
        <pt x="428" y="660" on="1"/>
        <pt x="397" y="663" on="0"/>
        <pt x="312" y="663" on="0"/>
        <pt x="276" y="661" on="0"/>
        <pt x="222" y="650" on="0"/>
        <pt x="196" y="627" on="0"/>
        <pt x="164" y="584" on="0"/>
      </contour>
      <contour>
        <pt x="81" y="158" on="0"/>
        <pt x="65" y="279" on="0"/>
        <pt x="65" y="461" on="0"/>
        <pt x="93" y="602" on="0"/>
        <pt x="138" y="682" on="0"/>
        <pt x="216" y="725" on="0"/>
        <pt x="291" y="737" on="0"/>
        <pt x="429" y="737" on="0"/>
        <pt x="533" y="707" on="0"/>
        <pt x="567" y="663" on="1"/>
        <pt x="592" y="732" on="0"/>
        <pt x="672" y="732" on="1"/>
        <pt x="677" y="732" on="0"/>
        <pt x="683" y="732" on="1"/>
        <pt x="1000" y="716" on="1"/>
        <pt x="1000" y="658" on="1"/>
        <pt x="683" y="658" on="1"/>
        <pt x="659" y="658" on="0"/>
        <pt x="634" y="639" on="0"/>
        <pt x="631" y="620" on="0"/>
        <pt x="631" y="602" on="1"/>
        <pt x="631" y="402" on="1"/>
        <pt x="960" y="392" on="1"/>
        <pt x="960" y="333" on="1"/>
        <pt x="631" y="323" on="1"/>
        <pt x="631" y="123" on="1"/>
        <pt x="631" y="98" on="0"/>
        <pt x="653" y="74" on="0"/>
        <pt x="673" y="71" on="0"/>
        <pt x="693" y="71" on="1"/>
        <pt x="1000" y="71" on="1"/>
        <pt x="1000" y="14" on="1"/>
        <pt x="693" y="-3" on="1"/>
        <pt x="685" y="-3" on="0"/>
        <pt x="678" y="-3" on="1"/>
        <pt x="587" y="-3" on="0"/>
        <pt x="565" y="66" on="1"/>
        <pt x="531" y="25" on="0"/>
        <pt x="427" y="-4" on="0"/>
        <pt x="298" y="-4" on="0"/>
        <pt x="230" y="4" on="0"/>
        <pt x="160" y="29" on="0"/>
        <pt x="117" y="78" on="0"/>
      </contour>
    </TTGlyph>
    <TTGlyph name="Oacute" xMin="65" yMin="-4" xMax="631" yMax="930">
      <contour>
        <pt x="314" y="797" on="1"/>
        <pt x="422" y="930" on="1"/>
        <pt x="516" y="930" on="1"/>
        <pt x="384" y="797" on="1"/>
      </contour>
      <contour>
        <pt x="81" y="158" on="0"/>
        <pt x="65" y="279" on="0"/>
        <pt x="65" y="445" on="0"/>
        <pt x="83" y="570" on="0"/>
        <pt x="121" y="652" on="0"/>
        <pt x="166" y="703" on="0"/>
        <pt x="201" y="716" on="1"/>
        <pt x="258" y="737" on="0"/>
        <pt x="349" y="737" on="1"/>
        <pt x="480" y="737" on="0"/>
        <pt x="533" y="697" on="1"/>
        <pt x="584" y="658" on="0"/>
        <pt x="606" y="586" on="1"/>
        <pt x="631" y="498" on="0"/>
        <pt x="631" y="266" on="0"/>
        <pt x="606" y="133" on="0"/>
        <pt x="563" y="53" on="0"/>
        <pt x="488" y="10" on="0"/>
        <pt x="408" y="-4" on="0"/>
        <pt x="299" y="-4" on="0"/>
        <pt x="231" y="4" on="0"/>
        <pt x="161" y="29" on="0"/>
        <pt x="117" y="78" on="0"/>
      </contour>
      <contour>
        <pt x="145" y="490" on="0"/>
        <pt x="139" y="410" on="0"/>
        <pt x="139" y="264" on="0"/>
        <pt x="158" y="150" on="0"/>
        <pt x="213" y="88" on="0"/>
        <pt x="285" y="70" on="0"/>
        <pt x="399" y="70" on="0"/>
        <pt x="463" y="83" on="0"/>
        <pt x="515" y="118" on="0"/>
        <pt x="529" y="151" on="1"/>
        <pt x="557" y="217" on="0"/>
        <pt x="557" y="361" on="1"/>
        <pt x="557" y="518" on="0"/>
        <pt x="533" y="572" on="1"/>
        <pt x="523" y="595" on="0"/>
        <pt x="507" y="625" on="0"/>
        <pt x="475" y="646" on="0"/>
        <pt x="452" y="657" on="0"/>
        <pt x="407" y="662" on="0"/>
        <pt x="377" y="663" on="0"/>
        <pt x="321" y="663" on="0"/>
        <pt x="292" y="662" on="0"/>
        <pt x="247" y="657" on="0"/>
        <pt x="223" y="646" on="0"/>
        <pt x="191" y="625" on="0"/>
        <pt x="174" y="595" on="0"/>
        <pt x="154" y="550" on="0"/>
      </contour>
    </TTGlyph>
    <TTGlyph name="Ocircumflex" xMin="65" yMin="-4" xMax="631" yMax="927">
      <contour>
        <pt x="203" y="797" on="1"/>
        <pt x="320" y="927" on="1"/>
        <pt x="391" y="927" on="1"/>
        <pt x="495" y="797" on="1"/>
        <pt x="424" y="797" on="1"/>
        <pt x="353" y="868" on="1"/>
        <pt x="275" y="797" on="1"/>
      </contour>
      <contour>
        <pt x="81" y="158" on="0"/>
        <pt x="65" y="279" on="0"/>
        <pt x="65" y="445" on="0"/>
        <pt x="83" y="570" on="0"/>
        <pt x="121" y="652" on="0"/>
        <pt x="166" y="703" on="0"/>
        <pt x="201" y="716" on="1"/>
        <pt x="258" y="737" on="0"/>
        <pt x="349" y="737" on="1"/>
        <pt x="480" y="737" on="0"/>
        <pt x="533" y="697" on="1"/>
        <pt x="584" y="658" on="0"/>
        <pt x="606" y="586" on="1"/>
        <pt x="631" y="498" on="0"/>
        <pt x="631" y="266" on="0"/>
        <pt x="606" y="133" on="0"/>
        <pt x="563" y="53" on="0"/>
        <pt x="488" y="10" on="0"/>
        <pt x="408" y="-4" on="0"/>
        <pt x="299" y="-4" on="0"/>
        <pt x="231" y="4" on="0"/>
        <pt x="161" y="29" on="0"/>
        <pt x="117" y="78" on="0"/>
      </contour>
      <contour>
        <pt x="145" y="490" on="0"/>
        <pt x="139" y="410" on="0"/>
        <pt x="139" y="264" on="0"/>
        <pt x="158" y="150" on="0"/>
        <pt x="213" y="88" on="0"/>
        <pt x="285" y="70" on="0"/>
        <pt x="399" y="70" on="0"/>
        <pt x="463" y="83" on="0"/>
        <pt x="515" y="118" on="0"/>
        <pt x="529" y="151" on="1"/>
        <pt x="557" y="217" on="0"/>
        <pt x="557" y="361" on="1"/>
        <pt x="557" y="518" on="0"/>
        <pt x="533" y="572" on="1"/>
        <pt x="523" y="595" on="0"/>
        <pt x="507" y="625" on="0"/>
        <pt x="475" y="646" on="0"/>
        <pt x="452" y="657" on="0"/>
        <pt x="407" y="662" on="0"/>
        <pt x="377" y="663" on="0"/>
        <pt x="321" y="663" on="0"/>
        <pt x="292" y="662" on="0"/>
        <pt x="247" y="657" on="0"/>
        <pt x="223" y="646" on="0"/>
        <pt x="191" y="625" on="0"/>
        <pt x="174" y="595" on="0"/>
        <pt x="154" y="550" on="0"/>
      </contour>
    </TTGlyph>
    <TTGlyph name="Odieresis" xMin="65" yMin="-4" xMax="631" yMax="898">
      <contour>
        <pt x="171" y="827" on="0"/>
        <pt x="171" y="869" on="0"/>
        <pt x="201" y="898" on="0"/>
        <pt x="243" y="898" on="0"/>
        <pt x="272" y="869" on="0"/>
        <pt x="272" y="827" on="0"/>
        <pt x="243" y="797" on="0"/>
        <pt x="201" y="797" on="0"/>
      </contour>
      <contour>
        <pt x="426" y="827" on="0"/>
        <pt x="426" y="869" on="0"/>
        <pt x="456" y="898" on="0"/>
        <pt x="498" y="898" on="0"/>
        <pt x="527" y="869" on="0"/>
        <pt x="527" y="827" on="0"/>
        <pt x="498" y="797" on="0"/>
        <pt x="456" y="797" on="0"/>
      </contour>
      <contour>
        <pt x="81" y="158" on="0"/>
        <pt x="65" y="279" on="0"/>
        <pt x="65" y="445" on="0"/>
        <pt x="83" y="570" on="0"/>
        <pt x="121" y="652" on="0"/>
        <pt x="166" y="703" on="0"/>
        <pt x="201" y="716" on="1"/>
        <pt x="258" y="737" on="0"/>
        <pt x="349" y="737" on="1"/>
        <pt x="480" y="737" on="0"/>
        <pt x="533" y="697" on="1"/>
        <pt x="584" y="658" on="0"/>
        <pt x="606" y="586" on="1"/>
        <pt x="631" y="498" on="0"/>
        <pt x="631" y="266" on="0"/>
        <pt x="606" y="133" on="0"/>
        <pt x="563" y="53" on="0"/>
        <pt x="488" y="10" on="0"/>
        <pt x="408" y="-4" on="0"/>
        <pt x="299" y="-4" on="0"/>
        <pt x="231" y="4" on="0"/>
        <pt x="161" y="29" on="0"/>
        <pt x="117" y="78" on="0"/>
      </contour>
      <contour>
        <pt x="145" y="490" on="0"/>
        <pt x="139" y="410" on="0"/>
        <pt x="139" y="264" on="0"/>
        <pt x="158" y="150" on="0"/>
        <pt x="213" y="88" on="0"/>
        <pt x="285" y="70" on="0"/>
        <pt x="399" y="70" on="0"/>
        <pt x="463" y="83" on="0"/>
        <pt x="515" y="118" on="0"/>
        <pt x="529" y="151" on="1"/>
        <pt x="557" y="217" on="0"/>
        <pt x="557" y="361" on="1"/>
        <pt x="557" y="518" on="0"/>
        <pt x="533" y="572" on="1"/>
        <pt x="523" y="595" on="0"/>
        <pt x="507" y="625" on="0"/>
        <pt x="475" y="646" on="0"/>
        <pt x="452" y="657" on="0"/>
        <pt x="407" y="662" on="0"/>
        <pt x="377" y="663" on="0"/>
        <pt x="321" y="663" on="0"/>
        <pt x="292" y="662" on="0"/>
        <pt x="247" y="657" on="0"/>
        <pt x="223" y="646" on="0"/>
        <pt x="191" y="625" on="0"/>
        <pt x="174" y="595" on="0"/>
        <pt x="154" y="550" on="0"/>
      </contour>
    </TTGlyph>
    <TTGlyph name="Ograve" xMin="65" yMin="-4" xMax="631" yMax="930">
      <contour>
        <pt x="182" y="930" on="1"/>
        <pt x="276" y="930" on="1"/>
        <pt x="384" y="797" on="1"/>
        <pt x="314" y="797" on="1"/>
      </contour>
      <contour>
        <pt x="81" y="158" on="0"/>
        <pt x="65" y="279" on="0"/>
        <pt x="65" y="445" on="0"/>
        <pt x="83" y="570" on="0"/>
        <pt x="121" y="652" on="0"/>
        <pt x="166" y="703" on="0"/>
        <pt x="201" y="716" on="1"/>
        <pt x="258" y="737" on="0"/>
        <pt x="349" y="737" on="1"/>
        <pt x="480" y="737" on="0"/>
        <pt x="533" y="697" on="1"/>
        <pt x="584" y="658" on="0"/>
        <pt x="606" y="586" on="1"/>
        <pt x="631" y="498" on="0"/>
        <pt x="631" y="266" on="0"/>
        <pt x="606" y="133" on="0"/>
        <pt x="563" y="53" on="0"/>
        <pt x="488" y="10" on="0"/>
        <pt x="408" y="-4" on="0"/>
        <pt x="299" y="-4" on="0"/>
        <pt x="231" y="4" on="0"/>
        <pt x="161" y="29" on="0"/>
        <pt x="117" y="78" on="0"/>
      </contour>
      <contour>
        <pt x="145" y="490" on="0"/>
        <pt x="139" y="410" on="0"/>
        <pt x="139" y="264" on="0"/>
        <pt x="158" y="150" on="0"/>
        <pt x="213" y="88" on="0"/>
        <pt x="285" y="70" on="0"/>
        <pt x="399" y="70" on="0"/>
        <pt x="463" y="83" on="0"/>
        <pt x="515" y="118" on="0"/>
        <pt x="529" y="151" on="1"/>
        <pt x="557" y="217" on="0"/>
        <pt x="557" y="361" on="1"/>
        <pt x="557" y="518" on="0"/>
        <pt x="533" y="572" on="1"/>
        <pt x="523" y="595" on="0"/>
        <pt x="507" y="625" on="0"/>
        <pt x="475" y="646" on="0"/>
        <pt x="452" y="657" on="0"/>
        <pt x="407" y="662" on="0"/>
        <pt x="377" y="663" on="0"/>
        <pt x="321" y="663" on="0"/>
        <pt x="292" y="662" on="0"/>
        <pt x="247" y="657" on="0"/>
        <pt x="223" y="646" on="0"/>
        <pt x="191" y="625" on="0"/>
        <pt x="174" y="595" on="0"/>
        <pt x="154" y="550" on="0"/>
      </contour>
    </TTGlyph>
    <TTGlyph name="Ohungarumlaut" xMin="65" yMin="-4" xMax="631" yMax="930">
      <contour>
        <pt x="247" y="797" on="1"/>
        <pt x="354" y="930" on="1"/>
        <pt x="449" y="930" on="1"/>
        <pt x="316" y="797" on="1"/>
      </contour>
      <contour>
        <pt x="382" y="797" on="1"/>
        <pt x="489" y="930" on="1"/>
        <pt x="584" y="930" on="1"/>
        <pt x="451" y="797" on="1"/>
      </contour>
      <contour>
        <pt x="81" y="158" on="0"/>
        <pt x="65" y="279" on="0"/>
        <pt x="65" y="445" on="0"/>
        <pt x="83" y="570" on="0"/>
        <pt x="121" y="652" on="0"/>
        <pt x="166" y="703" on="0"/>
        <pt x="201" y="716" on="1"/>
        <pt x="258" y="737" on="0"/>
        <pt x="349" y="737" on="1"/>
        <pt x="480" y="737" on="0"/>
        <pt x="533" y="697" on="1"/>
        <pt x="584" y="658" on="0"/>
        <pt x="606" y="586" on="1"/>
        <pt x="631" y="498" on="0"/>
        <pt x="631" y="266" on="0"/>
        <pt x="606" y="133" on="0"/>
        <pt x="563" y="53" on="0"/>
        <pt x="488" y="10" on="0"/>
        <pt x="408" y="-4" on="0"/>
        <pt x="299" y="-4" on="0"/>
        <pt x="231" y="4" on="0"/>
        <pt x="161" y="29" on="0"/>
        <pt x="117" y="78" on="0"/>
      </contour>
      <contour>
        <pt x="145" y="490" on="0"/>
        <pt x="139" y="410" on="0"/>
        <pt x="139" y="264" on="0"/>
        <pt x="158" y="150" on="0"/>
        <pt x="213" y="88" on="0"/>
        <pt x="285" y="70" on="0"/>
        <pt x="399" y="70" on="0"/>
        <pt x="463" y="83" on="0"/>
        <pt x="515" y="118" on="0"/>
        <pt x="529" y="151" on="1"/>
        <pt x="557" y="217" on="0"/>
        <pt x="557" y="361" on="1"/>
        <pt x="557" y="518" on="0"/>
        <pt x="533" y="572" on="1"/>
        <pt x="523" y="595" on="0"/>
        <pt x="507" y="625" on="0"/>
        <pt x="475" y="646" on="0"/>
        <pt x="452" y="657" on="0"/>
        <pt x="407" y="662" on="0"/>
        <pt x="377" y="663" on="0"/>
        <pt x="321" y="663" on="0"/>
        <pt x="292" y="662" on="0"/>
        <pt x="247" y="657" on="0"/>
        <pt x="223" y="646" on="0"/>
        <pt x="191" y="625" on="0"/>
        <pt x="174" y="595" on="0"/>
        <pt x="154" y="550" on="0"/>
      </contour>
    </TTGlyph>
    <TTGlyph name="Omacron" xMin="65" yMin="-4" xMax="631" yMax="860">
      <contour>
        <pt x="203" y="797" on="1"/>
        <pt x="203" y="860" on="1"/>
        <pt x="495" y="860" on="1"/>
        <pt x="495" y="797" on="1"/>
      </contour>
      <contour>
        <pt x="81" y="158" on="0"/>
        <pt x="65" y="279" on="0"/>
        <pt x="65" y="445" on="0"/>
        <pt x="83" y="570" on="0"/>
        <pt x="121" y="652" on="0"/>
        <pt x="166" y="703" on="0"/>
        <pt x="201" y="716" on="1"/>
        <pt x="258" y="737" on="0"/>
        <pt x="349" y="737" on="1"/>
        <pt x="480" y="737" on="0"/>
        <pt x="533" y="697" on="1"/>
        <pt x="584" y="658" on="0"/>
        <pt x="606" y="586" on="1"/>
        <pt x="631" y="498" on="0"/>
        <pt x="631" y="266" on="0"/>
        <pt x="606" y="133" on="0"/>
        <pt x="563" y="53" on="0"/>
        <pt x="488" y="10" on="0"/>
        <pt x="408" y="-4" on="0"/>
        <pt x="299" y="-4" on="0"/>
        <pt x="231" y="4" on="0"/>
        <pt x="161" y="29" on="0"/>
        <pt x="117" y="78" on="0"/>
      </contour>
      <contour>
        <pt x="145" y="490" on="0"/>
        <pt x="139" y="410" on="0"/>
        <pt x="139" y="264" on="0"/>
        <pt x="158" y="150" on="0"/>
        <pt x="213" y="88" on="0"/>
        <pt x="285" y="70" on="0"/>
        <pt x="399" y="70" on="0"/>
        <pt x="463" y="83" on="0"/>
        <pt x="515" y="118" on="0"/>
        <pt x="529" y="151" on="1"/>
        <pt x="557" y="217" on="0"/>
        <pt x="557" y="361" on="1"/>
        <pt x="557" y="518" on="0"/>
        <pt x="533" y="572" on="1"/>
        <pt x="523" y="595" on="0"/>
        <pt x="507" y="625" on="0"/>
        <pt x="475" y="646" on="0"/>
        <pt x="452" y="657" on="0"/>
        <pt x="407" y="662" on="0"/>
        <pt x="377" y="663" on="0"/>
        <pt x="321" y="663" on="0"/>
        <pt x="292" y="662" on="0"/>
        <pt x="247" y="657" on="0"/>
        <pt x="223" y="646" on="0"/>
        <pt x="191" y="625" on="0"/>
        <pt x="174" y="595" on="0"/>
        <pt x="154" y="550" on="0"/>
      </contour>
    </TTGlyph>
    <TTGlyph name="Omega" xMin="65" yMin="0" xMax="714" yMax="739">
      <contour>
        <pt x="65" y="362" on="1"/>
        <pt x="65" y="411" on="1"/>
        <pt x="65" y="438" on="0"/>
        <pt x="82" y="530" on="0"/>
        <pt x="127" y="625" on="0"/>
        <pt x="197" y="695" on="0"/>
        <pt x="315" y="739" on="0"/>
        <pt x="479" y="739" on="0"/>
        <pt x="608" y="680" on="0"/>
        <pt x="643" y="628" on="1"/>
        <pt x="709" y="531" on="0"/>
        <pt x="709" y="383" on="1"/>
        <pt x="709" y="329" on="0"/>
        <pt x="703" y="262" on="0"/>
        <pt x="692" y="219" on="1"/>
        <pt x="671" y="138" on="0"/>
        <pt x="586" y="77" on="1"/>
        <pt x="714" y="67" on="1"/>
        <pt x="714" y="0" on="1"/>
        <pt x="486" y="0" on="1"/>
        <pt x="486" y="78" on="1"/>
        <pt x="604" y="157" on="0"/>
        <pt x="624" y="247" on="1"/>
        <pt x="635" y="301" on="0"/>
        <pt x="635" y="444" on="0"/>
        <pt x="614" y="537" on="0"/>
        <pt x="588" y="578" on="1"/>
        <pt x="534" y="665" on="0"/>
        <pt x="390" y="665" on="1"/>
        <pt x="139" y="665" on="0"/>
        <pt x="139" y="380" on="1"/>
        <pt x="139" y="321" on="0"/>
        <pt x="145" y="262" on="0"/>
        <pt x="174" y="187" on="0"/>
        <pt x="236" y="121" on="0"/>
        <pt x="291" y="78" on="1"/>
        <pt x="291" y="0" on="1"/>
        <pt x="71" y="0" on="1"/>
        <pt x="71" y="68" on="1"/>
        <pt x="204" y="78" on="1"/>
        <pt x="134" y="123" on="0"/>
        <pt x="106" y="172" on="1"/>
        <pt x="91" y="198" on="0"/>
        <pt x="73" y="240" on="0"/>
        <pt x="70" y="272" on="1"/>
        <pt x="65" y="312" on="0"/>
      </contour>
    </TTGlyph>
    <TTGlyph name="Oslash" xMin="65" yMin="-4" xMax="631" yMax="737">
      <contour>
        <pt x="114" y="642" on="1"/>
        <pt x="136" y="682" on="0"/>
        <pt x="214" y="725" on="0"/>
        <pt x="290" y="737" on="0"/>
        <pt x="348" y="737" on="1"/>
        <pt x="474" y="737" on="0"/>
        <pt x="528" y="700" on="1"/>
        <pt x="549" y="732" on="1"/>
        <pt x="610" y="732" on="1"/>
        <pt x="566" y="664" on="1"/>
        <pt x="631" y="580" on="0"/>
        <pt x="631" y="361" on="1"/>
        <pt x="631" y="181" on="0"/>
        <pt x="584" y="93" on="1"/>
        <pt x="562" y="53" on="0"/>
        <pt x="487" y="10" on="0"/>
        <pt x="407" y="-4" on="0"/>
        <pt x="348" y="-4" on="1"/>
        <pt x="218" y="-4" on="0"/>
        <pt x="162" y="34" on="1"/>
        <pt x="140" y="0" on="1"/>
        <pt x="79" y="0" on="1"/>
        <pt x="124" y="71" on="1"/>
        <pt x="65" y="151" on="0"/>
        <pt x="65" y="550" on="0"/>
      </contour>
      <contour>
        <pt x="170" y="142" on="1"/>
        <pt x="488" y="638" on="1"/>
        <pt x="460" y="659" on="0"/>
        <pt x="405" y="662" on="1"/>
        <pt x="386" y="663" on="0"/>
        <pt x="312" y="663" on="0"/>
        <pt x="276" y="661" on="0"/>
        <pt x="222" y="650" on="0"/>
        <pt x="196" y="627" on="0"/>
        <pt x="164" y="584" on="0"/>
        <pt x="156" y="552" on="1"/>
        <pt x="139" y="476" on="0"/>
        <pt x="139" y="203" on="0"/>
      </contour>
      <contour>
        <pt x="348" y="70" on="1"/>
        <pt x="411" y="70" on="0"/>
        <pt x="484" y="91" on="0"/>
        <pt x="537" y="154" on="0"/>
        <pt x="557" y="267" on="0"/>
        <pt x="557" y="361" on="1"/>
        <pt x="557" y="531" on="0"/>
        <pt x="523" y="596" on="1"/>
        <pt x="204" y="100" on="1"/>
        <pt x="245" y="70" on="0"/>
      </contour>
    </TTGlyph>
    <TTGlyph name="Otilde" xMin="65" yMin="-4" xMax="631" yMax="903">
      <contour>
        <pt x="406" y="867" on="1"/>
        <pt x="429" y="867" on="0"/>
        <pt x="496" y="903" on="1"/>
        <pt x="518" y="861" on="1"/>
        <pt x="515" y="859" on="0"/>
        <pt x="494" y="842" on="1"/>
        <pt x="440" y="798" on="0"/>
        <pt x="407" y="798" on="1"/>
        <pt x="377" y="798" on="0"/>
        <pt x="313" y="832" on="0"/>
        <pt x="276" y="832" on="0"/>
        <pt x="247" y="821" on="0"/>
        <pt x="214" y="802" on="0"/>
        <pt x="201" y="797" on="1"/>
        <pt x="180" y="838" on="1"/>
        <pt x="207" y="860" on="0"/>
        <pt x="234" y="881" on="0"/>
        <pt x="279" y="902" on="0"/>
        <pt x="326" y="900" on="0"/>
        <pt x="393" y="867" on="0"/>
        <pt x="406" y="867" on="0"/>
      </contour>
      <contour>
        <pt x="81" y="158" on="0"/>
        <pt x="65" y="279" on="0"/>
        <pt x="65" y="445" on="0"/>
        <pt x="83" y="570" on="0"/>
        <pt x="121" y="652" on="0"/>
        <pt x="166" y="703" on="0"/>
        <pt x="201" y="716" on="1"/>
        <pt x="258" y="737" on="0"/>
        <pt x="349" y="737" on="1"/>
        <pt x="480" y="737" on="0"/>
        <pt x="533" y="697" on="1"/>
        <pt x="584" y="658" on="0"/>
        <pt x="606" y="586" on="1"/>
        <pt x="631" y="498" on="0"/>
        <pt x="631" y="266" on="0"/>
        <pt x="606" y="133" on="0"/>
        <pt x="563" y="53" on="0"/>
        <pt x="488" y="10" on="0"/>
        <pt x="408" y="-4" on="0"/>
        <pt x="299" y="-4" on="0"/>
        <pt x="231" y="4" on="0"/>
        <pt x="161" y="29" on="0"/>
        <pt x="117" y="78" on="0"/>
      </contour>
      <contour>
        <pt x="145" y="490" on="0"/>
        <pt x="139" y="410" on="0"/>
        <pt x="139" y="264" on="0"/>
        <pt x="158" y="150" on="0"/>
        <pt x="213" y="88" on="0"/>
        <pt x="285" y="70" on="0"/>
        <pt x="399" y="70" on="0"/>
        <pt x="463" y="83" on="0"/>
        <pt x="515" y="118" on="0"/>
        <pt x="529" y="151" on="1"/>
        <pt x="557" y="217" on="0"/>
        <pt x="557" y="361" on="1"/>
        <pt x="557" y="518" on="0"/>
        <pt x="533" y="572" on="1"/>
        <pt x="523" y="595" on="0"/>
        <pt x="507" y="625" on="0"/>
        <pt x="475" y="646" on="0"/>
        <pt x="452" y="657" on="0"/>
        <pt x="407" y="662" on="0"/>
        <pt x="377" y="663" on="0"/>
        <pt x="321" y="663" on="0"/>
        <pt x="292" y="662" on="0"/>
        <pt x="247" y="657" on="0"/>
        <pt x="223" y="646" on="0"/>
        <pt x="191" y="625" on="0"/>
        <pt x="174" y="595" on="0"/>
        <pt x="154" y="550" on="0"/>
      </contour>
    </TTGlyph>
    <TTGlyph name="P" xMin="60" yMin="0" xMax="536" yMax="732">
      <contour>
        <pt x="60" y="0" on="1"/>
        <pt x="60" y="732" on="1"/>
        <pt x="361" y="732" on="1"/>
        <pt x="536" y="732" on="0"/>
        <pt x="536" y="520" on="1"/>
        <pt x="536" y="356" on="0"/>
        <pt x="454" y="316" on="1"/>
        <pt x="428" y="304" on="0"/>
        <pt x="388" y="298" on="0"/>
        <pt x="332" y="298" on="0"/>
        <pt x="138" y="316" on="0"/>
        <pt x="134" y="318" on="1"/>
        <pt x="134" y="0" on="1"/>
      </contour>
      <contour>
        <pt x="134" y="372" on="1"/>
        <pt x="361" y="372" on="1"/>
        <pt x="409" y="372" on="0"/>
        <pt x="461" y="430" on="0"/>
        <pt x="461" y="520" on="1"/>
        <pt x="459" y="613" on="0"/>
        <pt x="422" y="638" on="1"/>
        <pt x="395" y="657" on="0"/>
        <pt x="361" y="657" on="1"/>
        <pt x="134" y="657" on="1"/>
      </contour>
    </TTGlyph>
    <TTGlyph name="Q" xMin="65" yMin="-142" xMax="631" yMax="737">
      <contour>
        <pt x="81" y="158" on="0"/>
        <pt x="65" y="279" on="0"/>
        <pt x="65" y="462" on="0"/>
        <pt x="92" y="602" on="0"/>
        <pt x="136" y="682" on="0"/>
        <pt x="213" y="725" on="0"/>
        <pt x="289" y="737" on="0"/>
        <pt x="396" y="737" on="0"/>
        <pt x="462" y="729" on="0"/>
        <pt x="532" y="703" on="0"/>
        <pt x="577" y="652" on="0"/>
        <pt x="596" y="611" on="1"/>
        <pt x="631" y="532" on="0"/>
        <pt x="631" y="361" on="1"/>
        <pt x="631" y="181" on="0"/>
        <pt x="584" y="93" on="1"/>
        <pt x="562" y="53" on="0"/>
        <pt x="486" y="10" on="0"/>
        <pt x="406" y="-4" on="0"/>
        <pt x="297" y="-4" on="0"/>
        <pt x="229" y="4" on="0"/>
        <pt x="159" y="29" on="0"/>
        <pt x="117" y="78" on="0"/>
      </contour>
      <contour>
        <pt x="145" y="490" on="0"/>
        <pt x="139" y="410" on="0"/>
        <pt x="139" y="264" on="0"/>
        <pt x="158" y="150" on="0"/>
        <pt x="211" y="88" on="0"/>
        <pt x="283" y="70" on="0"/>
        <pt x="410" y="70" on="0"/>
        <pt x="483" y="91" on="0"/>
        <pt x="537" y="154" on="0"/>
        <pt x="557" y="267" on="0"/>
        <pt x="557" y="411" on="0"/>
        <pt x="551" y="490" on="0"/>
        <pt x="542" y="550" on="0"/>
        <pt x="523" y="595" on="0"/>
        <pt x="506" y="625" on="0"/>
        <pt x="474" y="646" on="0"/>
        <pt x="451" y="657" on="0"/>
        <pt x="405" y="662" on="0"/>
        <pt x="375" y="663" on="0"/>
        <pt x="319" y="663" on="0"/>
        <pt x="290" y="662" on="0"/>
        <pt x="245" y="657" on="0"/>
        <pt x="222" y="646" on="0"/>
        <pt x="190" y="625" on="0"/>
        <pt x="174" y="595" on="0"/>
        <pt x="154" y="550" on="0"/>
      </contour>
      <contour>
        <pt x="369" y="-33" on="1"/>
        <pt x="419" y="-68" on="0"/>
        <pt x="503" y="-68" on="0"/>
        <pt x="537" y="-53" on="1"/>
        <pt x="537" y="-133" on="1"/>
        <pt x="504" y="-142" on="0"/>
        <pt x="460" y="-142" on="0"/>
        <pt x="452" y="-142" on="1"/>
        <pt x="406" y="-139" on="0"/>
        <pt x="325" y="-80" on="0"/>
        <pt x="317" y="-33" on="1"/>
      </contour>
    </TTGlyph>
    <TTGlyph name="R" xMin="60" yMin="0" xMax="568" yMax="732">
      <contour>
        <pt x="60" y="0" on="1"/>
        <pt x="60" y="732" on="1"/>
        <pt x="372" y="732" on="1"/>
        <pt x="541" y="732" on="0"/>
        <pt x="541" y="512" on="1"/>
        <pt x="541" y="320" on="0"/>
        <pt x="414" y="302" on="1"/>
        <pt x="568" y="0" on="1"/>
        <pt x="488" y="0" on="1"/>
        <pt x="334" y="299" on="1"/>
        <pt x="134" y="313" on="1"/>
        <pt x="134" y="0" on="1"/>
      </contour>
      <contour>
        <pt x="134" y="379" on="1"/>
        <pt x="372" y="379" on="1"/>
        <pt x="431" y="379" on="0"/>
        <pt x="446" y="408" on="1"/>
        <pt x="466" y="443" on="0"/>
        <pt x="466" y="600" on="0"/>
        <pt x="414" y="657" on="0"/>
        <pt x="372" y="657" on="1"/>
        <pt x="134" y="657" on="1"/>
      </contour>
    </TTGlyph>
    <TTGlyph name="Racute" xMin="60" yMin="0" xMax="568" yMax="925">
      <contour>
        <pt x="256" y="792" on="1"/>
        <pt x="363" y="925" on="1"/>
        <pt x="458" y="925" on="1"/>
        <pt x="325" y="792" on="1"/>
      </contour>
      <contour>
        <pt x="60" y="0" on="1"/>
        <pt x="60" y="732" on="1"/>
        <pt x="372" y="732" on="1"/>
        <pt x="541" y="732" on="0"/>
        <pt x="541" y="512" on="1"/>
        <pt x="541" y="320" on="0"/>
        <pt x="414" y="302" on="1"/>
        <pt x="568" y="0" on="1"/>
        <pt x="488" y="0" on="1"/>
        <pt x="334" y="299" on="1"/>
        <pt x="134" y="313" on="1"/>
        <pt x="134" y="0" on="1"/>
      </contour>
      <contour>
        <pt x="134" y="379" on="1"/>
        <pt x="372" y="379" on="1"/>
        <pt x="431" y="379" on="0"/>
        <pt x="446" y="408" on="1"/>
        <pt x="466" y="443" on="0"/>
        <pt x="466" y="600" on="0"/>
        <pt x="414" y="657" on="0"/>
        <pt x="372" y="657" on="1"/>
        <pt x="134" y="657" on="1"/>
      </contour>
    </TTGlyph>
    <TTGlyph name="Rcaron" xMin="60" yMin="0" xMax="568" yMax="927">
      <contour>
        <pt x="141" y="927" on="1"/>
        <pt x="213" y="927" on="1"/>
        <pt x="293" y="856" on="1"/>
        <pt x="362" y="927" on="1"/>
        <pt x="433" y="927" on="1"/>
        <pt x="329" y="797" on="1"/>
        <pt x="258" y="797" on="1"/>
      </contour>
      <contour>
        <pt x="60" y="0" on="1"/>
        <pt x="60" y="732" on="1"/>
        <pt x="372" y="732" on="1"/>
        <pt x="541" y="732" on="0"/>
        <pt x="541" y="512" on="1"/>
        <pt x="541" y="320" on="0"/>
        <pt x="414" y="302" on="1"/>
        <pt x="568" y="0" on="1"/>
        <pt x="488" y="0" on="1"/>
        <pt x="334" y="299" on="1"/>
        <pt x="134" y="313" on="1"/>
        <pt x="134" y="0" on="1"/>
      </contour>
      <contour>
        <pt x="134" y="379" on="1"/>
        <pt x="372" y="379" on="1"/>
        <pt x="431" y="379" on="0"/>
        <pt x="446" y="408" on="1"/>
        <pt x="466" y="443" on="0"/>
        <pt x="466" y="600" on="0"/>
        <pt x="414" y="657" on="0"/>
        <pt x="372" y="657" on="1"/>
        <pt x="134" y="657" on="1"/>
      </contour>
    </TTGlyph>
    <TTGlyph name="Rcommaaccent" xMin="60" yMin="-246" xMax="568" yMax="732">
      <contour>
        <pt x="327" y="-231" on="0"/>
        <pt x="302" y="-242" on="0"/>
        <pt x="281" y="-246" on="0"/>
        <pt x="271" y="-246" on="0"/>
        <pt x="259" y="-244" on="1"/>
        <pt x="259" y="-215" on="1"/>
        <pt x="260" y="-215" on="0"/>
        <pt x="261" y="-215" on="1"/>
        <pt x="287" y="-215" on="0"/>
        <pt x="287" y="-188" on="1"/>
        <pt x="287" y="-165" on="1"/>
        <pt x="277" y="-165" on="1"/>
        <pt x="254" y="-165" on="0"/>
        <pt x="254" y="-142" on="1"/>
        <pt x="254" y="-94" on="1"/>
        <pt x="254" y="-70" on="0"/>
        <pt x="277" y="-70" on="1"/>
        <pt x="323" y="-70" on="1"/>
        <pt x="344" y="-70" on="0"/>
        <pt x="344" y="-94" on="1"/>
        <pt x="344" y="-175" on="1"/>
        <pt x="344" y="-199" on="0"/>
      </contour>
      <contour>
        <pt x="60" y="0" on="1"/>
        <pt x="60" y="732" on="1"/>
        <pt x="372" y="732" on="1"/>
        <pt x="541" y="732" on="0"/>
        <pt x="541" y="512" on="1"/>
        <pt x="541" y="320" on="0"/>
        <pt x="414" y="302" on="1"/>
        <pt x="568" y="0" on="1"/>
        <pt x="488" y="0" on="1"/>
        <pt x="334" y="299" on="1"/>
        <pt x="134" y="313" on="1"/>
        <pt x="134" y="0" on="1"/>
      </contour>
      <contour>
        <pt x="134" y="379" on="1"/>
        <pt x="372" y="379" on="1"/>
        <pt x="431" y="379" on="0"/>
        <pt x="446" y="408" on="1"/>
        <pt x="466" y="443" on="0"/>
        <pt x="466" y="600" on="0"/>
        <pt x="414" y="657" on="0"/>
        <pt x="372" y="657" on="1"/>
        <pt x="134" y="657" on="1"/>
      </contour>
    </TTGlyph>
    <TTGlyph name="S" xMin="65" yMin="-8" xMax="539" yMax="738">
      <contour>
        <pt x="65" y="494" on="1"/>
        <pt x="65" y="560" on="1"/>
        <pt x="65" y="661" on="0"/>
        <pt x="169" y="738" on="0"/>
        <pt x="331" y="738" on="0"/>
        <pt x="513" y="714" on="1"/>
        <pt x="513" y="654" on="1"/>
        <pt x="263" y="664" on="1"/>
        <pt x="255" y="664" on="0"/>
        <pt x="247" y="664" on="1"/>
        <pt x="196" y="664" on="0"/>
        <pt x="139" y="628" on="0"/>
        <pt x="139" y="560" on="1"/>
        <pt x="139" y="494" on="1"/>
        <pt x="139" y="432" on="0"/>
        <pt x="188" y="396" on="0"/>
        <pt x="241" y="396" on="1"/>
        <pt x="383" y="396" on="1"/>
        <pt x="539" y="396" on="0"/>
        <pt x="539" y="224" on="1"/>
        <pt x="539" y="156" on="1"/>
        <pt x="539" y="55" on="0"/>
        <pt x="474" y="20" on="1"/>
        <pt x="420" y="-8" on="0"/>
        <pt x="337" y="-8" on="1"/>
        <pt x="302" y="-8" on="0"/>
        <pt x="125" y="10" on="0"/>
        <pt x="87" y="17" on="1"/>
        <pt x="87" y="77" on="1"/>
        <pt x="197" y="66" on="0"/>
        <pt x="337" y="66" on="1"/>
        <pt x="465" y="66" on="0"/>
        <pt x="465" y="156" on="1"/>
        <pt x="465" y="224" on="1"/>
        <pt x="465" y="271" on="0"/>
        <pt x="429" y="322" on="0"/>
        <pt x="383" y="322" on="1"/>
        <pt x="243" y="322" on="1"/>
        <pt x="129" y="322" on="0"/>
        <pt x="94" y="377" on="1"/>
        <pt x="65" y="423" on="0"/>
      </contour>
    </TTGlyph>
    <TTGlyph name="Sacute" xMin="65" yMin="-8" xMax="539" yMax="931">
      <contour>
        <pt x="272" y="798" on="1"/>
        <pt x="379" y="931" on="1"/>
        <pt x="474" y="931" on="1"/>
        <pt x="341" y="798" on="1"/>
      </contour>
      <contour>
        <pt x="65" y="494" on="1"/>
        <pt x="65" y="560" on="1"/>
        <pt x="65" y="661" on="0"/>
        <pt x="169" y="738" on="0"/>
        <pt x="331" y="738" on="0"/>
        <pt x="513" y="714" on="1"/>
        <pt x="513" y="654" on="1"/>
        <pt x="263" y="664" on="1"/>
        <pt x="255" y="664" on="0"/>
        <pt x="247" y="664" on="1"/>
        <pt x="196" y="664" on="0"/>
        <pt x="139" y="628" on="0"/>
        <pt x="139" y="560" on="1"/>
        <pt x="139" y="494" on="1"/>
        <pt x="139" y="432" on="0"/>
        <pt x="188" y="396" on="0"/>
        <pt x="241" y="396" on="1"/>
        <pt x="383" y="396" on="1"/>
        <pt x="539" y="396" on="0"/>
        <pt x="539" y="224" on="1"/>
        <pt x="539" y="156" on="1"/>
        <pt x="539" y="55" on="0"/>
        <pt x="474" y="20" on="1"/>
        <pt x="420" y="-8" on="0"/>
        <pt x="337" y="-8" on="1"/>
        <pt x="302" y="-8" on="0"/>
        <pt x="125" y="10" on="0"/>
        <pt x="87" y="17" on="1"/>
        <pt x="87" y="77" on="1"/>
        <pt x="197" y="66" on="0"/>
        <pt x="337" y="66" on="1"/>
        <pt x="465" y="66" on="0"/>
        <pt x="465" y="156" on="1"/>
        <pt x="465" y="224" on="1"/>
        <pt x="465" y="271" on="0"/>
        <pt x="429" y="322" on="0"/>
        <pt x="383" y="322" on="1"/>
        <pt x="243" y="322" on="1"/>
        <pt x="129" y="322" on="0"/>
        <pt x="94" y="377" on="1"/>
        <pt x="65" y="423" on="0"/>
      </contour>
    </TTGlyph>
    <TTGlyph name="Scaron" xMin="65" yMin="-8" xMax="539" yMax="928">
      <contour>
        <pt x="159" y="928" on="1"/>
        <pt x="231" y="928" on="1"/>
        <pt x="311" y="857" on="1"/>
        <pt x="380" y="928" on="1"/>
        <pt x="451" y="928" on="1"/>
        <pt x="347" y="798" on="1"/>
        <pt x="276" y="798" on="1"/>
      </contour>
      <contour>
        <pt x="65" y="494" on="1"/>
        <pt x="65" y="560" on="1"/>
        <pt x="65" y="661" on="0"/>
        <pt x="169" y="738" on="0"/>
        <pt x="331" y="738" on="0"/>
        <pt x="513" y="714" on="1"/>
        <pt x="513" y="654" on="1"/>
        <pt x="263" y="664" on="1"/>
        <pt x="255" y="664" on="0"/>
        <pt x="247" y="664" on="1"/>
        <pt x="196" y="664" on="0"/>
        <pt x="139" y="628" on="0"/>
        <pt x="139" y="560" on="1"/>
        <pt x="139" y="494" on="1"/>
        <pt x="139" y="432" on="0"/>
        <pt x="188" y="396" on="0"/>
        <pt x="241" y="396" on="1"/>
        <pt x="383" y="396" on="1"/>
        <pt x="539" y="396" on="0"/>
        <pt x="539" y="224" on="1"/>
        <pt x="539" y="156" on="1"/>
        <pt x="539" y="55" on="0"/>
        <pt x="474" y="20" on="1"/>
        <pt x="420" y="-8" on="0"/>
        <pt x="337" y="-8" on="1"/>
        <pt x="302" y="-8" on="0"/>
        <pt x="125" y="10" on="0"/>
        <pt x="87" y="17" on="1"/>
        <pt x="87" y="77" on="1"/>
        <pt x="197" y="66" on="0"/>
        <pt x="337" y="66" on="1"/>
        <pt x="465" y="66" on="0"/>
        <pt x="465" y="156" on="1"/>
        <pt x="465" y="224" on="1"/>
        <pt x="465" y="271" on="0"/>
        <pt x="429" y="322" on="0"/>
        <pt x="383" y="322" on="1"/>
        <pt x="243" y="322" on="1"/>
        <pt x="129" y="322" on="0"/>
        <pt x="94" y="377" on="1"/>
        <pt x="65" y="423" on="0"/>
      </contour>
    </TTGlyph>
    <TTGlyph name="Scedilla" xMin="65" yMin="-181" xMax="539" yMax="738">
      <contour>
        <pt x="281" y="-45" on="1"/>
        <pt x="348" y="-45" on="1"/>
        <pt x="348" y="-123" on="0"/>
        <pt x="306" y="-181" on="0"/>
        <pt x="247" y="-181" on="1"/>
        <pt x="196" y="-181" on="1"/>
        <pt x="196" y="-144" on="1"/>
        <pt x="249" y="-129" on="1"/>
        <pt x="281" y="-115" on="0"/>
      </contour>
      <contour>
        <pt x="65" y="494" on="1"/>
        <pt x="65" y="560" on="1"/>
        <pt x="65" y="661" on="0"/>
        <pt x="169" y="738" on="0"/>
        <pt x="331" y="738" on="0"/>
        <pt x="513" y="714" on="1"/>
        <pt x="513" y="654" on="1"/>
        <pt x="263" y="664" on="1"/>
        <pt x="255" y="664" on="0"/>
        <pt x="247" y="664" on="1"/>
        <pt x="196" y="664" on="0"/>
        <pt x="139" y="628" on="0"/>
        <pt x="139" y="560" on="1"/>
        <pt x="139" y="494" on="1"/>
        <pt x="139" y="432" on="0"/>
        <pt x="188" y="396" on="0"/>
        <pt x="241" y="396" on="1"/>
        <pt x="383" y="396" on="1"/>
        <pt x="539" y="396" on="0"/>
        <pt x="539" y="224" on="1"/>
        <pt x="539" y="156" on="1"/>
        <pt x="539" y="55" on="0"/>
        <pt x="474" y="20" on="1"/>
        <pt x="420" y="-8" on="0"/>
        <pt x="337" y="-8" on="1"/>
        <pt x="302" y="-8" on="0"/>
        <pt x="125" y="10" on="0"/>
        <pt x="87" y="17" on="1"/>
        <pt x="87" y="77" on="1"/>
        <pt x="197" y="66" on="0"/>
        <pt x="337" y="66" on="1"/>
        <pt x="465" y="66" on="0"/>
        <pt x="465" y="156" on="1"/>
        <pt x="465" y="224" on="1"/>
        <pt x="465" y="271" on="0"/>
        <pt x="429" y="322" on="0"/>
        <pt x="383" y="322" on="1"/>
        <pt x="243" y="322" on="1"/>
        <pt x="129" y="322" on="0"/>
        <pt x="94" y="377" on="1"/>
        <pt x="65" y="423" on="0"/>
      </contour>
    </TTGlyph>
    <TTGlyph name="Scircumflex" xMin="65" yMin="-8" xMax="539" yMax="928">
      <contour>
        <pt x="167" y="798" on="1"/>
        <pt x="284" y="928" on="1"/>
        <pt x="355" y="928" on="1"/>
        <pt x="459" y="798" on="1"/>
        <pt x="388" y="798" on="1"/>
        <pt x="317" y="869" on="1"/>
        <pt x="239" y="798" on="1"/>
      </contour>
      <contour>
        <pt x="65" y="494" on="1"/>
        <pt x="65" y="560" on="1"/>
        <pt x="65" y="661" on="0"/>
        <pt x="169" y="738" on="0"/>
        <pt x="331" y="738" on="0"/>
        <pt x="513" y="714" on="1"/>
        <pt x="513" y="654" on="1"/>
        <pt x="263" y="664" on="1"/>
        <pt x="255" y="664" on="0"/>
        <pt x="247" y="664" on="1"/>
        <pt x="196" y="664" on="0"/>
        <pt x="139" y="628" on="0"/>
        <pt x="139" y="560" on="1"/>
        <pt x="139" y="494" on="1"/>
        <pt x="139" y="432" on="0"/>
        <pt x="188" y="396" on="0"/>
        <pt x="241" y="396" on="1"/>
        <pt x="383" y="396" on="1"/>
        <pt x="539" y="396" on="0"/>
        <pt x="539" y="224" on="1"/>
        <pt x="539" y="156" on="1"/>
        <pt x="539" y="55" on="0"/>
        <pt x="474" y="20" on="1"/>
        <pt x="420" y="-8" on="0"/>
        <pt x="337" y="-8" on="1"/>
        <pt x="302" y="-8" on="0"/>
        <pt x="125" y="10" on="0"/>
        <pt x="87" y="17" on="1"/>
        <pt x="87" y="77" on="1"/>
        <pt x="197" y="66" on="0"/>
        <pt x="337" y="66" on="1"/>
        <pt x="465" y="66" on="0"/>
        <pt x="465" y="156" on="1"/>
        <pt x="465" y="224" on="1"/>
        <pt x="465" y="271" on="0"/>
        <pt x="429" y="322" on="0"/>
        <pt x="383" y="322" on="1"/>
        <pt x="243" y="322" on="1"/>
        <pt x="129" y="322" on="0"/>
        <pt x="94" y="377" on="1"/>
        <pt x="65" y="423" on="0"/>
      </contour>
    </TTGlyph>
    <TTGlyph name="T" xMin="45" yMin="0" xMax="553" yMax="732">
      <contour>
        <pt x="45" y="658" on="1"/>
        <pt x="45" y="732" on="1"/>
        <pt x="553" y="732" on="1"/>
        <pt x="553" y="658" on="1"/>
        <pt x="333" y="658" on="1"/>
        <pt x="333" y="0" on="1"/>
        <pt x="259" y="0" on="1"/>
        <pt x="259" y="658" on="1"/>
      </contour>
    </TTGlyph>
    <TTGlyph name="Tbar" xMin="35" yMin="0" xMax="543" yMax="732">
      <contour>
        <pt x="35" y="658" on="1"/>
        <pt x="35" y="732" on="1"/>
        <pt x="543" y="732" on="1"/>
        <pt x="543" y="658" on="1"/>
        <pt x="323" y="658" on="1"/>
        <pt x="323" y="444" on="1"/>
        <pt x="443" y="444" on="1"/>
        <pt x="443" y="390" on="1"/>
        <pt x="323" y="390" on="1"/>
        <pt x="323" y="0" on="1"/>
        <pt x="249" y="0" on="1"/>
        <pt x="249" y="390" on="1"/>
        <pt x="129" y="390" on="1"/>
        <pt x="129" y="444" on="1"/>
        <pt x="249" y="444" on="1"/>
        <pt x="249" y="658" on="1"/>
      </contour>
    </TTGlyph>
    <TTGlyph name="Tcaron" xMin="45" yMin="0" xMax="553" yMax="927">
      <contour>
        <pt x="143" y="927" on="1"/>
        <pt x="215" y="927" on="1"/>
        <pt x="295" y="856" on="1"/>
        <pt x="364" y="927" on="1"/>
        <pt x="435" y="927" on="1"/>
        <pt x="331" y="797" on="1"/>
        <pt x="260" y="797" on="1"/>
      </contour>
      <contour>
        <pt x="45" y="658" on="1"/>
        <pt x="45" y="732" on="1"/>
        <pt x="553" y="732" on="1"/>
        <pt x="553" y="658" on="1"/>
        <pt x="333" y="658" on="1"/>
        <pt x="333" y="0" on="1"/>
        <pt x="259" y="0" on="1"/>
        <pt x="259" y="658" on="1"/>
      </contour>
    </TTGlyph>
    <TTGlyph name="Tcommaaccent" xMin="45" yMin="-185" xMax="553" yMax="732">
      <contour>
        <pt x="261" y="-49" on="1"/>
        <pt x="328" y="-49" on="1"/>
        <pt x="328" y="-127" on="0"/>
        <pt x="286" y="-185" on="0"/>
        <pt x="227" y="-185" on="1"/>
        <pt x="176" y="-185" on="1"/>
        <pt x="176" y="-148" on="1"/>
        <pt x="229" y="-133" on="1"/>
        <pt x="261" y="-119" on="0"/>
      </contour>
      <contour>
        <pt x="45" y="658" on="1"/>
        <pt x="45" y="732" on="1"/>
        <pt x="553" y="732" on="1"/>
        <pt x="553" y="658" on="1"/>
        <pt x="333" y="658" on="1"/>
        <pt x="333" y="0" on="1"/>
        <pt x="259" y="0" on="1"/>
        <pt x="259" y="658" on="1"/>
      </contour>
    </TTGlyph>
    <TTGlyph name="Thorn" xMin="60" yMin="0" xMax="507" yMax="729">
      <contour>
        <pt x="134" y="168" on="1"/>
        <pt x="134" y="0" on="1"/>
        <pt x="60" y="0" on="1"/>
        <pt x="60" y="729" on="1"/>
        <pt x="134" y="729" on="1"/>
        <pt x="134" y="588" on="1"/>
        <pt x="331" y="588" on="1"/>
        <pt x="507" y="586" on="0"/>
        <pt x="507" y="375" on="1"/>
        <pt x="507" y="215" on="0"/>
        <pt x="424" y="170" on="1"/>
        <pt x="399" y="156" on="0"/>
        <pt x="357" y="149" on="0"/>
        <pt x="340" y="149" on="1"/>
        <pt x="312" y="149" on="0"/>
        <pt x="232" y="149" on="0"/>
      </contour>
      <contour>
        <pt x="134" y="223" on="1"/>
        <pt x="331" y="223" on="1"/>
        <pt x="332" y="223" on="0"/>
        <pt x="334" y="223" on="1"/>
        <pt x="378" y="223" on="0"/>
        <pt x="432" y="286" on="0"/>
        <pt x="432" y="377" on="1"/>
        <pt x="430" y="471" on="0"/>
        <pt x="393" y="494" on="1"/>
        <pt x="364" y="513" on="0"/>
        <pt x="331" y="513" on="1"/>
        <pt x="134" y="513" on="1"/>
      </contour>
    </TTGlyph>
    <TTGlyph name="U" xMin="80" yMin="-5" xMax="617" yMax="732">
      <contour>
        <pt x="80" y="320" on="1"/>
        <pt x="80" y="732" on="1"/>
        <pt x="154" y="732" on="1"/>
        <pt x="154" y="320" on="1"/>
        <pt x="154" y="229" on="0"/>
        <pt x="177" y="122" on="0"/>
        <pt x="239" y="78" on="0"/>
        <pt x="289" y="69" on="0"/>
        <pt x="318" y="69" on="1"/>
        <pt x="318" y="69" on="0"/>
        <pt x="351" y="69" on="1"/>
        <pt x="422" y="69" on="0"/>
        <pt x="456" y="83" on="0"/>
        <pt x="486" y="100" on="0"/>
        <pt x="504" y="125" on="0"/>
        <pt x="524" y="163" on="0"/>
        <pt x="530" y="188" on="1"/>
        <pt x="542" y="243" on="0"/>
        <pt x="542" y="320" on="1"/>
        <pt x="542" y="732" on="1"/>
        <pt x="617" y="732" on="1"/>
        <pt x="617" y="320" on="1"/>
        <pt x="617" y="227" on="0"/>
        <pt x="582" y="98" on="0"/>
        <pt x="537" y="34" on="0"/>
        <pt x="454" y="0" on="0"/>
        <pt x="400" y="-5" on="0"/>
        <pt x="348" y="-5" on="0"/>
        <pt x="315" y="-5" on="0"/>
        <pt x="288" y="-4" on="0"/>
        <pt x="239" y="-1" on="0"/>
        <pt x="213" y="8" on="0"/>
        <pt x="172" y="23" on="0"/>
        <pt x="149" y="48" on="0"/>
        <pt x="119" y="82" on="0"/>
        <pt x="103" y="131" on="0"/>
        <pt x="95" y="162" on="1"/>
        <pt x="80" y="219" on="0"/>
      </contour>
    </TTGlyph>
    <TTGlyph name="Uacute" xMin="80" yMin="-5" xMax="617" yMax="930">
      <contour>
        <pt x="314" y="797" on="1"/>
        <pt x="421" y="930" on="1"/>
        <pt x="516" y="930" on="1"/>
        <pt x="383" y="797" on="1"/>
      </contour>
      <contour>
        <pt x="80" y="320" on="1"/>
        <pt x="80" y="732" on="1"/>
        <pt x="154" y="732" on="1"/>
        <pt x="154" y="320" on="1"/>
        <pt x="154" y="229" on="0"/>
        <pt x="177" y="122" on="0"/>
        <pt x="239" y="78" on="0"/>
        <pt x="289" y="69" on="0"/>
        <pt x="318" y="69" on="1"/>
        <pt x="318" y="69" on="0"/>
        <pt x="351" y="69" on="1"/>
        <pt x="422" y="69" on="0"/>
        <pt x="456" y="83" on="0"/>
        <pt x="486" y="100" on="0"/>
        <pt x="504" y="125" on="0"/>
        <pt x="524" y="163" on="0"/>
        <pt x="530" y="188" on="1"/>
        <pt x="542" y="243" on="0"/>
        <pt x="542" y="320" on="1"/>
        <pt x="542" y="732" on="1"/>
        <pt x="617" y="732" on="1"/>
        <pt x="617" y="320" on="1"/>
        <pt x="617" y="227" on="0"/>
        <pt x="582" y="98" on="0"/>
        <pt x="537" y="34" on="0"/>
        <pt x="454" y="0" on="0"/>
        <pt x="400" y="-5" on="0"/>
        <pt x="348" y="-5" on="0"/>
        <pt x="315" y="-5" on="0"/>
        <pt x="288" y="-4" on="0"/>
        <pt x="239" y="-1" on="0"/>
        <pt x="213" y="8" on="0"/>
        <pt x="172" y="23" on="0"/>
        <pt x="149" y="48" on="0"/>
        <pt x="119" y="82" on="0"/>
        <pt x="103" y="131" on="0"/>
        <pt x="95" y="162" on="1"/>
        <pt x="80" y="219" on="0"/>
      </contour>
    </TTGlyph>
    <TTGlyph name="Ubreve" xMin="80" yMin="-5" xMax="617" yMax="911">
      <contour>
        <pt x="234" y="911" on="1"/>
        <pt x="280" y="911" on="1"/>
        <pt x="280" y="883" on="0"/>
        <pt x="322" y="844" on="0"/>
        <pt x="377" y="844" on="0"/>
        <pt x="416" y="880" on="0"/>
        <pt x="416" y="911" on="1"/>
        <pt x="464" y="911" on="1"/>
        <pt x="464" y="856" on="0"/>
        <pt x="426" y="825" on="1"/>
        <pt x="391" y="797" on="0"/>
        <pt x="303" y="797" on="0"/>
        <pt x="234" y="860" on="0"/>
      </contour>
      <contour>
        <pt x="80" y="320" on="1"/>
        <pt x="80" y="732" on="1"/>
        <pt x="154" y="732" on="1"/>
        <pt x="154" y="320" on="1"/>
        <pt x="154" y="229" on="0"/>
        <pt x="177" y="122" on="0"/>
        <pt x="239" y="78" on="0"/>
        <pt x="289" y="69" on="0"/>
        <pt x="318" y="69" on="1"/>
        <pt x="351" y="69" on="1"/>
        <pt x="422" y="69" on="0"/>
        <pt x="456" y="83" on="0"/>
        <pt x="486" y="100" on="0"/>
        <pt x="504" y="125" on="0"/>
        <pt x="524" y="163" on="0"/>
        <pt x="530" y="188" on="1"/>
        <pt x="542" y="243" on="0"/>
        <pt x="542" y="320" on="1"/>
        <pt x="542" y="732" on="1"/>
        <pt x="617" y="732" on="1"/>
        <pt x="617" y="320" on="1"/>
        <pt x="617" y="227" on="0"/>
        <pt x="582" y="98" on="0"/>
        <pt x="537" y="34" on="0"/>
        <pt x="454" y="0" on="0"/>
        <pt x="400" y="-5" on="0"/>
        <pt x="348" y="-5" on="0"/>
        <pt x="315" y="-5" on="0"/>
        <pt x="288" y="-4" on="0"/>
        <pt x="239" y="-1" on="0"/>
        <pt x="213" y="8" on="0"/>
        <pt x="172" y="23" on="0"/>
        <pt x="149" y="48" on="0"/>
        <pt x="119" y="82" on="0"/>
        <pt x="103" y="131" on="0"/>
        <pt x="95" y="162" on="1"/>
        <pt x="80" y="219" on="0"/>
      </contour>
    </TTGlyph>
    <TTGlyph name="Ucircumflex" xMin="80" yMin="-5" xMax="617" yMax="927">
      <contour>
        <pt x="202" y="797" on="1"/>
        <pt x="320" y="927" on="1"/>
        <pt x="390" y="927" on="1"/>
        <pt x="494" y="797" on="1"/>
        <pt x="424" y="797" on="1"/>
        <pt x="352" y="868" on="1"/>
        <pt x="274" y="797" on="1"/>
      </contour>
      <contour>
        <pt x="80" y="320" on="1"/>
        <pt x="80" y="732" on="1"/>
        <pt x="154" y="732" on="1"/>
        <pt x="154" y="320" on="1"/>
        <pt x="154" y="229" on="0"/>
        <pt x="177" y="122" on="0"/>
        <pt x="239" y="78" on="0"/>
        <pt x="289" y="69" on="0"/>
        <pt x="318" y="69" on="1"/>
        <pt x="318" y="69" on="0"/>
        <pt x="351" y="69" on="1"/>
        <pt x="422" y="69" on="0"/>
        <pt x="456" y="83" on="0"/>
        <pt x="486" y="100" on="0"/>
        <pt x="504" y="125" on="0"/>
        <pt x="524" y="163" on="0"/>
        <pt x="530" y="188" on="1"/>
        <pt x="542" y="243" on="0"/>
        <pt x="542" y="320" on="1"/>
        <pt x="542" y="732" on="1"/>
        <pt x="617" y="732" on="1"/>
        <pt x="617" y="320" on="1"/>
        <pt x="617" y="227" on="0"/>
        <pt x="582" y="98" on="0"/>
        <pt x="537" y="34" on="0"/>
        <pt x="454" y="0" on="0"/>
        <pt x="400" y="-5" on="0"/>
        <pt x="348" y="-5" on="0"/>
        <pt x="315" y="-5" on="0"/>
        <pt x="288" y="-4" on="0"/>
        <pt x="239" y="-1" on="0"/>
        <pt x="213" y="8" on="0"/>
        <pt x="172" y="23" on="0"/>
        <pt x="149" y="48" on="0"/>
        <pt x="119" y="82" on="0"/>
        <pt x="103" y="131" on="0"/>
        <pt x="95" y="162" on="1"/>
        <pt x="80" y="219" on="0"/>
      </contour>
    </TTGlyph>
    <TTGlyph name="Udieresis" xMin="80" yMin="-5" xMax="617" yMax="898">
      <contour>
        <pt x="200" y="797" on="0"/>
        <pt x="170" y="827" on="0"/>
        <pt x="170" y="858" on="0"/>
        <pt x="179" y="877" on="0"/>
        <pt x="185" y="884" on="1"/>
        <pt x="200" y="898" on="0"/>
        <pt x="242" y="898" on="0"/>
        <pt x="272" y="869" on="0"/>
        <pt x="272" y="827" on="0"/>
        <pt x="242" y="797" on="0"/>
      </contour>
      <contour>
        <pt x="426" y="827" on="0"/>
        <pt x="426" y="869" on="0"/>
        <pt x="455" y="898" on="0"/>
        <pt x="498" y="898" on="0"/>
        <pt x="526" y="869" on="0"/>
        <pt x="526" y="827" on="0"/>
        <pt x="497" y="797" on="0"/>
        <pt x="456" y="797" on="0"/>
      </contour>
      <contour>
        <pt x="80" y="320" on="1"/>
        <pt x="80" y="732" on="1"/>
        <pt x="154" y="732" on="1"/>
        <pt x="154" y="320" on="1"/>
        <pt x="154" y="229" on="0"/>
        <pt x="177" y="122" on="0"/>
        <pt x="239" y="78" on="0"/>
        <pt x="289" y="69" on="0"/>
        <pt x="318" y="69" on="1"/>
        <pt x="351" y="69" on="1"/>
        <pt x="422" y="69" on="0"/>
        <pt x="456" y="83" on="0"/>
        <pt x="486" y="100" on="0"/>
        <pt x="504" y="125" on="0"/>
        <pt x="524" y="163" on="0"/>
        <pt x="530" y="188" on="1"/>
        <pt x="542" y="243" on="0"/>
        <pt x="542" y="320" on="1"/>
        <pt x="542" y="732" on="1"/>
        <pt x="617" y="732" on="1"/>
        <pt x="617" y="320" on="1"/>
        <pt x="617" y="227" on="0"/>
        <pt x="582" y="98" on="0"/>
        <pt x="537" y="34" on="0"/>
        <pt x="454" y="0" on="0"/>
        <pt x="400" y="-5" on="0"/>
        <pt x="348" y="-5" on="0"/>
        <pt x="315" y="-5" on="0"/>
        <pt x="288" y="-4" on="0"/>
        <pt x="239" y="-1" on="0"/>
        <pt x="213" y="8" on="0"/>
        <pt x="172" y="23" on="0"/>
        <pt x="149" y="48" on="0"/>
        <pt x="119" y="82" on="0"/>
        <pt x="103" y="131" on="0"/>
        <pt x="95" y="162" on="1"/>
        <pt x="80" y="219" on="0"/>
      </contour>
    </TTGlyph>
    <TTGlyph name="Ugrave" xMin="80" yMin="-5" xMax="617" yMax="930">
      <contour>
        <pt x="181" y="930" on="1"/>
        <pt x="276" y="930" on="1"/>
        <pt x="383" y="797" on="1"/>
        <pt x="314" y="797" on="1"/>
      </contour>
      <contour>
        <pt x="80" y="320" on="1"/>
        <pt x="80" y="732" on="1"/>
        <pt x="154" y="732" on="1"/>
        <pt x="154" y="320" on="1"/>
        <pt x="154" y="229" on="0"/>
        <pt x="177" y="122" on="0"/>
        <pt x="239" y="78" on="0"/>
        <pt x="289" y="69" on="0"/>
        <pt x="318" y="69" on="1"/>
        <pt x="318" y="69" on="0"/>
        <pt x="351" y="69" on="1"/>
        <pt x="422" y="69" on="0"/>
        <pt x="456" y="83" on="0"/>
        <pt x="486" y="100" on="0"/>
        <pt x="504" y="125" on="0"/>
        <pt x="524" y="163" on="0"/>
        <pt x="530" y="188" on="1"/>
        <pt x="542" y="243" on="0"/>
        <pt x="542" y="320" on="1"/>
        <pt x="542" y="732" on="1"/>
        <pt x="617" y="732" on="1"/>
        <pt x="617" y="320" on="1"/>
        <pt x="617" y="227" on="0"/>
        <pt x="582" y="98" on="0"/>
        <pt x="537" y="34" on="0"/>
        <pt x="454" y="0" on="0"/>
        <pt x="400" y="-5" on="0"/>
        <pt x="348" y="-5" on="0"/>
        <pt x="315" y="-5" on="0"/>
        <pt x="288" y="-4" on="0"/>
        <pt x="239" y="-1" on="0"/>
        <pt x="213" y="8" on="0"/>
        <pt x="172" y="23" on="0"/>
        <pt x="149" y="48" on="0"/>
        <pt x="119" y="82" on="0"/>
        <pt x="103" y="131" on="0"/>
        <pt x="95" y="162" on="1"/>
        <pt x="80" y="219" on="0"/>
      </contour>
    </TTGlyph>
    <TTGlyph name="Uhungarumlaut" xMin="80" yMin="-5" xMax="617" yMax="930">
      <contour>
        <pt x="246" y="797" on="1"/>
        <pt x="354" y="930" on="1"/>
        <pt x="448" y="930" on="1"/>
        <pt x="316" y="797" on="1"/>
      </contour>
      <contour>
        <pt x="382" y="797" on="1"/>
        <pt x="488" y="930" on="1"/>
        <pt x="584" y="930" on="1"/>
        <pt x="450" y="797" on="1"/>
      </contour>
      <contour>
        <pt x="80" y="320" on="1"/>
        <pt x="80" y="732" on="1"/>
        <pt x="154" y="732" on="1"/>
        <pt x="154" y="320" on="1"/>
        <pt x="154" y="229" on="0"/>
        <pt x="177" y="122" on="0"/>
        <pt x="239" y="78" on="0"/>
        <pt x="289" y="69" on="0"/>
        <pt x="318" y="69" on="1"/>
        <pt x="318" y="69" on="0"/>
        <pt x="351" y="69" on="1"/>
        <pt x="422" y="69" on="0"/>
        <pt x="456" y="83" on="0"/>
        <pt x="486" y="100" on="0"/>
        <pt x="504" y="125" on="0"/>
        <pt x="524" y="163" on="0"/>
        <pt x="530" y="188" on="1"/>
        <pt x="542" y="243" on="0"/>
        <pt x="542" y="320" on="1"/>
        <pt x="542" y="732" on="1"/>
        <pt x="617" y="732" on="1"/>
        <pt x="617" y="320" on="1"/>
        <pt x="617" y="227" on="0"/>
        <pt x="582" y="98" on="0"/>
        <pt x="537" y="34" on="0"/>
        <pt x="454" y="0" on="0"/>
        <pt x="400" y="-5" on="0"/>
        <pt x="348" y="-5" on="0"/>
        <pt x="315" y="-5" on="0"/>
        <pt x="288" y="-4" on="0"/>
        <pt x="239" y="-1" on="0"/>
        <pt x="213" y="8" on="0"/>
        <pt x="172" y="23" on="0"/>
        <pt x="149" y="48" on="0"/>
        <pt x="119" y="82" on="0"/>
        <pt x="103" y="131" on="0"/>
        <pt x="95" y="162" on="1"/>
        <pt x="80" y="219" on="0"/>
      </contour>
    </TTGlyph>
    <TTGlyph name="Umacron" xMin="80" yMin="-5" xMax="617" yMax="860">
      <contour>
        <pt x="202" y="797" on="1"/>
        <pt x="202" y="860" on="1"/>
        <pt x="494" y="860" on="1"/>
        <pt x="494" y="797" on="1"/>
      </contour>
      <contour>
        <pt x="80" y="320" on="1"/>
        <pt x="80" y="732" on="1"/>
        <pt x="154" y="732" on="1"/>
        <pt x="154" y="320" on="1"/>
        <pt x="154" y="229" on="0"/>
        <pt x="177" y="122" on="0"/>
        <pt x="239" y="78" on="0"/>
        <pt x="289" y="69" on="0"/>
        <pt x="318" y="69" on="1"/>
        <pt x="318" y="69" on="0"/>
        <pt x="351" y="69" on="1"/>
        <pt x="422" y="69" on="0"/>
        <pt x="456" y="83" on="0"/>
        <pt x="486" y="100" on="0"/>
        <pt x="504" y="125" on="0"/>
        <pt x="524" y="163" on="0"/>
        <pt x="530" y="188" on="1"/>
        <pt x="542" y="243" on="0"/>
        <pt x="542" y="320" on="1"/>
        <pt x="542" y="732" on="1"/>
        <pt x="617" y="732" on="1"/>
        <pt x="617" y="320" on="1"/>
        <pt x="617" y="227" on="0"/>
        <pt x="582" y="98" on="0"/>
        <pt x="537" y="34" on="0"/>
        <pt x="454" y="0" on="0"/>
        <pt x="400" y="-5" on="0"/>
        <pt x="348" y="-5" on="0"/>
        <pt x="315" y="-5" on="0"/>
        <pt x="288" y="-4" on="0"/>
        <pt x="239" y="-1" on="0"/>
        <pt x="213" y="8" on="0"/>
        <pt x="172" y="23" on="0"/>
        <pt x="149" y="48" on="0"/>
        <pt x="119" y="82" on="0"/>
        <pt x="103" y="131" on="0"/>
        <pt x="95" y="162" on="1"/>
        <pt x="80" y="219" on="0"/>
      </contour>
    </TTGlyph>
    <TTGlyph name="Uogonek" xMin="80" yMin="-187" xMax="617" yMax="732">
      <contour>
        <pt x="365" y="-4" on="1"/>
        <pt x="305" y="-52" on="0"/>
        <pt x="305" y="-87" on="1"/>
        <pt x="305" y="-99" on="0"/>
        <pt x="329" y="-124" on="0"/>
        <pt x="368" y="-125" on="1"/>
        <pt x="368" y="-185" on="1"/>
        <pt x="358" y="-187" on="0"/>
        <pt x="326" y="-187" on="0"/>
        <pt x="275" y="-168" on="0"/>
        <pt x="260" y="-146" on="1"/>
        <pt x="242" y="-121" on="0"/>
        <pt x="242" y="-72" on="0"/>
        <pt x="283" y="-22" on="0"/>
        <pt x="326" y="-4" on="1"/>
      </contour>
      <contour>
        <pt x="80" y="320" on="1"/>
        <pt x="80" y="732" on="1"/>
        <pt x="154" y="732" on="1"/>
        <pt x="154" y="320" on="1"/>
        <pt x="154" y="229" on="0"/>
        <pt x="177" y="122" on="0"/>
        <pt x="239" y="78" on="0"/>
        <pt x="289" y="69" on="0"/>
        <pt x="318" y="69" on="1"/>
        <pt x="351" y="69" on="1"/>
        <pt x="422" y="69" on="0"/>
        <pt x="456" y="83" on="0"/>
        <pt x="486" y="100" on="0"/>
        <pt x="504" y="125" on="0"/>
        <pt x="524" y="163" on="0"/>
        <pt x="530" y="188" on="1"/>
        <pt x="542" y="243" on="0"/>
        <pt x="542" y="320" on="1"/>
        <pt x="542" y="732" on="1"/>
        <pt x="617" y="732" on="1"/>
        <pt x="617" y="320" on="1"/>
        <pt x="617" y="227" on="0"/>
        <pt x="582" y="98" on="0"/>
        <pt x="537" y="34" on="0"/>
        <pt x="454" y="0" on="0"/>
        <pt x="400" y="-5" on="0"/>
        <pt x="348" y="-5" on="0"/>
        <pt x="315" y="-5" on="0"/>
        <pt x="288" y="-4" on="0"/>
        <pt x="239" y="-1" on="0"/>
        <pt x="213" y="8" on="0"/>
        <pt x="172" y="23" on="0"/>
        <pt x="149" y="48" on="0"/>
        <pt x="119" y="82" on="0"/>
        <pt x="103" y="131" on="0"/>
        <pt x="95" y="162" on="1"/>
        <pt x="80" y="219" on="0"/>
      </contour>
    </TTGlyph>
    <TTGlyph name="Uring" xMin="80" yMin="-5" xMax="617" yMax="1002">
      <contour>
        <pt x="247" y="856" on="0"/>
        <pt x="247" y="942" on="0"/>
        <pt x="307" y="1002" on="0"/>
        <pt x="391" y="1002" on="0"/>
        <pt x="450" y="942" on="0"/>
        <pt x="450" y="856" on="0"/>
        <pt x="391" y="797" on="0"/>
        <pt x="307" y="797" on="0"/>
      </contour>
      <contour>
        <pt x="326" y="954" on="0"/>
        <pt x="294" y="922" on="0"/>
        <pt x="294" y="877" on="0"/>
        <pt x="326" y="845" on="0"/>
        <pt x="372" y="845" on="0"/>
        <pt x="403" y="876" on="0"/>
        <pt x="403" y="922" on="0"/>
        <pt x="371" y="954" on="0"/>
      </contour>
      <contour>
        <pt x="80" y="320" on="1"/>
        <pt x="80" y="732" on="1"/>
        <pt x="154" y="732" on="1"/>
        <pt x="154" y="320" on="1"/>
        <pt x="154" y="229" on="0"/>
        <pt x="177" y="122" on="0"/>
        <pt x="239" y="78" on="0"/>
        <pt x="289" y="69" on="0"/>
        <pt x="318" y="69" on="1"/>
        <pt x="351" y="69" on="1"/>
        <pt x="422" y="69" on="0"/>
        <pt x="456" y="83" on="0"/>
        <pt x="486" y="100" on="0"/>
        <pt x="504" y="125" on="0"/>
        <pt x="524" y="163" on="0"/>
        <pt x="530" y="188" on="1"/>
        <pt x="542" y="243" on="0"/>
        <pt x="542" y="320" on="1"/>
        <pt x="542" y="732" on="1"/>
        <pt x="617" y="732" on="1"/>
        <pt x="617" y="320" on="1"/>
        <pt x="617" y="227" on="0"/>
        <pt x="582" y="98" on="0"/>
        <pt x="537" y="34" on="0"/>
        <pt x="454" y="0" on="0"/>
        <pt x="400" y="-5" on="0"/>
        <pt x="348" y="-5" on="0"/>
        <pt x="315" y="-5" on="0"/>
        <pt x="288" y="-4" on="0"/>
        <pt x="239" y="-1" on="0"/>
        <pt x="213" y="8" on="0"/>
        <pt x="172" y="23" on="0"/>
        <pt x="149" y="48" on="0"/>
        <pt x="119" y="82" on="0"/>
        <pt x="103" y="131" on="0"/>
        <pt x="95" y="162" on="1"/>
        <pt x="80" y="219" on="0"/>
      </contour>
    </TTGlyph>
    <TTGlyph name="Utilde" xMin="80" yMin="-5" xMax="617" yMax="898">
      <contour>
        <pt x="405" y="862" on="1"/>
        <pt x="428" y="862" on="0"/>
        <pt x="495" y="898" on="1"/>
        <pt x="517" y="856" on="1"/>
        <pt x="514" y="854" on="0"/>
        <pt x="492" y="836" on="1"/>
        <pt x="439" y="793" on="0"/>
        <pt x="406" y="793" on="1"/>
        <pt x="376" y="793" on="0"/>
        <pt x="312" y="827" on="0"/>
        <pt x="275" y="827" on="0"/>
        <pt x="246" y="816" on="0"/>
        <pt x="213" y="797" on="0"/>
        <pt x="200" y="792" on="1"/>
        <pt x="179" y="833" on="1"/>
        <pt x="206" y="855" on="0"/>
        <pt x="233" y="876" on="0"/>
        <pt x="278" y="897" on="0"/>
        <pt x="325" y="895" on="0"/>
        <pt x="392" y="862" on="0"/>
        <pt x="405" y="862" on="0"/>
      </contour>
      <contour>
        <pt x="80" y="320" on="1"/>
        <pt x="80" y="732" on="1"/>
        <pt x="154" y="732" on="1"/>
        <pt x="154" y="320" on="1"/>
        <pt x="154" y="229" on="0"/>
        <pt x="177" y="122" on="0"/>
        <pt x="239" y="78" on="0"/>
        <pt x="289" y="69" on="0"/>
        <pt x="318" y="69" on="1"/>
        <pt x="351" y="69" on="1"/>
        <pt x="422" y="69" on="0"/>
        <pt x="456" y="83" on="0"/>
        <pt x="486" y="100" on="0"/>
        <pt x="504" y="125" on="0"/>
        <pt x="524" y="163" on="0"/>
        <pt x="530" y="188" on="1"/>
        <pt x="542" y="243" on="0"/>
        <pt x="542" y="320" on="1"/>
        <pt x="542" y="732" on="1"/>
        <pt x="617" y="732" on="1"/>
        <pt x="617" y="320" on="1"/>
        <pt x="617" y="227" on="0"/>
        <pt x="582" y="98" on="0"/>
        <pt x="537" y="34" on="0"/>
        <pt x="454" y="0" on="0"/>
        <pt x="400" y="-5" on="0"/>
        <pt x="348" y="-5" on="0"/>
        <pt x="315" y="-5" on="0"/>
        <pt x="288" y="-4" on="0"/>
        <pt x="239" y="-1" on="0"/>
        <pt x="213" y="8" on="0"/>
        <pt x="172" y="23" on="0"/>
        <pt x="149" y="48" on="0"/>
        <pt x="119" y="82" on="0"/>
        <pt x="103" y="131" on="0"/>
        <pt x="95" y="162" on="1"/>
        <pt x="80" y="219" on="0"/>
      </contour>
    </TTGlyph>
    <TTGlyph name="V" xMin="45" yMin="0" xMax="645" yMax="732">
      <contour>
        <pt x="45" y="732" on="1"/>
        <pt x="126" y="732" on="1"/>
        <pt x="340" y="118" on="1"/>
        <pt x="564" y="732" on="1"/>
        <pt x="645" y="732" on="1"/>
        <pt x="376" y="0" on="1"/>
        <pt x="302" y="0" on="1"/>
      </contour>
    </TTGlyph>
    <TTGlyph name="W" xMin="45" yMin="0" xMax="937" yMax="732">
      <contour>
        <pt x="45" y="732" on="1"/>
        <pt x="126" y="732" on="1"/>
        <pt x="339" y="129" on="1"/>
        <pt x="520" y="732" on="1"/>
        <pt x="604" y="732" on="1"/>
        <pt x="536" y="498" on="1"/>
        <pt x="669" y="123" on="1"/>
        <pt x="856" y="732" on="1"/>
        <pt x="937" y="732" on="1"/>
        <pt x="708" y="0" on="1"/>
        <pt x="634" y="0" on="1"/>
        <pt x="497" y="374" on="1"/>
        <pt x="376" y="0" on="1"/>
        <pt x="302" y="0" on="1"/>
      </contour>
    </TTGlyph>
    <TTGlyph name="Wacute" xMin="45" yMin="0" xMax="937" yMax="925">
      <contour>
        <pt x="467" y="792" on="1"/>
        <pt x="574" y="925" on="1"/>
        <pt x="669" y="925" on="1"/>
        <pt x="536" y="792" on="1"/>
      </contour>
      <contour>
        <pt x="45" y="732" on="1"/>
        <pt x="126" y="732" on="1"/>
        <pt x="339" y="129" on="1"/>
        <pt x="520" y="732" on="1"/>
        <pt x="604" y="732" on="1"/>
        <pt x="536" y="498" on="1"/>
        <pt x="669" y="123" on="1"/>
        <pt x="856" y="732" on="1"/>
        <pt x="937" y="732" on="1"/>
        <pt x="708" y="0" on="1"/>
        <pt x="634" y="0" on="1"/>
        <pt x="497" y="374" on="1"/>
        <pt x="376" y="0" on="1"/>
        <pt x="302" y="0" on="1"/>
      </contour>
    </TTGlyph>
    <TTGlyph name="Wcircumflex" xMin="45" yMin="0" xMax="937" yMax="922">
      <contour>
        <pt x="355" y="792" on="1"/>
        <pt x="472" y="922" on="1"/>
        <pt x="543" y="922" on="1"/>
        <pt x="647" y="792" on="1"/>
        <pt x="576" y="792" on="1"/>
        <pt x="505" y="863" on="1"/>
        <pt x="427" y="792" on="1"/>
      </contour>
      <contour>
        <pt x="45" y="732" on="1"/>
        <pt x="126" y="732" on="1"/>
        <pt x="339" y="129" on="1"/>
        <pt x="520" y="732" on="1"/>
        <pt x="604" y="732" on="1"/>
        <pt x="536" y="498" on="1"/>
        <pt x="669" y="123" on="1"/>
        <pt x="856" y="732" on="1"/>
        <pt x="937" y="732" on="1"/>
        <pt x="708" y="0" on="1"/>
        <pt x="634" y="0" on="1"/>
        <pt x="497" y="374" on="1"/>
        <pt x="376" y="0" on="1"/>
        <pt x="302" y="0" on="1"/>
      </contour>
    </TTGlyph>
    <TTGlyph name="Wdieresis" xMin="45" yMin="0" xMax="937" yMax="893">
      <contour>
        <pt x="323" y="822" on="0"/>
        <pt x="323" y="864" on="0"/>
        <pt x="353" y="893" on="0"/>
        <pt x="395" y="893" on="0"/>
        <pt x="424" y="864" on="0"/>
        <pt x="424" y="822" on="0"/>
        <pt x="395" y="792" on="0"/>
        <pt x="353" y="792" on="0"/>
      </contour>
      <contour>
        <pt x="578" y="822" on="0"/>
        <pt x="578" y="864" on="0"/>
        <pt x="608" y="893" on="0"/>
        <pt x="650" y="893" on="0"/>
        <pt x="679" y="864" on="0"/>
        <pt x="679" y="822" on="0"/>
        <pt x="650" y="792" on="0"/>
        <pt x="608" y="792" on="0"/>
      </contour>
      <contour>
        <pt x="45" y="732" on="1"/>
        <pt x="126" y="732" on="1"/>
        <pt x="339" y="129" on="1"/>
        <pt x="520" y="732" on="1"/>
        <pt x="604" y="732" on="1"/>
        <pt x="536" y="498" on="1"/>
        <pt x="669" y="123" on="1"/>
        <pt x="856" y="732" on="1"/>
        <pt x="937" y="732" on="1"/>
        <pt x="708" y="0" on="1"/>
        <pt x="634" y="0" on="1"/>
        <pt x="497" y="374" on="1"/>
        <pt x="376" y="0" on="1"/>
        <pt x="302" y="0" on="1"/>
      </contour>
    </TTGlyph>
    <TTGlyph name="Wgrave" xMin="45" yMin="0" xMax="937" yMax="925">
      <contour>
        <pt x="333" y="925" on="1"/>
        <pt x="428" y="925" on="1"/>
        <pt x="535" y="792" on="1"/>
        <pt x="466" y="792" on="1"/>
      </contour>
      <contour>
        <pt x="45" y="732" on="1"/>
        <pt x="126" y="732" on="1"/>
        <pt x="339" y="129" on="1"/>
        <pt x="520" y="732" on="1"/>
        <pt x="604" y="732" on="1"/>
        <pt x="536" y="498" on="1"/>
        <pt x="669" y="123" on="1"/>
        <pt x="856" y="732" on="1"/>
        <pt x="937" y="732" on="1"/>
        <pt x="708" y="0" on="1"/>
        <pt x="634" y="0" on="1"/>
        <pt x="497" y="374" on="1"/>
        <pt x="376" y="0" on="1"/>
        <pt x="302" y="0" on="1"/>
      </contour>
    </TTGlyph>
    <TTGlyph name="X" xMin="45" yMin="0" xMax="571" yMax="732">
      <contour>
        <pt x="45" y="732" on="1"/>
        <pt x="126" y="732" on="1"/>
        <pt x="306" y="425" on="1"/>
        <pt x="490" y="732" on="1"/>
        <pt x="571" y="732" on="1"/>
        <pt x="355" y="371" on="1"/>
        <pt x="566" y="0" on="1"/>
        <pt x="485" y="0" on="1"/>
        <pt x="306" y="308" on="1"/>
        <pt x="129" y="0" on="1"/>
        <pt x="48" y="0" on="1"/>
        <pt x="257" y="371" on="1"/>
      </contour>
    </TTGlyph>
    <TTGlyph name="X.salt" xMin="20" yMin="0" xMax="592" yMax="732">
      <contour>
        <pt x="198" y="305" on="1"/>
        <pt x="216" y="335" on="0"/>
        <pt x="220" y="366" on="0"/>
        <pt x="220" y="378" on="1"/>
        <pt x="220" y="404" on="0"/>
        <pt x="188" y="457" on="1"/>
        <pt x="20" y="732" on="1"/>
        <pt x="104" y="732" on="1"/>
        <pt x="254" y="487" on="1"/>
        <pt x="295" y="419" on="0"/>
        <pt x="295" y="320" on="0"/>
        <pt x="274" y="284" on="1"/>
        <pt x="104" y="0" on="1"/>
        <pt x="20" y="0" on="1"/>
      </contour>
      <contour>
        <pt x="338" y="284" on="1"/>
        <pt x="317" y="320" on="0"/>
        <pt x="317" y="419" on="0"/>
        <pt x="358" y="487" on="1"/>
        <pt x="508" y="732" on="1"/>
        <pt x="592" y="732" on="1"/>
        <pt x="424" y="457" on="1"/>
        <pt x="392" y="404" on="0"/>
        <pt x="392" y="373" on="1"/>
        <pt x="392" y="366" on="0"/>
        <pt x="396" y="335" on="0"/>
        <pt x="414" y="305" on="1"/>
        <pt x="592" y="0" on="1"/>
        <pt x="508" y="0" on="1"/>
      </contour>
    </TTGlyph>
    <TTGlyph name="Y" xMin="45" yMin="0" xMax="605" yMax="732">
      <contour>
        <pt x="352" y="0" on="1"/>
        <pt x="278" y="0" on="1"/>
        <pt x="278" y="260" on="1"/>
        <pt x="45" y="732" on="1"/>
        <pt x="126" y="732" on="1"/>
        <pt x="315" y="348" on="1"/>
        <pt x="524" y="732" on="1"/>
        <pt x="605" y="732" on="1"/>
        <pt x="352" y="260" on="1"/>
      </contour>
    </TTGlyph>
    <TTGlyph name="Yacute" xMin="45" yMin="0" xMax="605" yMax="930">
      <contour>
        <pt x="290" y="797" on="1"/>
        <pt x="398" y="930" on="1"/>
        <pt x="492" y="930" on="1"/>
        <pt x="360" y="797" on="1"/>
      </contour>
      <contour>
        <pt x="352" y="0" on="1"/>
        <pt x="278" y="0" on="1"/>
        <pt x="278" y="260" on="1"/>
        <pt x="45" y="732" on="1"/>
        <pt x="126" y="732" on="1"/>
        <pt x="315" y="348" on="1"/>
        <pt x="524" y="732" on="1"/>
        <pt x="605" y="732" on="1"/>
        <pt x="352" y="260" on="1"/>
      </contour>
    </TTGlyph>
    <TTGlyph name="Ycircumflex" xMin="45" yMin="0" xMax="605" yMax="922">
      <contour>
        <pt x="169" y="792" on="1"/>
        <pt x="286" y="922" on="1"/>
        <pt x="357" y="922" on="1"/>
        <pt x="461" y="792" on="1"/>
        <pt x="390" y="792" on="1"/>
        <pt x="319" y="863" on="1"/>
        <pt x="241" y="792" on="1"/>
      </contour>
      <contour>
        <pt x="352" y="0" on="1"/>
        <pt x="278" y="0" on="1"/>
        <pt x="278" y="260" on="1"/>
        <pt x="45" y="732" on="1"/>
        <pt x="126" y="732" on="1"/>
        <pt x="315" y="348" on="1"/>
        <pt x="524" y="732" on="1"/>
        <pt x="605" y="732" on="1"/>
        <pt x="352" y="260" on="1"/>
      </contour>
    </TTGlyph>
    <TTGlyph name="Ydieresis" xMin="45" yMin="0" xMax="605" yMax="898">
      <contour>
        <pt x="147" y="827" on="0"/>
        <pt x="147" y="869" on="0"/>
        <pt x="177" y="898" on="0"/>
        <pt x="219" y="898" on="0"/>
        <pt x="248" y="869" on="0"/>
        <pt x="248" y="827" on="0"/>
        <pt x="219" y="797" on="0"/>
        <pt x="177" y="797" on="0"/>
      </contour>
      <contour>
        <pt x="402" y="827" on="0"/>
        <pt x="402" y="869" on="0"/>
        <pt x="432" y="898" on="0"/>
        <pt x="474" y="898" on="0"/>
        <pt x="503" y="869" on="0"/>
        <pt x="503" y="827" on="0"/>
        <pt x="474" y="797" on="0"/>
        <pt x="432" y="797" on="0"/>
      </contour>
      <contour>
        <pt x="352" y="0" on="1"/>
        <pt x="278" y="0" on="1"/>
        <pt x="278" y="260" on="1"/>
        <pt x="45" y="732" on="1"/>
        <pt x="126" y="732" on="1"/>
        <pt x="315" y="348" on="1"/>
        <pt x="524" y="732" on="1"/>
        <pt x="605" y="732" on="1"/>
        <pt x="352" y="260" on="1"/>
      </contour>
    </TTGlyph>
    <TTGlyph name="Ygrave" xMin="45" yMin="0" xMax="605" yMax="930">
      <contour>
        <pt x="158" y="930" on="1"/>
        <pt x="252" y="930" on="1"/>
        <pt x="360" y="797" on="1"/>
        <pt x="290" y="797" on="1"/>
      </contour>
      <contour>
        <pt x="352" y="0" on="1"/>
        <pt x="278" y="0" on="1"/>
        <pt x="278" y="260" on="1"/>
        <pt x="45" y="732" on="1"/>
        <pt x="126" y="732" on="1"/>
        <pt x="315" y="348" on="1"/>
        <pt x="524" y="732" on="1"/>
        <pt x="605" y="732" on="1"/>
        <pt x="352" y="260" on="1"/>
      </contour>
    </TTGlyph>
    <TTGlyph name="Z" xMin="35" yMin="0" xMax="528" yMax="732">
      <contour>
        <pt x="35" y="0" on="1"/>
        <pt x="35" y="74" on="1"/>
        <pt x="431" y="658" on="1"/>
        <pt x="35" y="658" on="1"/>
        <pt x="35" y="732" on="1"/>
        <pt x="528" y="732" on="1"/>
        <pt x="528" y="658" on="1"/>
        <pt x="132" y="74" on="1"/>
        <pt x="528" y="74" on="1"/>
        <pt x="528" y="0" on="1"/>
      </contour>
    </TTGlyph>
    <TTGlyph name="Zacute" xMin="35" yMin="0" xMax="528" yMax="930">
      <contour>
        <pt x="247" y="797" on="1"/>
        <pt x="354" y="930" on="1"/>
        <pt x="449" y="930" on="1"/>
        <pt x="316" y="797" on="1"/>
      </contour>
      <contour>
        <pt x="35" y="0" on="1"/>
        <pt x="35" y="74" on="1"/>
        <pt x="431" y="658" on="1"/>
        <pt x="35" y="658" on="1"/>
        <pt x="35" y="732" on="1"/>
        <pt x="528" y="732" on="1"/>
        <pt x="528" y="658" on="1"/>
        <pt x="132" y="74" on="1"/>
        <pt x="528" y="74" on="1"/>
        <pt x="528" y="0" on="1"/>
      </contour>
    </TTGlyph>
    <TTGlyph name="Zcaron" xMin="35" yMin="0" xMax="528" yMax="927">
      <contour>
        <pt x="136" y="927" on="1"/>
        <pt x="208" y="927" on="1"/>
        <pt x="288" y="856" on="1"/>
        <pt x="356" y="927" on="1"/>
        <pt x="428" y="927" on="1"/>
        <pt x="324" y="797" on="1"/>
        <pt x="252" y="797" on="1"/>
      </contour>
      <contour>
        <pt x="35" y="0" on="1"/>
        <pt x="35" y="74" on="1"/>
        <pt x="431" y="658" on="1"/>
        <pt x="35" y="658" on="1"/>
        <pt x="35" y="732" on="1"/>
        <pt x="528" y="732" on="1"/>
        <pt x="528" y="658" on="1"/>
        <pt x="132" y="74" on="1"/>
        <pt x="528" y="74" on="1"/>
        <pt x="528" y="0" on="1"/>
      </contour>
    </TTGlyph>
    <TTGlyph name="Zdotaccent" xMin="35" yMin="0" xMax="528" yMax="899">
      <contour>
        <pt x="233" y="820" on="1"/>
        <pt x="233" y="874" on="1"/>
        <pt x="233" y="899" on="0"/>
        <pt x="257" y="899" on="1"/>
        <pt x="307" y="899" on="1"/>
        <pt x="330" y="899" on="0"/>
        <pt x="330" y="874" on="1"/>
        <pt x="330" y="820" on="1"/>
        <pt x="330" y="797" on="0"/>
        <pt x="307" y="797" on="1"/>
        <pt x="257" y="797" on="1"/>
        <pt x="233" y="797" on="0"/>
      </contour>
      <contour>
        <pt x="35" y="0" on="1"/>
        <pt x="35" y="74" on="1"/>
        <pt x="431" y="658" on="1"/>
        <pt x="35" y="658" on="1"/>
        <pt x="35" y="732" on="1"/>
        <pt x="528" y="732" on="1"/>
        <pt x="528" y="658" on="1"/>
        <pt x="132" y="74" on="1"/>
        <pt x="528" y="74" on="1"/>
        <pt x="528" y="0" on="1"/>
      </contour>
    </TTGlyph>
    <TTGlyph name="a" xMin="40" yMin="-6" xMax="469" yMax="542">
      <contour>
        <pt x="57" y="511" on="1"/>
        <pt x="165" y="541" on="0"/>
        <pt x="319" y="541" on="1"/>
        <pt x="384" y="541" on="0"/>
        <pt x="469" y="465" on="0"/>
        <pt x="469" y="387" on="1"/>
        <pt x="469" y="0" on="1"/>
        <pt x="414" y="0" on="1"/>
        <pt x="395" y="64" on="1"/>
        <pt x="380" y="57" on="1"/>
        <pt x="250" y="-6" on="0"/>
        <pt x="173" y="-6" on="1"/>
        <pt x="116" y="-6" on="0"/>
        <pt x="40" y="64" on="0"/>
        <pt x="40" y="126" on="1"/>
        <pt x="40" y="187" on="1"/>
        <pt x="40" y="248" on="0"/>
        <pt x="111" y="320" on="0"/>
        <pt x="173" y="320" on="1"/>
        <pt x="284" y="320" on="0"/>
        <pt x="395" y="320" on="0"/>
        <pt x="395" y="320" on="1"/>
        <pt x="396" y="353" on="0"/>
        <pt x="396" y="386" on="0"/>
        <pt x="395" y="387" on="1"/>
        <pt x="395" y="469" on="0"/>
        <pt x="223" y="469" on="0"/>
        <pt x="57" y="457" on="1"/>
      </contour>
      <contour>
        <pt x="114" y="131" on="1"/>
        <pt x="114" y="68" on="0"/>
        <pt x="173" y="68" on="1"/>
        <pt x="209" y="68" on="0"/>
        <pt x="320" y="94" on="0"/>
        <pt x="358" y="106" on="1"/>
        <pt x="395" y="119" on="1"/>
        <pt x="395" y="262" on="1"/>
        <pt x="173" y="246" on="1"/>
        <pt x="143" y="243" on="0"/>
        <pt x="114" y="207" on="0"/>
        <pt x="114" y="181" on="1"/>
      </contour>
    </TTGlyph>
    <TTGlyph name="a.salt" xMin="50" yMin="0" xMax="486" yMax="537">
      <contour>
        <pt x="50" y="131" on="1"/>
        <pt x="50" y="195" on="1"/>
        <pt x="50" y="317" on="0"/>
        <pt x="187" y="317" on="1"/>
        <pt x="412" y="317" on="1"/>
        <pt x="412" y="407" on="0"/>
        <pt x="368" y="463" on="0"/>
        <pt x="311" y="463" on="1"/>
        <pt x="295" y="463" on="0"/>
        <pt x="61" y="451" on="1"/>
        <pt x="61" y="507" on="1"/>
        <pt x="75" y="509" on="0"/>
        <pt x="130" y="519" on="1"/>
        <pt x="228" y="537" on="0"/>
        <pt x="310" y="537" on="1"/>
        <pt x="414" y="536" on="0"/>
        <pt x="486" y="420" on="0"/>
        <pt x="486" y="262" on="1"/>
        <pt x="486" y="156" on="1"/>
        <pt x="486" y="0" on="0"/>
        <pt x="331" y="0" on="1"/>
        <pt x="187" y="0" on="1"/>
        <pt x="50" y="0" on="0"/>
      </contour>
      <contour>
        <pt x="124" y="131" on="1"/>
        <pt x="124" y="103" on="0"/>
        <pt x="148" y="74" on="0"/>
        <pt x="187" y="74" on="1"/>
        <pt x="331" y="74" on="1"/>
        <pt x="383" y="74" on="0"/>
        <pt x="412" y="114" on="0"/>
        <pt x="412" y="156" on="1"/>
        <pt x="412" y="260" on="1"/>
        <pt x="187" y="244" on="1"/>
        <pt x="154" y="242" on="0"/>
        <pt x="124" y="219" on="0"/>
        <pt x="124" y="195" on="1"/>
      </contour>
    </TTGlyph>
    <TTGlyph name="a.smcp" xMin="35" yMin="0" xMax="556" yMax="570">
      <contour>
        <pt x="35" y="0" on="1"/>
        <pt x="268" y="570" on="1"/>
        <pt x="342" y="570" on="1"/>
        <pt x="556" y="0" on="1"/>
        <pt x="475" y="0" on="1"/>
        <pt x="415" y="152" on="1"/>
        <pt x="180" y="152" on="1"/>
        <pt x="116" y="0" on="1"/>
      </contour>
      <contour>
        <pt x="210" y="226" on="1"/>
        <pt x="390" y="226" on="1"/>
        <pt x="304" y="464" on="1"/>
      </contour>
    </TTGlyph>
    <TTGlyph name="a.superior" xMin="31" yMin="374" xMax="333" yMax="740">
      <contour>
        <pt x="31" y="463" on="1"/>
        <pt x="31" y="509" on="1"/>
        <pt x="31" y="550" on="0"/>
        <pt x="85" y="599" on="0"/>
        <pt x="131" y="599" on="1"/>
        <pt x="271" y="599" on="0"/>
        <pt x="271" y="600" on="1"/>
        <pt x="272" y="630" on="0"/>
        <pt x="271" y="631" on="1"/>
        <pt x="271" y="681" on="0"/>
        <pt x="148" y="681" on="0"/>
        <pt x="43" y="674" on="1"/>
        <pt x="43" y="716" on="1"/>
        <pt x="112" y="735" on="0"/>
        <pt x="218" y="739" on="1"/>
        <pt x="220" y="739" on="0"/>
        <pt x="222" y="739" on="1"/>
        <pt x="269" y="739" on="0"/>
        <pt x="333" y="688" on="0"/>
        <pt x="333" y="636" on="1"/>
        <pt x="333" y="378" on="1"/>
        <pt x="293" y="378" on="1"/>
        <pt x="272" y="427" on="1"/>
        <pt x="262" y="422" on="1"/>
        <pt x="180" y="374" on="0"/>
        <pt x="90" y="374" on="0"/>
        <pt x="31" y="421" on="0"/>
      </contour>
      <contour>
        <pt x="93" y="476" on="1"/>
        <pt x="93" y="436" on="0"/>
        <pt x="137" y="436" on="1"/>
        <pt x="189" y="436" on="0"/>
        <pt x="251" y="462" on="1"/>
        <pt x="271" y="471" on="1"/>
        <pt x="271" y="557" on="1"/>
        <pt x="137" y="544" on="1"/>
        <pt x="93" y="540" on="0"/>
        <pt x="93" y="503" on="1"/>
      </contour>
    </TTGlyph>
    <TTGlyph name="aacute" xMin="40" yMin="-6" xMax="469" yMax="734">
      <contour>
        <pt x="227" y="601" on="1"/>
        <pt x="334" y="734" on="1"/>
        <pt x="429" y="734" on="1"/>
        <pt x="296" y="601" on="1"/>
      </contour>
      <contour>
        <pt x="57" y="511" on="1"/>
        <pt x="165" y="541" on="0"/>
        <pt x="319" y="541" on="1"/>
        <pt x="384" y="541" on="0"/>
        <pt x="469" y="465" on="0"/>
        <pt x="469" y="387" on="1"/>
        <pt x="469" y="0" on="1"/>
        <pt x="414" y="0" on="1"/>
        <pt x="395" y="64" on="1"/>
        <pt x="380" y="57" on="1"/>
        <pt x="250" y="-6" on="0"/>
        <pt x="173" y="-6" on="1"/>
        <pt x="116" y="-6" on="0"/>
        <pt x="40" y="64" on="0"/>
        <pt x="40" y="126" on="1"/>
        <pt x="40" y="187" on="1"/>
        <pt x="40" y="248" on="0"/>
        <pt x="111" y="320" on="0"/>
        <pt x="173" y="320" on="1"/>
        <pt x="284" y="320" on="0"/>
        <pt x="395" y="320" on="0"/>
        <pt x="395" y="320" on="1"/>
        <pt x="396" y="353" on="0"/>
        <pt x="396" y="386" on="0"/>
        <pt x="395" y="387" on="1"/>
        <pt x="395" y="469" on="0"/>
        <pt x="223" y="469" on="0"/>
        <pt x="57" y="457" on="1"/>
      </contour>
      <contour>
        <pt x="114" y="131" on="1"/>
        <pt x="114" y="68" on="0"/>
        <pt x="173" y="68" on="1"/>
        <pt x="209" y="68" on="0"/>
        <pt x="320" y="94" on="0"/>
        <pt x="358" y="106" on="1"/>
        <pt x="395" y="119" on="1"/>
        <pt x="395" y="262" on="1"/>
        <pt x="173" y="246" on="1"/>
        <pt x="143" y="243" on="0"/>
        <pt x="114" y="207" on="0"/>
        <pt x="114" y="181" on="1"/>
      </contour>
    </TTGlyph>
    <TTGlyph name="aacute.salt" xMin="50" yMin="0" xMax="486" yMax="730">
      <contour>
        <pt x="231" y="597" on="1"/>
        <pt x="338" y="730" on="1"/>
        <pt x="433" y="730" on="1"/>
        <pt x="300" y="597" on="1"/>
      </contour>
      <contour>
        <pt x="50" y="131" on="1"/>
        <pt x="50" y="195" on="1"/>
        <pt x="50" y="317" on="0"/>
        <pt x="187" y="317" on="1"/>
        <pt x="412" y="317" on="1"/>
        <pt x="412" y="407" on="0"/>
        <pt x="368" y="463" on="0"/>
        <pt x="311" y="463" on="1"/>
        <pt x="295" y="463" on="0"/>
        <pt x="61" y="451" on="1"/>
        <pt x="61" y="507" on="1"/>
        <pt x="75" y="509" on="0"/>
        <pt x="130" y="519" on="1"/>
        <pt x="228" y="537" on="0"/>
        <pt x="310" y="537" on="1"/>
        <pt x="414" y="536" on="0"/>
        <pt x="486" y="420" on="0"/>
        <pt x="486" y="262" on="1"/>
        <pt x="486" y="156" on="1"/>
        <pt x="486" y="0" on="0"/>
        <pt x="331" y="0" on="1"/>
        <pt x="187" y="0" on="1"/>
        <pt x="50" y="0" on="0"/>
      </contour>
      <contour>
        <pt x="124" y="131" on="1"/>
        <pt x="124" y="103" on="0"/>
        <pt x="148" y="74" on="0"/>
        <pt x="187" y="74" on="1"/>
        <pt x="331" y="74" on="1"/>
        <pt x="383" y="74" on="0"/>
        <pt x="412" y="114" on="0"/>
        <pt x="412" y="156" on="1"/>
        <pt x="412" y="260" on="1"/>
        <pt x="187" y="244" on="1"/>
        <pt x="154" y="242" on="0"/>
        <pt x="124" y="219" on="0"/>
        <pt x="124" y="195" on="1"/>
      </contour>
    </TTGlyph>
    <TTGlyph name="aacute.smcp" xMin="35" yMin="0" xMax="556" yMax="763">
      <contour>
        <pt x="270" y="630" on="1"/>
        <pt x="378" y="763" on="1"/>
        <pt x="472" y="763" on="1"/>
        <pt x="340" y="630" on="1"/>
      </contour>
      <contour>
        <pt x="35" y="0" on="1"/>
        <pt x="268" y="570" on="1"/>
        <pt x="342" y="570" on="1"/>
        <pt x="556" y="0" on="1"/>
        <pt x="475" y="0" on="1"/>
        <pt x="415" y="152" on="1"/>
        <pt x="180" y="152" on="1"/>
        <pt x="116" y="0" on="1"/>
      </contour>
      <contour>
        <pt x="210" y="226" on="1"/>
        <pt x="390" y="226" on="1"/>
        <pt x="304" y="464" on="1"/>
      </contour>
    </TTGlyph>
    <TTGlyph name="abreve" xMin="40" yMin="-6" xMax="469" yMax="715">
      <contour>
        <pt x="158" y="715" on="1"/>
        <pt x="205" y="715" on="1"/>
        <pt x="205" y="687" on="0"/>
        <pt x="246" y="648" on="0"/>
        <pt x="301" y="648" on="0"/>
        <pt x="341" y="684" on="0"/>
        <pt x="341" y="715" on="1"/>
        <pt x="388" y="715" on="1"/>
        <pt x="388" y="662" on="0"/>
        <pt x="317" y="601" on="0"/>
        <pt x="228" y="601" on="0"/>
        <pt x="158" y="664" on="0"/>
      </contour>
      <contour>
        <pt x="57" y="511" on="1"/>
        <pt x="165" y="541" on="0"/>
        <pt x="319" y="541" on="1"/>
        <pt x="384" y="541" on="0"/>
        <pt x="469" y="465" on="0"/>
        <pt x="469" y="387" on="1"/>
        <pt x="469" y="0" on="1"/>
        <pt x="414" y="0" on="1"/>
        <pt x="395" y="64" on="1"/>
        <pt x="380" y="57" on="1"/>
        <pt x="250" y="-6" on="0"/>
        <pt x="173" y="-6" on="1"/>
        <pt x="116" y="-6" on="0"/>
        <pt x="40" y="64" on="0"/>
        <pt x="40" y="126" on="1"/>
        <pt x="40" y="187" on="1"/>
        <pt x="40" y="248" on="0"/>
        <pt x="111" y="320" on="0"/>
        <pt x="173" y="320" on="1"/>
        <pt x="284" y="320" on="0"/>
        <pt x="395" y="320" on="0"/>
        <pt x="395" y="320" on="1"/>
        <pt x="396" y="353" on="0"/>
        <pt x="396" y="386" on="0"/>
        <pt x="395" y="387" on="1"/>
        <pt x="395" y="469" on="0"/>
        <pt x="223" y="469" on="0"/>
        <pt x="57" y="457" on="1"/>
      </contour>
      <contour>
        <pt x="114" y="131" on="1"/>
        <pt x="114" y="68" on="0"/>
        <pt x="173" y="68" on="1"/>
        <pt x="209" y="68" on="0"/>
        <pt x="320" y="94" on="0"/>
        <pt x="358" y="106" on="1"/>
        <pt x="395" y="119" on="1"/>
        <pt x="395" y="262" on="1"/>
        <pt x="173" y="246" on="1"/>
        <pt x="143" y="243" on="0"/>
        <pt x="114" y="207" on="0"/>
        <pt x="114" y="181" on="1"/>
      </contour>
    </TTGlyph>
    <TTGlyph name="abreve.salt" xMin="50" yMin="0" xMax="486" yMax="711">
      <contour>
        <pt x="154" y="711" on="1"/>
        <pt x="201" y="711" on="1"/>
        <pt x="201" y="683" on="0"/>
        <pt x="242" y="644" on="0"/>
        <pt x="297" y="644" on="0"/>
        <pt x="337" y="680" on="0"/>
        <pt x="337" y="711" on="1"/>
        <pt x="384" y="711" on="1"/>
        <pt x="384" y="658" on="0"/>
        <pt x="313" y="597" on="0"/>
        <pt x="224" y="597" on="0"/>
        <pt x="154" y="660" on="0"/>
      </contour>
      <contour>
        <pt x="50" y="131" on="1"/>
        <pt x="50" y="195" on="1"/>
        <pt x="50" y="317" on="0"/>
        <pt x="187" y="317" on="1"/>
        <pt x="412" y="317" on="1"/>
        <pt x="412" y="407" on="0"/>
        <pt x="368" y="463" on="0"/>
        <pt x="311" y="463" on="1"/>
        <pt x="295" y="463" on="0"/>
        <pt x="61" y="451" on="1"/>
        <pt x="61" y="507" on="1"/>
        <pt x="75" y="509" on="0"/>
        <pt x="130" y="519" on="1"/>
        <pt x="228" y="537" on="0"/>
        <pt x="310" y="537" on="1"/>
        <pt x="414" y="536" on="0"/>
        <pt x="486" y="420" on="0"/>
        <pt x="486" y="262" on="1"/>
        <pt x="486" y="156" on="1"/>
        <pt x="486" y="0" on="0"/>
        <pt x="331" y="0" on="1"/>
        <pt x="187" y="0" on="1"/>
        <pt x="50" y="0" on="0"/>
      </contour>
      <contour>
        <pt x="124" y="131" on="1"/>
        <pt x="124" y="103" on="0"/>
        <pt x="148" y="74" on="0"/>
        <pt x="187" y="74" on="1"/>
        <pt x="331" y="74" on="1"/>
        <pt x="383" y="74" on="0"/>
        <pt x="412" y="114" on="0"/>
        <pt x="412" y="156" on="1"/>
        <pt x="412" y="260" on="1"/>
        <pt x="187" y="244" on="1"/>
        <pt x="154" y="242" on="0"/>
        <pt x="124" y="219" on="0"/>
        <pt x="124" y="195" on="1"/>
      </contour>
    </TTGlyph>
    <TTGlyph name="abreve.smcp" xMin="35" yMin="0" xMax="556" yMax="744">
      <contour>
        <pt x="190" y="744" on="1"/>
        <pt x="237" y="744" on="1"/>
        <pt x="237" y="716" on="0"/>
        <pt x="278" y="677" on="0"/>
        <pt x="333" y="677" on="0"/>
        <pt x="373" y="713" on="0"/>
        <pt x="373" y="744" on="1"/>
        <pt x="420" y="744" on="1"/>
        <pt x="420" y="691" on="0"/>
        <pt x="349" y="630" on="0"/>
        <pt x="260" y="630" on="0"/>
        <pt x="190" y="693" on="0"/>
      </contour>
      <contour>
        <pt x="35" y="0" on="1"/>
        <pt x="268" y="570" on="1"/>
        <pt x="342" y="570" on="1"/>
        <pt x="556" y="0" on="1"/>
        <pt x="475" y="0" on="1"/>
        <pt x="415" y="152" on="1"/>
        <pt x="180" y="152" on="1"/>
        <pt x="116" y="0" on="1"/>
      </contour>
      <contour>
        <pt x="210" y="226" on="1"/>
        <pt x="390" y="226" on="1"/>
        <pt x="304" y="464" on="1"/>
      </contour>
    </TTGlyph>
    <TTGlyph name="acircumflex" xMin="40" yMin="-6" xMax="469" yMax="731">
      <contour>
        <pt x="117" y="601" on="1"/>
        <pt x="234" y="731" on="1"/>
        <pt x="305" y="731" on="1"/>
        <pt x="409" y="601" on="1"/>
        <pt x="338" y="601" on="1"/>
        <pt x="267" y="672" on="1"/>
        <pt x="189" y="601" on="1"/>
      </contour>
      <contour>
        <pt x="57" y="511" on="1"/>
        <pt x="165" y="541" on="0"/>
        <pt x="319" y="541" on="1"/>
        <pt x="384" y="541" on="0"/>
        <pt x="469" y="465" on="0"/>
        <pt x="469" y="387" on="1"/>
        <pt x="469" y="0" on="1"/>
        <pt x="414" y="0" on="1"/>
        <pt x="395" y="64" on="1"/>
        <pt x="380" y="57" on="1"/>
        <pt x="250" y="-6" on="0"/>
        <pt x="173" y="-6" on="1"/>
        <pt x="116" y="-6" on="0"/>
        <pt x="40" y="64" on="0"/>
        <pt x="40" y="126" on="1"/>
        <pt x="40" y="187" on="1"/>
        <pt x="40" y="248" on="0"/>
        <pt x="111" y="320" on="0"/>
        <pt x="173" y="320" on="1"/>
        <pt x="284" y="320" on="0"/>
        <pt x="395" y="320" on="0"/>
        <pt x="395" y="320" on="1"/>
        <pt x="396" y="353" on="0"/>
        <pt x="396" y="386" on="0"/>
        <pt x="395" y="387" on="1"/>
        <pt x="395" y="469" on="0"/>
        <pt x="223" y="469" on="0"/>
        <pt x="57" y="457" on="1"/>
      </contour>
      <contour>
        <pt x="114" y="131" on="1"/>
        <pt x="114" y="68" on="0"/>
        <pt x="173" y="68" on="1"/>
        <pt x="209" y="68" on="0"/>
        <pt x="320" y="94" on="0"/>
        <pt x="358" y="106" on="1"/>
        <pt x="395" y="119" on="1"/>
        <pt x="395" y="262" on="1"/>
        <pt x="173" y="246" on="1"/>
        <pt x="143" y="243" on="0"/>
        <pt x="114" y="207" on="0"/>
        <pt x="114" y="181" on="1"/>
      </contour>
    </TTGlyph>
    <TTGlyph name="acircumflex.salt" xMin="50" yMin="0" xMax="486" yMax="727">
      <contour>
        <pt x="120" y="597" on="1"/>
        <pt x="237" y="727" on="1"/>
        <pt x="308" y="727" on="1"/>
        <pt x="412" y="597" on="1"/>
        <pt x="341" y="597" on="1"/>
        <pt x="270" y="668" on="1"/>
        <pt x="192" y="597" on="1"/>
      </contour>
      <contour>
        <pt x="50" y="131" on="1"/>
        <pt x="50" y="195" on="1"/>
        <pt x="50" y="317" on="0"/>
        <pt x="187" y="317" on="1"/>
        <pt x="412" y="317" on="1"/>
        <pt x="412" y="407" on="0"/>
        <pt x="368" y="463" on="0"/>
        <pt x="311" y="463" on="1"/>
        <pt x="295" y="463" on="0"/>
        <pt x="61" y="451" on="1"/>
        <pt x="61" y="507" on="1"/>
        <pt x="75" y="509" on="0"/>
        <pt x="130" y="519" on="1"/>
        <pt x="228" y="537" on="0"/>
        <pt x="310" y="537" on="1"/>
        <pt x="414" y="536" on="0"/>
        <pt x="486" y="420" on="0"/>
        <pt x="486" y="262" on="1"/>
        <pt x="486" y="156" on="1"/>
        <pt x="486" y="0" on="0"/>
        <pt x="331" y="0" on="1"/>
        <pt x="187" y="0" on="1"/>
        <pt x="50" y="0" on="0"/>
      </contour>
      <contour>
        <pt x="124" y="131" on="1"/>
        <pt x="124" y="103" on="0"/>
        <pt x="148" y="74" on="0"/>
        <pt x="187" y="74" on="1"/>
        <pt x="331" y="74" on="1"/>
        <pt x="383" y="74" on="0"/>
        <pt x="412" y="114" on="0"/>
        <pt x="412" y="156" on="1"/>
        <pt x="412" y="260" on="1"/>
        <pt x="187" y="244" on="1"/>
        <pt x="154" y="242" on="0"/>
        <pt x="124" y="219" on="0"/>
        <pt x="124" y="195" on="1"/>
      </contour>
    </TTGlyph>
    <TTGlyph name="acircumflex.smcp" xMin="35" yMin="0" xMax="556" yMax="760">
      <contour>
        <pt x="159" y="630" on="1"/>
        <pt x="276" y="760" on="1"/>
        <pt x="347" y="760" on="1"/>
        <pt x="451" y="630" on="1"/>
        <pt x="380" y="630" on="1"/>
        <pt x="309" y="701" on="1"/>
        <pt x="231" y="630" on="1"/>
      </contour>
      <contour>
        <pt x="35" y="0" on="1"/>
        <pt x="268" y="570" on="1"/>
        <pt x="342" y="570" on="1"/>
        <pt x="556" y="0" on="1"/>
        <pt x="475" y="0" on="1"/>
        <pt x="415" y="152" on="1"/>
        <pt x="180" y="152" on="1"/>
        <pt x="116" y="0" on="1"/>
      </contour>
      <contour>
        <pt x="210" y="226" on="1"/>
        <pt x="390" y="226" on="1"/>
        <pt x="304" y="464" on="1"/>
      </contour>
    </TTGlyph>
    <TTGlyph name="acute" xMin="20" yMin="531" xMax="222" yMax="664">
      <contour>
        <pt x="20" y="531" on="1"/>
        <pt x="127" y="664" on="1"/>
        <pt x="222" y="664" on="1"/>
        <pt x="89" y="531" on="1"/>
      </contour>
    </TTGlyph>
    <TTGlyph name="acute.smcp" xMin="20" yMin="531" xMax="222" yMax="664">
      <contour>
        <pt x="20" y="531" on="1"/>
        <pt x="127" y="664" on="1"/>
        <pt x="222" y="664" on="1"/>
        <pt x="89" y="531" on="1"/>
      </contour>
    </TTGlyph>
    <TTGlyph name="adieresis" xMin="40" yMin="-6" xMax="469" yMax="703">
      <contour>
        <pt x="83" y="631" on="0"/>
        <pt x="83" y="673" on="0"/>
        <pt x="113" y="702" on="0"/>
        <pt x="155" y="702" on="0"/>
        <pt x="184" y="673" on="0"/>
        <pt x="184" y="631" on="0"/>
        <pt x="155" y="601" on="0"/>
        <pt x="113" y="601" on="0"/>
      </contour>
      <contour>
        <pt x="338" y="631" on="0"/>
        <pt x="338" y="673" on="0"/>
        <pt x="368" y="702" on="0"/>
        <pt x="410" y="702" on="0"/>
        <pt x="439" y="673" on="0"/>
        <pt x="439" y="631" on="0"/>
        <pt x="410" y="601" on="0"/>
        <pt x="368" y="601" on="0"/>
      </contour>
      <contour>
        <pt x="57" y="511" on="1"/>
        <pt x="165" y="541" on="0"/>
        <pt x="319" y="541" on="1"/>
        <pt x="384" y="541" on="0"/>
        <pt x="469" y="465" on="0"/>
        <pt x="469" y="387" on="1"/>
        <pt x="469" y="0" on="1"/>
        <pt x="414" y="0" on="1"/>
        <pt x="395" y="64" on="1"/>
        <pt x="380" y="57" on="1"/>
        <pt x="250" y="-6" on="0"/>
        <pt x="173" y="-6" on="1"/>
        <pt x="116" y="-6" on="0"/>
        <pt x="40" y="64" on="0"/>
        <pt x="40" y="126" on="1"/>
        <pt x="40" y="187" on="1"/>
        <pt x="40" y="248" on="0"/>
        <pt x="111" y="320" on="0"/>
        <pt x="173" y="320" on="1"/>
        <pt x="284" y="320" on="0"/>
        <pt x="395" y="320" on="0"/>
        <pt x="395" y="320" on="1"/>
        <pt x="396" y="353" on="0"/>
        <pt x="396" y="386" on="0"/>
        <pt x="395" y="387" on="1"/>
        <pt x="395" y="469" on="0"/>
        <pt x="223" y="469" on="0"/>
        <pt x="57" y="457" on="1"/>
      </contour>
      <contour>
        <pt x="114" y="131" on="1"/>
        <pt x="114" y="68" on="0"/>
        <pt x="173" y="68" on="1"/>
        <pt x="209" y="68" on="0"/>
        <pt x="320" y="94" on="0"/>
        <pt x="358" y="106" on="1"/>
        <pt x="395" y="119" on="1"/>
        <pt x="395" y="262" on="1"/>
        <pt x="173" y="246" on="1"/>
        <pt x="143" y="243" on="0"/>
        <pt x="114" y="207" on="0"/>
        <pt x="114" y="181" on="1"/>
      </contour>
    </TTGlyph>
    <TTGlyph name="adieresis.salt" xMin="50" yMin="0" xMax="486" yMax="698">
      <contour>
        <pt x="98" y="627" on="0"/>
        <pt x="98" y="669" on="0"/>
        <pt x="128" y="698" on="0"/>
        <pt x="170" y="698" on="0"/>
        <pt x="199" y="669" on="0"/>
        <pt x="199" y="627" on="0"/>
        <pt x="170" y="597" on="0"/>
        <pt x="128" y="597" on="0"/>
      </contour>
      <contour>
        <pt x="353" y="627" on="0"/>
        <pt x="353" y="669" on="0"/>
        <pt x="383" y="698" on="0"/>
        <pt x="425" y="698" on="0"/>
        <pt x="454" y="669" on="0"/>
        <pt x="454" y="627" on="0"/>
        <pt x="425" y="597" on="0"/>
        <pt x="383" y="597" on="0"/>
      </contour>
      <contour>
        <pt x="50" y="131" on="1"/>
        <pt x="50" y="195" on="1"/>
        <pt x="50" y="317" on="0"/>
        <pt x="187" y="317" on="1"/>
        <pt x="412" y="317" on="1"/>
        <pt x="412" y="407" on="0"/>
        <pt x="368" y="463" on="0"/>
        <pt x="311" y="463" on="1"/>
        <pt x="295" y="463" on="0"/>
        <pt x="61" y="451" on="1"/>
        <pt x="61" y="507" on="1"/>
        <pt x="75" y="509" on="0"/>
        <pt x="130" y="519" on="1"/>
        <pt x="228" y="537" on="0"/>
        <pt x="310" y="537" on="1"/>
        <pt x="414" y="536" on="0"/>
        <pt x="486" y="420" on="0"/>
        <pt x="486" y="262" on="1"/>
        <pt x="486" y="156" on="1"/>
        <pt x="486" y="0" on="0"/>
        <pt x="331" y="0" on="1"/>
        <pt x="187" y="0" on="1"/>
        <pt x="50" y="0" on="0"/>
      </contour>
      <contour>
        <pt x="124" y="131" on="1"/>
        <pt x="124" y="103" on="0"/>
        <pt x="148" y="74" on="0"/>
        <pt x="187" y="74" on="1"/>
        <pt x="331" y="74" on="1"/>
        <pt x="383" y="74" on="0"/>
        <pt x="412" y="114" on="0"/>
        <pt x="412" y="156" on="1"/>
        <pt x="412" y="260" on="1"/>
        <pt x="187" y="244" on="1"/>
        <pt x="154" y="242" on="0"/>
        <pt x="124" y="219" on="0"/>
        <pt x="124" y="195" on="1"/>
      </contour>
    </TTGlyph>
    <TTGlyph name="adieresis.smcp" xMin="35" yMin="0" xMax="556" yMax="731">
      <contour>
        <pt x="127" y="660" on="0"/>
        <pt x="127" y="702" on="0"/>
        <pt x="157" y="731" on="0"/>
        <pt x="199" y="731" on="0"/>
        <pt x="228" y="702" on="0"/>
        <pt x="228" y="660" on="0"/>
        <pt x="199" y="630" on="0"/>
        <pt x="157" y="630" on="0"/>
      </contour>
      <contour>
        <pt x="382" y="660" on="0"/>
        <pt x="382" y="702" on="0"/>
        <pt x="412" y="731" on="0"/>
        <pt x="454" y="731" on="0"/>
        <pt x="483" y="702" on="0"/>
        <pt x="483" y="660" on="0"/>
        <pt x="454" y="630" on="0"/>
        <pt x="412" y="630" on="0"/>
      </contour>
      <contour>
        <pt x="35" y="0" on="1"/>
        <pt x="268" y="570" on="1"/>
        <pt x="342" y="570" on="1"/>
        <pt x="556" y="0" on="1"/>
        <pt x="475" y="0" on="1"/>
        <pt x="415" y="152" on="1"/>
        <pt x="180" y="152" on="1"/>
        <pt x="116" y="0" on="1"/>
      </contour>
      <contour>
        <pt x="210" y="226" on="1"/>
        <pt x="390" y="226" on="1"/>
        <pt x="304" y="464" on="1"/>
      </contour>
    </TTGlyph>
    <TTGlyph name="ae" xMin="40" yMin="0" xMax="831" yMax="548">
      <contour>
        <pt x="57" y="517" on="1"/>
        <pt x="148" y="547" on="0"/>
        <pt x="322" y="547" on="1"/>
        <pt x="403" y="547" on="0"/>
        <pt x="443" y="489" on="1"/>
        <pt x="469" y="520" on="0"/>
        <pt x="556" y="541" on="0"/>
        <pt x="683" y="541" on="0"/>
        <pt x="745" y="531" on="0"/>
        <pt x="805" y="495" on="0"/>
        <pt x="831" y="417" on="0"/>
        <pt x="831" y="353" on="1"/>
        <pt x="831" y="231" on="0"/>
        <pt x="694" y="231" on="1"/>
        <pt x="470" y="231" on="1"/>
        <pt x="470" y="138" on="0"/>
        <pt x="512" y="75" on="0"/>
        <pt x="571" y="75" on="1"/>
        <pt x="753" y="75" on="0"/>
        <pt x="821" y="85" on="1"/>
        <pt x="821" y="29" on="1"/>
        <pt x="722" y="1" on="0"/>
        <pt x="571" y="1" on="1"/>
        <pt x="511" y="1" on="0"/>
        <pt x="449" y="34" on="0"/>
        <pt x="417" y="71" on="1"/>
        <pt x="400" y="64" on="1"/>
        <pt x="312" y="25" on="0"/>
        <pt x="198" y="0" on="0"/>
        <pt x="173" y="0" on="1"/>
        <pt x="116" y="0" on="0"/>
        <pt x="40" y="70" on="0"/>
        <pt x="40" y="132" on="1"/>
        <pt x="40" y="172" on="1"/>
        <pt x="40" y="233" on="0"/>
        <pt x="111" y="305" on="0"/>
        <pt x="173" y="305" on="1"/>
        <pt x="284" y="304" on="0"/>
        <pt x="395" y="304" on="0"/>
        <pt x="395" y="305" on="1"/>
        <pt x="396" y="348" on="0"/>
        <pt x="396" y="392" on="0"/>
        <pt x="395" y="393" on="1"/>
        <pt x="395" y="475" on="0"/>
        <pt x="228" y="475" on="0"/>
        <pt x="57" y="463" on="1"/>
      </contour>
      <contour>
        <pt x="114" y="137" on="1"/>
        <pt x="114" y="74" on="0"/>
        <pt x="173" y="74" on="1"/>
        <pt x="209" y="74" on="0"/>
        <pt x="320" y="100" on="0"/>
        <pt x="358" y="112" on="1"/>
        <pt x="395" y="125" on="1"/>
        <pt x="395" y="253" on="1"/>
        <pt x="173" y="237" on="1"/>
        <pt x="143" y="234" on="0"/>
        <pt x="114" y="198" on="0"/>
        <pt x="114" y="172" on="1"/>
      </contour>
      <contour>
        <pt x="470" y="304" on="1"/>
        <pt x="694" y="304" on="1"/>
        <pt x="757" y="304" on="0"/>
        <pt x="757" y="353" on="1"/>
        <pt x="757" y="430" on="0"/>
        <pt x="712" y="467" on="0"/>
        <pt x="629" y="467" on="1"/>
        <pt x="526" y="467" on="0"/>
        <pt x="506" y="446" on="1"/>
        <pt x="478" y="416" on="0"/>
        <pt x="470" y="344" on="0"/>
      </contour>
    </TTGlyph>
    <TTGlyph name="ae.smcp" xMin="23" yMin="-3" xMax="736" yMax="570">
      <contour>
        <pt x="736" y="497" on="1"/>
        <pt x="460" y="497" on="1"/>
        <pt x="432" y="497" on="0"/>
        <pt x="428" y="484" on="1"/>
        <pt x="427" y="478" on="0"/>
        <pt x="426" y="465" on="1"/>
        <pt x="426" y="318" on="1"/>
        <pt x="705" y="311" on="1"/>
        <pt x="705" y="250" on="1"/>
        <pt x="426" y="242" on="1"/>
        <pt x="426" y="103" on="1"/>
        <pt x="426" y="83" on="0"/>
        <pt x="444" y="72" on="0"/>
        <pt x="464" y="72" on="1"/>
        <pt x="736" y="71" on="1"/>
        <pt x="736" y="11" on="1"/>
        <pt x="443" y="-2" on="1"/>
        <pt x="441" y="-2" on="0"/>
        <pt x="439" y="-2" on="1"/>
        <pt x="398" y="-2" on="0"/>
        <pt x="351" y="42" on="0"/>
        <pt x="351" y="81" on="1"/>
        <pt x="351" y="158" on="1"/>
        <pt x="187" y="158" on="1"/>
        <pt x="106" y="0" on="1"/>
        <pt x="23" y="0" on="1"/>
        <pt x="267" y="482" on="1"/>
        <pt x="294" y="535" on="0"/>
        <pt x="379" y="569" on="0"/>
        <pt x="458" y="570" on="1"/>
        <pt x="736" y="558" on="1"/>
      </contour>
      <contour>
        <pt x="351" y="232" on="1"/>
        <pt x="351" y="488" on="1"/>
        <pt x="223" y="232" on="1"/>
      </contour>
    </TTGlyph>
    <TTGlyph name="afii61289" xMin="30" yMin="0" xMax="324" yMax="739">
      <contour>
        <pt x="88" y="681" on="0"/>
        <pt x="153" y="739" on="0"/>
        <pt x="257" y="739" on="0"/>
        <pt x="323" y="657" on="0"/>
        <pt x="323" y="523" on="0"/>
        <pt x="236" y="362" on="0"/>
        <pt x="161" y="294" on="1"/>
        <pt x="161" y="189" on="1"/>
        <pt x="161" y="102" on="0"/>
        <pt x="183" y="87" on="1"/>
        <pt x="193" y="80" on="0"/>
        <pt x="218" y="73" on="0"/>
        <pt x="306" y="52" on="0"/>
        <pt x="307" y="53" on="1"/>
        <pt x="307" y="0" on="1"/>
        <pt x="263" y="0" on="0"/>
        <pt x="219" y="0" on="1"/>
        <pt x="147" y="1" on="0"/>
        <pt x="87" y="87" on="0"/>
        <pt x="87" y="189" on="1"/>
        <pt x="87" y="235" on="1"/>
        <pt x="73" y="226" on="0"/>
        <pt x="56" y="216" on="1"/>
        <pt x="30" y="248" on="1"/>
        <pt x="55" y="271" on="0"/>
        <pt x="87" y="304" on="1"/>
        <pt x="87" y="632" on="1"/>
      </contour>
      <contour>
        <pt x="249" y="596" on="1"/>
        <pt x="249" y="651" on="0"/>
        <pt x="216" y="664" on="1"/>
        <pt x="208" y="667" on="0"/>
        <pt x="189" y="667" on="0"/>
        <pt x="179" y="662" on="1"/>
        <pt x="161" y="652" on="0"/>
        <pt x="161" y="626" on="1"/>
        <pt x="161" y="396" on="1"/>
        <pt x="249" y="515" on="0"/>
      </contour>
    </TTGlyph>
    <TTGlyph name="afii61352" xMin="72" yMin="-8" xMax="1021" yMax="738">
      <contour>
        <pt x="72" y="0" on="1"/>
        <pt x="72" y="652" on="1"/>
        <pt x="72" y="700" on="0"/>
        <pt x="106" y="723" on="1"/>
        <pt x="128" y="738" on="0"/>
        <pt x="147" y="738" on="1"/>
        <pt x="215" y="738" on="0"/>
        <pt x="240" y="680" on="1"/>
        <pt x="508" y="83" on="1"/>
        <pt x="514" y="70" on="0"/>
        <pt x="532" y="74" on="0"/>
        <pt x="532" y="86" on="1"/>
        <pt x="532" y="568" on="1"/>
        <pt x="532" y="654" on="0"/>
        <pt x="625" y="735" on="0"/>
        <pt x="700" y="735" on="1"/>
        <pt x="889" y="734" on="1"/>
        <pt x="963" y="732" on="0"/>
        <pt x="1021" y="647" on="0"/>
        <pt x="1021" y="467" on="0"/>
        <pt x="962" y="381" on="0"/>
        <pt x="889" y="381" on="1"/>
        <pt x="823" y="381" on="1"/>
        <pt x="746" y="381" on="0"/>
        <pt x="691" y="482" on="0"/>
        <pt x="691" y="615" on="1"/>
        <pt x="753" y="615" on="1"/>
        <pt x="753" y="495" on="0"/>
        <pt x="775" y="466" on="1"/>
        <pt x="787" y="451" on="0"/>
        <pt x="809" y="443" on="0"/>
        <pt x="829" y="443" on="1"/>
        <pt x="883" y="443" on="1"/>
        <pt x="922" y="443" on="0"/>
        <pt x="959" y="483" on="0"/>
        <pt x="959" y="605" on="0"/>
        <pt x="940" y="656" on="0"/>
        <pt x="912" y="668" on="0"/>
        <pt x="883" y="669" on="1"/>
        <pt x="770" y="670" on="0"/>
        <pt x="698" y="670" on="1"/>
        <pt x="656" y="670" on="0"/>
        <pt x="606" y="620" on="0"/>
        <pt x="606" y="570" on="1"/>
        <pt x="606" y="79" on="1"/>
        <pt x="606" y="36" on="0"/>
        <pt x="550" y="-7" on="0"/>
        <pt x="522" y="-7" on="1"/>
        <pt x="466" y="-7" on="0"/>
        <pt x="442" y="49" on="1"/>
        <pt x="171" y="652" on="1"/>
        <pt x="166" y="663" on="0"/>
        <pt x="146" y="658" on="0"/>
        <pt x="146" y="645" on="1"/>
        <pt x="146" y="0" on="1"/>
      </contour>
    </TTGlyph>
    <TTGlyph name="agrave" xMin="40" yMin="-6" xMax="469" yMax="734">
      <contour>
        <pt x="99" y="734" on="1"/>
        <pt x="194" y="734" on="1"/>
        <pt x="301" y="601" on="1"/>
        <pt x="232" y="601" on="1"/>
      </contour>
      <contour>
        <pt x="57" y="511" on="1"/>
        <pt x="165" y="541" on="0"/>
        <pt x="319" y="541" on="1"/>
        <pt x="384" y="541" on="0"/>
        <pt x="469" y="465" on="0"/>
        <pt x="469" y="387" on="1"/>
        <pt x="469" y="0" on="1"/>
        <pt x="414" y="0" on="1"/>
        <pt x="395" y="64" on="1"/>
        <pt x="380" y="57" on="1"/>
        <pt x="250" y="-6" on="0"/>
        <pt x="173" y="-6" on="1"/>
        <pt x="116" y="-6" on="0"/>
        <pt x="40" y="64" on="0"/>
        <pt x="40" y="126" on="1"/>
        <pt x="40" y="187" on="1"/>
        <pt x="40" y="248" on="0"/>
        <pt x="111" y="320" on="0"/>
        <pt x="173" y="320" on="1"/>
        <pt x="284" y="320" on="0"/>
        <pt x="395" y="320" on="0"/>
        <pt x="395" y="320" on="1"/>
        <pt x="396" y="353" on="0"/>
        <pt x="396" y="386" on="0"/>
        <pt x="395" y="387" on="1"/>
        <pt x="395" y="469" on="0"/>
        <pt x="223" y="469" on="0"/>
        <pt x="57" y="457" on="1"/>
      </contour>
      <contour>
        <pt x="114" y="131" on="1"/>
        <pt x="114" y="68" on="0"/>
        <pt x="173" y="68" on="1"/>
        <pt x="209" y="68" on="0"/>
        <pt x="320" y="94" on="0"/>
        <pt x="358" y="106" on="1"/>
        <pt x="395" y="119" on="1"/>
        <pt x="395" y="262" on="1"/>
        <pt x="173" y="246" on="1"/>
        <pt x="143" y="243" on="0"/>
        <pt x="114" y="207" on="0"/>
        <pt x="114" y="181" on="1"/>
      </contour>
    </TTGlyph>
</ttFont>
